<svg width="168" height="250" xmlns="http://www.w3.org/2000/svg">
	<rect x="0" y="0" width="168" height="250" fill="black" />
	<rect x="40.5" y="-4.0" width="77" height="74" fill="rgb(242,203,97)" fill-opacity="1.00" transform="rotate(115, 79, 33)" />
	<rect x="40.0" y="228.5" width="18" height="3" fill="rgb(169,244,47)" fill-opacity="0.92" transform="rotate(279, 49, 230)" />
	<rect x="123.0" y="164.0" width="84" height="38" fill="rgb(155,139,97)" fill-opacity="0.29" transform="rotate(0, 165, 183)" />
	<rect x="36.0" y="214.0" width="8" height="10" fill="rgb(185,73,20)" fill-opacity="0.43" transform="rotate(202, 40, 219)" />
	<rect x="76.5" y="99.5" width="57" height="7" fill="rgb(218,217,125)" fill-opacity="0.94" transform="rotate(7, 105, 103)" />
	<rect x="107.5" y="211.5" width="1" height="1" fill="rgb(128,179,78)" fill-opacity="0.38" transform="rotate(130, 108, 212)" />
	<rect x="49.5" y="123.0" width="37" height="48" fill="rgb(209,215,46)" fill-opacity="0.31" transform="rotate(302, 68, 147)" />
	<rect x="19.0" y="66.0" width="24" height="76" fill="rgb(94,124,22)" fill-opacity="0.86" transform="rotate(193, 31, 104)" />
	<rect x="74.0" y="101.0" width="48" height="94" fill="rgb(242,198,91)" fill-opacity="0.73" transform="rotate(128, 98, 148)" />
	<rect x="74.5" y="102.5" width="45" height="105" fill="rgb(255,255,167)" fill-opacity="0.82" transform="rotate(168, 97, 155)" />
	<rect x="39.5" y="205.0" width="1" height="18" fill="rgb(255,194,57)" fill-opacity="0.36" transform="rotate(183, 40, 214)" />
	<rect x="40.5" y="166.5" width="15" height="53" fill="rgb(200,129,0)" fill-opacity="0.82" transform="rotate(110, 48, 193)" />
	<rect x="43.5" y="-4.0" width="25" height="56" fill="rgb(15,0,11)" fill-opacity="0.84" transform="rotate(198, 56, 24)" />
	<rect x="-13.0" y="25.0" width="46" height="24" fill="rgb(213,194,83)" fill-opacity="0.72" transform="rotate(4, 10, 37)" />
	<rect x="84.5" y="204.5" width="15" height="15" fill="rgb(235,132,42)" fill-opacity="0.98" transform="rotate(250, 92, 212)" />
	<rect x="112.0" y="-60.5" width="56" height="133" fill="rgb(112,117,87)" fill-opacity="0.89" transform="rotate(171, 140, 6)" />
	<rect x="-2.0" y="197.0" width="28" height="20" fill="rgb(64,48,139)" fill-opacity="0.09" transform="rotate(183, 12, 207)" />
	<rect x="3.5" y="4.5" width="43" height="63" fill="rgb(255,255,191)" fill-opacity="0.69" transform="rotate(114, 25, 36)" />
	<rect x="106.5" y="84.5" width="39" height="99" fill="rgb(198,252,53)" fill-opacity="1.00" transform="rotate(4, 126, 134)" />
	<rect x="114.0" y="115.5" width="62" height="67" fill="rgb(187,176,77)" fill-opacity="0.85" transform="rotate(189, 145, 149)" />
	<rect x="97.0" y="1.5" width="16" height="45" fill="rgb(0,128,140)" fill-opacity="0.39" transform="rotate(169, 105, 24)" />
	<rect x="142.5" y="88.5" width="19" height="27" fill="rgb(196,195,9)" fill-opacity="0.28" transform="rotate(207, 152, 102)" />
	<rect x="98.5" y="154.5" width="51" height="81" fill="rgb(15,7,16)" fill-opacity="0.94" transform="rotate(107, 124, 195)" />
	<rect x="73.0" y="105.0" width="60" height="86" fill="rgb(255,255,148)" fill-opacity="1.00" transform="rotate(153, 103, 148)" />
	<rect x="23.0" y="-25.0" width="46" height="72" fill="rgb(77,102,55)" fill-opacity="0.74" transform="rotate(270, 46, 11)" />
	<rect x="52.5" y="203.5" width="7" height="35" fill="rgb(136,166,21)" fill-opacity="0.86" transform="rotate(306, 56, 221)" />
	<rect x="65.5" y="129.0" width="47" height="60" fill="rgb(0,0,26)" fill-opacity="0.54" transform="rotate(260, 89, 159)" />
	<rect x="62.5" y="111.5" width="43" height="81" fill="rgb(255,236,79)" fill-opacity="0.35" transform="rotate(168, 84, 152)" />
	<rect x="85.0" y="31.0" width="102" height="106" fill="rgb(216,176,113)" fill-opacity="0.63" transform="rotate(140, 136, 84)" />
	<rect x="-4.0" y="117.5" width="18" height="95" fill="rgb(7,19,106)" fill-opacity="0.47" transform="rotate(234, 5, 165)" />
	<rect x="-36.5" y="21.0" width="75" height="46" fill="rgb(180,155,100)" fill-opacity="0.15" transform="rotate(150, 1, 44)" />
	<rect x="-19.5" y="-50.5" width="39" height="101" fill="rgb(77,106,67)" fill-opacity="0.73" transform="rotate(23, 0, 0)" />
	<rect x="42.0" y="200.0" width="6" height="12" fill="rgb(167,196,69)" fill-opacity="1.00" transform="rotate(204, 45, 206)" />
	<rect x="84.0" y="75.5" width="66" height="23" fill="rgb(11,23,16)" fill-opacity="0.70" transform="rotate(352, 117, 87)" />
	<rect x="74.0" y="67.0" width="14" height="96" fill="rgb(108,73,0)" fill-opacity="0.27" transform="rotate(19, 81, 115)" />
	<rect x="55.5" y="19.5" width="59" height="5" fill="rgb(52,1,0)" fill-opacity="0.56" transform="rotate(327, 85, 22)" />
	<rect x="-16.5" y="44.0" width="91" height="56" fill="rgb(98,131,97)" fill-opacity="0.39" transform="rotate(283, 29, 72)" />
	<rect x="97.5" y="55.0" width="37" height="100" fill="rgb(0,56,37)" fill-opacity="0.22" transform="rotate(26, 116, 105)" />
	<rect x="71.0" y="146.5" width="98" height="33" fill="rgb(9,4,40)" fill-opacity="0.99" transform="rotate(118, 120, 163)" />
	<rect x="108.0" y="-14.0" width="92" height="138" fill="rgb(93,196,73)" fill-opacity="0.13" transform="rotate(149, 154, 55)" />
	<rect x="97.0" y="138.0" width="88" height="80" fill="rgb(83,42,64)" fill-opacity="0.82" transform="rotate(261, 141, 178)" />
	<rect x="18.5" y="109.0" width="11" height="92" fill="rgb(20,117,113)" fill-opacity="0.39" transform="rotate(278, 24, 155)" />
	<rect x="87.0" y="139.5" width="80" height="87" fill="rgb(0,6,48)" fill-opacity="0.93" transform="rotate(236, 127, 183)" />
	<rect x="136.5" y="47.0" width="13" height="50" fill="rgb(243,242,129)" fill-opacity="0.25" transform="rotate(19, 143, 72)" />
	<rect x="87.0" y="72.0" width="4" height="94" fill="rgb(168,112,46)" fill-opacity="0.30" transform="rotate(54, 89, 119)" />
	<rect x="48.0" y="53.0" width="42" height="72" fill="rgb(124,85,83)" fill-opacity="0.37" transform="rotate(143, 69, 89)" />
	<rect x="-3.0" y="124.0" width="20" height="88" fill="rgb(253,170,97)" fill-opacity="0.37" transform="rotate(23, 7, 168)" />
	<rect x="64.5" y="101.5" width="63" height="25" fill="rgb(255,255,144)" fill-opacity="1.00" transform="rotate(334, 96, 114)" />
	<rect x="56.0" y="165.0" width="20" height="58" fill="rgb(255,255,76)" fill-opacity="0.99" transform="rotate(270, 66, 194)" />
	<rect x="94.5" y="127.0" width="17" height="74" fill="rgb(9,32,56)" fill-opacity="1.00" transform="rotate(208, 103, 164)" />
	<rect x="141.5" y="203.5" width="51" height="41" fill="rgb(230,189,246)" fill-opacity="0.05" transform="rotate(301, 167, 224)" />
	<rect x="-14.0" y="76.0" width="40" height="124" fill="rgb(149,121,69)" fill-opacity="0.51" transform="rotate(34, 6, 138)" />
	<rect x="69.5" y="162.5" width="15" height="9" fill="rgb(138,173,72)" fill-opacity="0.76" transform="rotate(114, 77, 167)" />
	<rect x="88.0" y="101.0" width="24" height="96" fill="rgb(6,12,42)" fill-opacity="0.84" transform="rotate(27, 100, 149)" />
	<rect x="25.5" y="125.5" width="3" height="11" fill="rgb(255,223,54)" fill-opacity="0.49" transform="rotate(68, 27, 131)" />
	<rect x="116.5" y="136.0" width="11" height="56" fill="rgb(99,71,31)" fill-opacity="0.36" transform="rotate(349, 122, 164)" />
	<rect x="45.5" y="143.0" width="39" height="16" fill="rgb(125,105,54)" fill-opacity="0.20" transform="rotate(284, 65, 151)" />
	<rect x="61.0" y="-13.0" width="48" height="86" fill="rgb(159,126,59)" fill-opacity="0.38" transform="rotate(233, 85, 30)" />
	<rect x="96.0" y="-33.0" width="20" height="66" fill="rgb(68,84,46)" fill-opacity="0.93" transform="rotate(270, 106, 0)" />
	<rect x="156.5" y="207.5" width="23" height="23" fill="rgb(145,77,46)" fill-opacity="0.35" transform="rotate(31, 168, 219)" />
	<rect x="2.5" y="195.0" width="9" height="6" fill="rgb(18,11,32)" fill-opacity="0.65" transform="rotate(320, 7, 198)" />
	<rect x="105.5" y="24.0" width="17" height="88" fill="rgb(53,54,35)" fill-opacity="1.00" transform="rotate(153, 114, 68)" />
	<rect x="30.0" y="131.5" width="56" height="51" fill="rgb(6,35,36)" fill-opacity="0.58" transform="rotate(197, 58, 157)" />
	<rect x="117.0" y="142.5" width="16" height="43" fill="rgb(5,9,5)" fill-opacity="0.13" transform="rotate(63, 125, 164)" />
	<rect x="36.5" y="176.0" width="11" height="46" fill="rgb(150,92,4)" fill-opacity="0.88" transform="rotate(147, 42, 199)" />
	<rect x="-30.0" y="4.5" width="64" height="123" fill="rgb(173,30,43)" fill-opacity="0.04" transform="rotate(190, 2, 66)" />
	<rect x="99.0" y="70.0" width="10" height="42" fill="rgb(23,17,32)" fill-opacity="0.96" transform="rotate(351, 104, 91)" />
	<rect x="24.5" y="-26.0" width="85" height="52" fill="rgb(167,222,154)" fill-opacity="0.25" transform="rotate(159, 67, 0)" />
	<rect x="0.0" y="141.5" width="78" height="123" fill="rgb(0,9,89)" fill-opacity="0.29" transform="rotate(36, 39, 203)" />
	<rect x="119.5" y="4.5" width="29" height="29" fill="rgb(117,123,76)" fill-opacity="0.45" transform="rotate(260, 134, 19)" />
	<rect x="-7.5" y="29.0" width="35" height="16" fill="rgb(141,150,102)" fill-opacity="0.55" transform="rotate(129, 10, 37)" />
	<rect x="38.5" y="-3.5" width="23" height="39" fill="rgb(164,146,81)" fill-opacity="0.24" transform="rotate(96, 50, 16)" />
	<rect x="76.0" y="89.5" width="84" height="133" fill="rgb(226,140,62)" fill-opacity="0.28" transform="rotate(338, 118, 156)" />
	<rect x="2.0" y="215.5" width="6" height="23" fill="rgb(169,125,107)" fill-opacity="0.08" transform="rotate(268, 5, 227)" />
	<rect x="2.5" y="148.0" width="37" height="48" fill="rgb(239,190,52)" fill-opacity="0.14" transform="rotate(341, 21, 172)" />
	<rect x="-7.5" y="58.0" width="65" height="144" fill="rgb(161,41,19)" fill-opacity="0.20" transform="rotate(153, 25, 130)" />
	<rect x="128.5" y="100.5" width="9" height="57" fill="rgb(0,0,52)" fill-opacity="0.29" transform="rotate(80, 133, 129)" />
	<rect x="81.0" y="-38.5" width="12" height="79" fill="rgb(101,118,77)" fill-opacity="0.88" transform="rotate(355, 87, 1)" />
	<rect x="54.0" y="185.5" width="26" height="31" fill="rgb(255,223,77)" fill-opacity="0.37" transform="rotate(279, 67, 201)" />
	<rect x="-0.5" y="163.0" width="31" height="18" fill="rgb(36,37,47)" fill-opacity="0.57" transform="rotate(154, 15, 172)" />
	<rect x="99.5" y="24.0" width="17" height="82" fill="rgb(25,5,23)" fill-opacity="0.83" transform="rotate(339, 108, 65)" />
	<rect x="56.5" y="-59.5" width="25" height="119" fill="rgb(109,91,42)" fill-opacity="0.29" transform="rotate(325, 69, 0)" />
	<rect x="80.0" y="142.5" width="22" height="87" fill="rgb(0,17,58)" fill-opacity="0.38" transform="rotate(13, 91, 186)" />
	<rect x="47.0" y="224.0" width="2" height="2" fill="rgb(180,243,125)" fill-opacity="0.90" transform="rotate(118, 48, 225)" />
	<rect x="50.0" y="169.5" width="118" height="83" fill="rgb(0,0,34)" fill-opacity="0.49" transform="rotate(330, 109, 211)" />
	<rect x="-1.5" y="201.0" width="27" height="74" fill="rgb(63,28,57)" fill-opacity="0.36" transform="rotate(98, 12, 238)" />
	<rect x="11.5" y="147.5" width="41" height="69" fill="rgb(43,37,78)" fill-opacity="0.14" transform="rotate(280, 32, 182)" />
	<rect x="68.5" y="193.0" width="9" height="78" fill="rgb(232,162,84)" fill-opacity="0.19" transform="rotate(2, 73, 232)" />
	<rect x="97.0" y="51.5" width="42" height="97" fill="rgb(0,8,19)" fill-opacity="0.25" transform="rotate(354, 118, 100)" />
	<rect x="46.0" y="190.0" width="36" height="64" fill="rgb(246,176,61)" fill-opacity="0.33" transform="rotate(206, 64, 222)" />
	<rect x="29.0" y="50.5" width="112" height="119" fill="rgb(82,17,0)" fill-opacity="0.18" transform="rotate(153, 85, 110)" />
	<rect x="59.0" y="138.5" width="8" height="17" fill="rgb(71,88,73)" fill-opacity="0.13" transform="rotate(82, 63, 147)" />
	<rect x="-32.5" y="0.5" width="79" height="67" fill="rgb(144,150,88)" fill-opacity="0.40" transform="rotate(23, 7, 34)" />
	<rect x="121.5" y="-46.0" width="7" height="118" fill="rgb(127,131,69)" fill-opacity="0.29" transform="rotate(187, 125, 13)" />
	<rect x="39.0" y="192.0" width="58" height="88" fill="rgb(252,141,60)" fill-opacity="0.26" transform="rotate(14, 68, 236)" />
	<rect x="48.5" y="206.5" width="5" height="39" fill="rgb(202,148,62)" fill-opacity="0.43" transform="rotate(10, 51, 226)" />
	<rect x="84.5" y="137.0" width="45" height="94" fill="rgb(10,0,18)" fill-opacity="0.30" transform="rotate(160, 107, 184)" />
	<rect x="49.0" y="228.5" width="66" height="43" fill="rgb(2,0,31)" fill-opacity="0.75" transform="rotate(221, 82, 250)" />
	<rect x="91.0" y="175.0" width="14" height="74" fill="rgb(68,53,27)" fill-opacity="0.55" transform="rotate(245, 98, 212)" />
	<rect x="-4.0" y="-4.0" width="12" height="12" fill="rgb(86,145,141)" fill-opacity="0.16" transform="rotate(58, 2, 2)" />
	<rect x="-35.5" y="77.5" width="87" height="145" fill="rgb(64,39,54)" fill-opacity="0.40" transform="rotate(9, 8, 150)" />
	<rect x="82.5" y="175.5" width="51" height="91" fill="rgb(121,42,1)" fill-opacity="0.09" transform="rotate(302, 108, 221)" />
	<rect x="161.5" y="12.0" width="11" height="90" fill="rgb(147,154,101)" fill-opacity="0.69" transform="rotate(170, 167, 57)" />
	<rect x="109.5" y="64.5" width="47" height="79" fill="rgb(99,32,17)" fill-opacity="0.16" transform="rotate(91, 133, 104)" />
	<rect x="121.0" y="69.5" width="54" height="37" fill="rgb(76,90,66)" fill-opacity="0.66" transform="rotate(179, 148, 88)" />
	<rect x="94.5" y="12.0" width="43" height="74" fill="rgb(48,64,77)" fill-opacity="0.17" transform="rotate(2, 116, 49)" />
	<rect x="96.0" y="-1.0" width="78" height="44" fill="rgb(130,179,113)" fill-opacity="0.17" transform="rotate(268, 135, 21)" />
	<rect x="-19.5" y="56.0" width="61" height="68" fill="rgb(78,105,77)" fill-opacity="0.37" transform="rotate(47, 11, 90)" />
	<rect x="26.0" y="53.0" width="78" height="26" fill="rgb(50,25,15)" fill-opacity="0.27" transform="rotate(179, 65, 66)" />
	<rect x="-16.5" y="120.5" width="61" height="33" fill="rgb(216,108,6)" fill-opacity="0.11" transform="rotate(282, 14, 137)" />
	<rect x="116.5" y="56.0" width="89" height="78" fill="rgb(59,72,76)" fill-opacity="0.16" transform="rotate(76, 161, 95)" />
	<rect x="41.5" y="199.5" width="41" height="7" fill="rgb(179,130,57)" fill-opacity="0.60" transform="rotate(158, 62, 203)" />
	<rect x="38.0" y="222.5" width="34" height="55" fill="rgb(32,9,30)" fill-opacity="0.78" transform="rotate(341, 55, 250)" />
	<rect x="167.5" y="215.0" width="1" height="70" fill="rgb(100,101,109)" fill-opacity="0.61" transform="rotate(269, 168, 250)" />
	<rect x="54.0" y="52.5" width="42" height="23" fill="rgb(228,178,78)" fill-opacity="0.47" transform="rotate(86, 75, 64)" />
	<rect x="140.5" y="220.0" width="55" height="60" fill="rgb(61,21,118)" fill-opacity="0.16" transform="rotate(227, 168, 250)" />
	<rect x="66.5" y="104.0" width="59" height="24" fill="rgb(254,225,32)" fill-opacity="0.13" transform="rotate(29, 96, 116)" />
	<rect x="163.5" y="208.5" width="7" height="7" fill="rgb(161,88,47)" fill-opacity="0.26" transform="rotate(349, 167, 212)" />
</svg>