<svg width="168" height="250" xmlns="http://www.w3.org/2000/svg">
	<rect x="0" y="0" width="168" height="250" fill="black" />
	<ellipse cx="117" cy="208" rx="1" ry="1" fill="rgb(91,129,170)" fill-opacity="0.41" transform="rotate(196, 117, 208)" />
	<ellipse cx="23" cy="129" rx="31" ry="35" fill="rgb(182,107,35)" fill-opacity="0.35" transform="rotate(217, 23, 129)" />
	<ellipse cx="168" cy="117" rx="37" ry="21" fill="rgb(201,167,83)" fill-opacity="0.99" transform="rotate(29, 168, 117)" />
	<ellipse cx="18" cy="33" rx="13" ry="47" fill="rgb(206,82,10)" fill-opacity="1.00" transform="rotate(135, 18, 33)" />
	<ellipse cx="153" cy="30" rx="28" ry="28" fill="rgb(155,49,205)" fill-opacity="0.60" transform="rotate(68, 153, 30)" />
	<ellipse cx="73" cy="165" rx="12" ry="1" fill="rgb(116,34,140)" fill-opacity="0.66" transform="rotate(127, 73, 165)" />
	<ellipse cx="67" cy="220" rx="19" ry="34" fill="rgb(4,192,205)" fill-opacity="0.68" transform="rotate(351, 67, 220)" />
	<ellipse cx="18" cy="53" rx="41" ry="11" fill="rgb(179,112,93)" fill-opacity="0.73" transform="rotate(158, 18, 53)" />
	<ellipse cx="127" cy="181" rx="7" ry="7" fill="rgb(144,0,105)" fill-opacity="0.41" transform="rotate(16, 127, 181)" />
	<ellipse cx="9" cy="107" rx="1" ry="6" fill="rgb(105,134,109)" fill-opacity="0.30" transform="rotate(50, 9, 107)" />
	<ellipse cx="56" cy="232" rx="21" ry="25" fill="rgb(86,2,210)" fill-opacity="0.31" transform="rotate(104, 56, 232)" />
	<ellipse cx="168" cy="227" rx="1" ry="1" fill="rgb(175,115,106)" fill-opacity="0.71" transform="rotate(155, 168, 227)" />
	<ellipse cx="82" cy="205" rx="1" ry="47" fill="rgb(0,0,181)" fill-opacity="0.58" transform="rotate(193, 82, 205)" />
	<ellipse cx="88" cy="163" rx="6" ry="49" fill="rgb(200,140,66)" fill-opacity="0.27" transform="rotate(69, 88, 163)" />
	<ellipse cx="166" cy="181" rx="1" ry="1" fill="rgb(146,2,15)" fill-opacity="0.67" transform="rotate(166, 166, 181)" />
	<ellipse cx="44" cy="196" rx="16" ry="24" fill="rgb(255,219,56)" fill-opacity="0.93" transform="rotate(283, 44, 196)" />
	<ellipse cx="154" cy="166" rx="24" ry="9" fill="rgb(0,101,161)" fill-opacity="0.43" transform="rotate(324, 154, 166)" />
	<ellipse cx="96" cy="5" rx="26" ry="12" fill="rgb(220,244,251)" fill-opacity="0.40" transform="rotate(58, 96, 5)" />
	<ellipse cx="56" cy="172" rx="14" ry="34" fill="rgb(135,0,162)" fill-opacity="0.21" transform="rotate(271, 56, 172)" />
	<ellipse cx="73" cy="169" rx="1" ry="1" fill="rgb(185,111,14)" fill-opacity="0.75" transform="rotate(325, 73, 169)" />
	<ellipse cx="0" cy="154" rx="51" ry="53" fill="rgb(255,158,170)" fill-opacity="0.25" transform="rotate(315, 0, 154)" />
	<ellipse cx="148" cy="110" rx="56" ry="53" fill="rgb(64,42,38)" fill-opacity="0.70" transform="rotate(161, 148, 110)" />
	<ellipse cx="68" cy="230" rx="19" ry="38" fill="rgb(16,157,11)" fill-opacity="0.84" transform="rotate(208, 68, 230)" />
	<ellipse cx="68" cy="0" rx="18" ry="9" fill="rgb(112,140,74)" fill-opacity="0.84" transform="rotate(55, 68, 0)" />
	<ellipse cx="160" cy="220" rx="1" ry="1" fill="rgb(203,112,68)" fill-opacity="0.28" transform="rotate(348, 160, 220)" />
	<ellipse cx="168" cy="231" rx="1" ry="16" fill="rgb(35,98,138)" fill-opacity="0.67" transform="rotate(346, 168, 231)" />
	<ellipse cx="78" cy="32" rx="45" ry="28" fill="rgb(255,181,102)" fill-opacity="0.96" transform="rotate(274, 78, 32)" />
	<ellipse cx="50" cy="231" rx="10" ry="10" fill="rgb(105,117,181)" fill-opacity="0.16" transform="rotate(307, 50, 231)" />
	<ellipse cx="57" cy="25" rx="22" ry="12" fill="rgb(44,0,0)" fill-opacity="0.88" transform="rotate(182, 57, 25)" />
	<ellipse cx="68" cy="164" rx="6" ry="6" fill="rgb(194,228,21)" fill-opacity="0.72" transform="rotate(273, 68, 164)" />
	<ellipse cx="108" cy="33" rx="13" ry="18" fill="rgb(59,153,21)" fill-opacity="0.76" transform="rotate(76, 108, 33)" />
	<ellipse cx="149" cy="235" rx="1" ry="1" fill="rgb(139,126,10)" fill-opacity="0.47" transform="rotate(342, 149, 235)" />
	<ellipse cx="131" cy="36" rx="42" ry="51" fill="rgb(0,66,53)" fill-opacity="0.46" transform="rotate(4, 131, 36)" />
	<ellipse cx="93" cy="134" rx="33" ry="2" fill="rgb(165,174,25)" fill-opacity="0.44" transform="rotate(107, 93, 134)" />
	<ellipse cx="85" cy="106" rx="13" ry="16" fill="rgb(80,196,44)" fill-opacity="1.00" transform="rotate(74, 85, 106)" />
	<ellipse cx="93" cy="2" rx="7" ry="60" fill="rgb(165,240,198)" fill-opacity="0.36" transform="rotate(23, 93, 2)" />
	<ellipse cx="34" cy="119" rx="6" ry="6" fill="rgb(170,139,0)" fill-opacity="1.00" transform="rotate(14, 34, 119)" />
	<ellipse cx="61" cy="5" rx="21" ry="55" fill="rgb(49,206,81)" fill-opacity="0.62" transform="rotate(211, 61, 5)" />
	<ellipse cx="76" cy="240" rx="8" ry="45" fill="rgb(101,54,82)" fill-opacity="0.42" transform="rotate(358, 76, 240)" />
	<ellipse cx="132" cy="27" rx="24" ry="50" fill="rgb(144,188,40)" fill-opacity="0.42" transform="rotate(132, 132, 27)" />
	<ellipse cx="0" cy="198" rx="8" ry="11" fill="rgb(205,181,248)" fill-opacity="0.65" transform="rotate(232, 0, 198)" />
	<ellipse cx="69" cy="203" rx="39" ry="55" fill="rgb(2,21,27)" fill-opacity="0.77" transform="rotate(204, 69, 203)" />
	<ellipse cx="123" cy="64" rx="15" ry="5" fill="rgb(97,172,87)" fill-opacity="0.53" transform="rotate(41, 123, 64)" />
	<ellipse cx="149" cy="40" rx="19" ry="19" fill="rgb(169,49,74)" fill-opacity="0.34" transform="rotate(58, 149, 40)" />
	<ellipse cx="123" cy="207" rx="1" ry="1" fill="rgb(86,21,44)" fill-opacity="0.35" transform="rotate(334, 123, 207)" />
	<ellipse cx="161" cy="43" rx="35" ry="52" fill="rgb(121,140,90)" fill-opacity="0.56" transform="rotate(337, 161, 43)" />
	<ellipse cx="79" cy="96" rx="6" ry="40" fill="rgb(150,107,180)" fill-opacity="0.37" transform="rotate(0, 79, 96)" />
	<ellipse cx="134" cy="85" rx="21" ry="8" fill="rgb(160,184,181)" fill-opacity="0.15" transform="rotate(113, 134, 85)" />
	<ellipse cx="77" cy="58" rx="1" ry="28" fill="rgb(48,208,181)" fill-opacity="0.62" transform="rotate(11, 77, 58)" />
	<ellipse cx="46" cy="204" rx="22" ry="14" fill="rgb(203,126,115)" fill-opacity="0.92" transform="rotate(157, 46, 204)" />
	<ellipse cx="38" cy="214" rx="35" ry="41" fill="rgb(144,105,123)" fill-opacity="0.47" transform="rotate(93, 38, 214)" />
	<ellipse cx="12" cy="42" rx="11" ry="11" fill="rgb(155,187,163)" fill-opacity="0.61" transform="rotate(118, 12, 42)" />
	<ellipse cx="120" cy="156" rx="19" ry="22" fill="rgb(74,87,98)" fill-opacity="0.20" transform="rotate(124, 120, 156)" />
	<ellipse cx="21" cy="212" rx="42" ry="62" fill="rgb(255,170,69)" fill-opacity="0.47" transform="rotate(267, 21, 212)" />
	<ellipse cx="20" cy="82" rx="29" ry="39" fill="rgb(49,132,20)" fill-opacity="0.49" transform="rotate(178, 20, 82)" />
	<ellipse cx="46" cy="102" rx="23" ry="41" fill="rgb(20,21,14)" fill-opacity="0.58" transform="rotate(6, 46, 102)" />
	<ellipse cx="86" cy="196" rx="3" ry="3" fill="rgb(75,20,119)" fill-opacity="0.45" transform="rotate(114, 86, 196)" />
	<ellipse cx="13" cy="176" rx="12" ry="41" fill="rgb(62,80,76)" fill-opacity="0.41" transform="rotate(261, 13, 176)" />
	<ellipse cx="99" cy="126" rx="4" ry="42" fill="rgb(255,244,85)" fill-opacity="0.22" transform="rotate(76, 99, 126)" />
	<ellipse cx="53" cy="237" rx="7" ry="7" fill="rgb(93,139,28)" fill-opacity="0.35" transform="rotate(83, 53, 237)" />
	<ellipse cx="72" cy="133" rx="30" ry="21" fill="rgb(134,109,73)" fill-opacity="0.45" transform="rotate(300, 72, 133)" />
	<ellipse cx="16" cy="219" rx="52" ry="27" fill="rgb(64,0,13)" fill-opacity="0.36" transform="rotate(102, 16, 219)" />
	<ellipse cx="56" cy="241" rx="9" ry="9" fill="rgb(64,85,8)" fill-opacity="0.46" transform="rotate(231, 56, 241)" />
	<ellipse cx="15" cy="0" rx="39" ry="66" fill="rgb(240,157,101)" fill-opacity="0.71" transform="rotate(149, 15, 0)" />
	<ellipse cx="91" cy="23" rx="8" ry="5" fill="rgb(246,104,189)" fill-opacity="0.40" transform="rotate(8, 91, 23)" />
	<ellipse cx="102" cy="8" rx="1" ry="22" fill="rgb(147,231,10)" fill-opacity="0.18" transform="rotate(20, 102, 8)" />
	<ellipse cx="0" cy="223" rx="1" ry="7" fill="rgb(182,117,114)" fill-opacity="0.74" transform="rotate(200, 0, 223)" />
	<ellipse cx="47" cy="141" rx="1" ry="1" fill="rgb(103,78,83)" fill-opacity="0.24" transform="rotate(149, 47, 141)" />
	<ellipse cx="101" cy="250" rx="1" ry="1" fill="rgb(110,11,120)" fill-opacity="0.51" transform="rotate(356, 101, 250)" />
	<ellipse cx="141" cy="164" rx="1" ry="1" fill="rgb(97,55,145)" fill-opacity="0.14" transform="rotate(93, 141, 164)" />
	<ellipse cx="115" cy="198" rx="1" ry="1" fill="rgb(205,30,152)" fill-opacity="0.52" transform="rotate(357, 115, 198)" />
	<ellipse cx="26" cy="244" rx="42" ry="49" fill="rgb(8,34,154)" fill-opacity="0.51" transform="rotate(328, 26, 244)" />
	<ellipse cx="151" cy="45" rx="8" ry="8" fill="rgb(223,106,127)" fill-opacity="0.41" transform="rotate(317, 151, 45)" />
	<ellipse cx="76" cy="78" rx="9" ry="9" fill="rgb(60,65,117)" fill-opacity="0.52" transform="rotate(6, 76, 78)" />
	<ellipse cx="2" cy="226" rx="37" ry="72" fill="rgb(20,0,0)" fill-opacity="0.58" transform="rotate(273, 2, 226)" />
	<ellipse cx="63" cy="195" rx="68" ry="58" fill="rgb(0,24,27)" fill-opacity="0.26" transform="rotate(132, 63, 195)" />
	<ellipse cx="157" cy="125" rx="13" ry="55" fill="rgb(191,187,155)" fill-opacity="0.15" transform="rotate(163, 157, 125)" />
	<ellipse cx="15" cy="9" rx="23" ry="37" fill="rgb(0,133,34)" fill-opacity="0.62" transform="rotate(268, 15, 9)" />
	<ellipse cx="83" cy="209" rx="11" ry="55" fill="rgb(247,49,35)" fill-opacity="0.50" transform="rotate(84, 83, 209)" />
	<ellipse cx="168" cy="250" rx="1" ry="27" fill="rgb(147,81,174)" fill-opacity="0.43" transform="rotate(254, 168, 250)" />
	<ellipse cx="50" cy="85" rx="13" ry="50" fill="rgb(147,212,103)" fill-opacity="0.29" transform="rotate(251, 50, 85)" />
	<ellipse cx="165" cy="200" rx="40" ry="60" fill="rgb(80,1,26)" fill-opacity="0.38" transform="rotate(90, 165, 200)" />
	<ellipse cx="42" cy="17" rx="30" ry="51" fill="rgb(73,255,51)" fill-opacity="0.24" transform="rotate(190, 42, 17)" />
	<ellipse cx="78" cy="14" rx="30" ry="56" fill="rgb(34,68,32)" fill-opacity="0.57" transform="rotate(354, 78, 14)" />
	<ellipse cx="38" cy="28" rx="14" ry="51" fill="rgb(194,255,159)" fill-opacity="0.31" transform="rotate(252, 38, 28)" />
	<ellipse cx="65" cy="127" rx="4" ry="6" fill="rgb(96,148,68)" fill-opacity="1.00" transform="rotate(280, 65, 127)" />
	<ellipse cx="29" cy="106" rx="7" ry="25" fill="rgb(151,206,13)" fill-opacity="0.31" transform="rotate(356, 29, 106)" />
	<ellipse cx="161" cy="196" rx="11" ry="35" fill="rgb(81,47,43)" fill-opacity="0.60" transform="rotate(2, 161, 196)" />
	<ellipse cx="90" cy="193" rx="25" ry="14" fill="rgb(197,12,68)" fill-opacity="0.18" transform="rotate(5, 90, 193)" />
	<ellipse cx="68" cy="62" rx="3" ry="34" fill="rgb(201,135,118)" fill-opacity="0.23" transform="rotate(287, 68, 62)" />
	<ellipse cx="121" cy="42" rx="8" ry="7" fill="rgb(156,220,172)" fill-opacity="0.56" transform="rotate(29, 121, 42)" />
	<ellipse cx="85" cy="68" rx="43" ry="40" fill="rgb(83,10,25)" fill-opacity="0.45" transform="rotate(273, 85, 68)" />
	<ellipse cx="39" cy="25" rx="23" ry="68" fill="rgb(232,203,79)" fill-opacity="0.56" transform="rotate(128, 39, 25)" />
	<ellipse cx="27" cy="102" rx="5" ry="1" fill="rgb(93,88,27)" fill-opacity="0.65" transform="rotate(238, 27, 102)" />
	<ellipse cx="148" cy="40" rx="28" ry="42" fill="rgb(163,165,106)" fill-opacity="0.56" transform="rotate(112, 148, 40)" />
	<ellipse cx="39" cy="212" rx="58" ry="63" fill="rgb(50,20,44)" fill-opacity="0.25" transform="rotate(238, 39, 212)" />
	<ellipse cx="19" cy="102" rx="1" ry="10" fill="rgb(18,177,139)" fill-opacity="0.53" transform="rotate(100, 19, 102)" />
	<ellipse cx="22" cy="250" rx="1" ry="4" fill="rgb(20,9,159)" fill-opacity="0.85" transform="rotate(275, 22, 250)" />
	<ellipse cx="32" cy="14" rx="66" ry="43" fill="rgb(96,106,99)" fill-opacity="0.53" transform="rotate(278, 32, 14)" />
	<ellipse cx="123" cy="97" rx="54" ry="21" fill="rgb(140,134,71)" fill-opacity="0.19" transform="rotate(142, 123, 97)" />
	<ellipse cx="120" cy="95" rx="1" ry="1" fill="rgb(62,72,151)" fill-opacity="0.15" transform="rotate(134, 120, 95)" />
	<ellipse cx="168" cy="93" rx="1" ry="1" fill="rgb(162,20,143)" fill-opacity="0.17" transform="rotate(105, 168, 93)" />
	<ellipse cx="89" cy="186" rx="14" ry="44" fill="rgb(111,175,196)" fill-opacity="0.04" transform="rotate(225, 89, 186)" />
	<ellipse cx="27" cy="92" rx="6" ry="6" fill="rgb(0,78,136)" fill-opacity="0.31" transform="rotate(80, 27, 92)" />
	<ellipse cx="110" cy="0" rx="39" ry="16" fill="rgb(133,157,117)" fill-opacity="0.55" transform="rotate(82, 110, 0)" />
	<ellipse cx="96" cy="229" rx="1" ry="1" fill="rgb(193,58,107)" fill-opacity="0.36" transform="rotate(260, 96, 229)" />
	<ellipse cx="28" cy="57" rx="5" ry="5" fill="rgb(92,46,48)" fill-opacity="0.29" transform="rotate(31, 28, 57)" />
	<ellipse cx="75" cy="196" rx="13" ry="30" fill="rgb(43,185,30)" fill-opacity="0.17" transform="rotate(181, 75, 196)" />
	<ellipse cx="39" cy="107" rx="14" ry="31" fill="rgb(113,250,169)" fill-opacity="0.09" transform="rotate(205, 39, 107)" />
	<ellipse cx="135" cy="202" rx="1" ry="1" fill="rgb(61,104,142)" fill-opacity="0.04" transform="rotate(13, 135, 202)" />
	<ellipse cx="77" cy="53" rx="11" ry="1" fill="rgb(113,145,91)" fill-opacity="0.31" transform="rotate(145, 77, 53)" />
	<ellipse cx="136" cy="243" rx="66" ry="39" fill="rgb(14,65,46)" fill-opacity="0.42" transform="rotate(258, 136, 243)" />
	<ellipse cx="75" cy="10" rx="46" ry="56" fill="rgb(127,60,23)" fill-opacity="0.13" transform="rotate(131, 75, 10)" />
	<ellipse cx="18" cy="93" rx="25" ry="50" fill="rgb(136,28,81)" fill-opacity="0.29" transform="rotate(309, 18, 93)" />
	<ellipse cx="74" cy="125" rx="20" ry="16" fill="rgb(255,237,104)" fill-opacity="0.53" transform="rotate(338, 74, 125)" />
	<ellipse cx="80" cy="117" rx="20" ry="54" fill="rgb(255,155,86)" fill-opacity="0.26" transform="rotate(358, 80, 117)" />
	<ellipse cx="160" cy="192" rx="17" ry="29" fill="rgb(106,50,158)" fill-opacity="0.14" transform="rotate(28, 160, 192)" />
	<ellipse cx="73" cy="130" rx="4" ry="4" fill="rgb(249,237,142)" fill-opacity="0.62" transform="rotate(42, 73, 130)" />
</svg>