<svg width="168" height="250" xmlns="http://www.w3.org/2000/svg">
	<rect x="0" y="0" width="168" height="250" fill="black" />
	<ellipse cx="79" cy="84" rx="13" ry="13" fill="rgb(169,153,20)" fill-opacity="0.73" transform="rotate(28, 79, 84)" />
	<ellipse cx="54" cy="118" rx="49" ry="60" fill="rgb(109,127,80)" fill-opacity="0.25" transform="rotate(61, 54, 118)" />
	<ellipse cx="59" cy="133" rx="17" ry="10" fill="rgb(224,189,43)" fill-opacity="0.60" transform="rotate(321, 59, 133)" />
	<ellipse cx="41" cy="90" rx="19" ry="11" fill="rgb(246,241,105)" fill-opacity="0.75" transform="rotate(297, 41, 90)" />
	<ellipse cx="26" cy="225" rx="24" ry="54" fill="rgb(255,215,59)" fill-opacity="0.68" transform="rotate(226, 26, 225)" />
	<ellipse cx="35" cy="21" rx="9" ry="9" fill="rgb(216,146,91)" fill-opacity="0.69" transform="rotate(221, 35, 21)" />
	<ellipse cx="59" cy="125" rx="47" ry="67" fill="rgb(219,78,30)" fill-opacity="0.27" transform="rotate(115, 59, 125)" />
	<ellipse cx="30" cy="23" rx="27" ry="35" fill="rgb(17,115,103)" fill-opacity="0.83" transform="rotate(127, 30, 23)" />
	<ellipse cx="78" cy="129" rx="21" ry="20" fill="rgb(254,203,112)" fill-opacity="0.38" transform="rotate(125, 78, 129)" />
	<ellipse cx="64" cy="228" rx="40" ry="18" fill="rgb(31,0,21)" fill-opacity="0.47" transform="rotate(51, 64, 228)" />
	<ellipse cx="168" cy="187" rx="29" ry="11" fill="rgb(176,100,101)" fill-opacity="0.39" transform="rotate(66, 168, 187)" />
	<ellipse cx="17" cy="210" rx="52" ry="67" fill="rgb(254,143,135)" fill-opacity="0.20" transform="rotate(204, 17, 210)" />
	<ellipse cx="45" cy="49" rx="10" ry="10" fill="rgb(153,255,209)" fill-opacity="1.00" transform="rotate(254, 45, 49)" />
	<ellipse cx="37" cy="75" rx="20" ry="4" fill="rgb(6,16,57)" fill-opacity="1.00" transform="rotate(183, 37, 75)" />
	<ellipse cx="72" cy="64" rx="20" ry="29" fill="rgb(87,178,70)" fill-opacity="0.63" transform="rotate(199, 72, 64)" />
	<ellipse cx="77" cy="108" rx="5" ry="26" fill="rgb(78,249,122)" fill-opacity="0.11" transform="rotate(184, 77, 108)" />
	<ellipse cx="153" cy="149" rx="12" ry="26" fill="rgb(61,31,165)" fill-opacity="0.16" transform="rotate(0, 153, 149)" />
	<ellipse cx="71" cy="124" rx="17" ry="9" fill="rgb(215,227,104)" fill-opacity="0.35" transform="rotate(351, 71, 124)" />
	<ellipse cx="26" cy="88" rx="7" ry="23" fill="rgb(233,5,159)" fill-opacity="0.11" transform="rotate(35, 26, 88)" />
	<ellipse cx="73" cy="186" rx="1" ry="19" fill="rgb(252,195,210)" fill-opacity="0.04" transform="rotate(222, 73, 186)" />
	<ellipse cx="77" cy="104" rx="12" ry="36" fill="rgb(254,254,195)" fill-opacity="0.45" transform="rotate(339, 77, 104)" />
	<ellipse cx="7" cy="100" rx="7" ry="40" fill="rgb(156,224,105)" fill-opacity="0.51" transform="rotate(117, 7, 100)" />
	<ellipse cx="159" cy="15" rx="22" ry="9" fill="rgb(176,159,136)" fill-opacity="0.44" transform="rotate(144, 159, 15)" />
	<ellipse cx="83" cy="113" rx="31" ry="19" fill="rgb(255,204,79)" fill-opacity="0.52" transform="rotate(69, 83, 113)" />
	<ellipse cx="43" cy="40" rx="37" ry="52" fill="rgb(171,216,104)" fill-opacity="0.33" transform="rotate(22, 43, 40)" />
	<ellipse cx="81" cy="150" rx="9" ry="9" fill="rgb(222,145,32)" fill-opacity="0.38" transform="rotate(38, 81, 150)" />
	<ellipse cx="16" cy="56" rx="15" ry="52" fill="rgb(209,255,202)" fill-opacity="0.69" transform="rotate(59, 16, 56)" />
	<ellipse cx="116" cy="238" rx="33" ry="33" fill="rgb(0,0,85)" fill-opacity="0.08" transform="rotate(59, 116, 238)" />
	<ellipse cx="38" cy="208" rx="12" ry="2" fill="rgb(34,22,38)" fill-opacity="0.76" transform="rotate(131, 38, 208)" />
	<ellipse cx="146" cy="68" rx="1" ry="1" fill="rgb(116,136,191)" fill-opacity="0.96" transform="rotate(112, 146, 68)" />
	<ellipse cx="67" cy="87" rx="12" ry="9" fill="rgb(33,1,0)" fill-opacity="0.88" transform="rotate(192, 67, 87)" />
	<ellipse cx="128" cy="48" rx="21" ry="14" fill="rgb(47,190,135)" fill-opacity="0.26" transform="rotate(100, 128, 48)" />
	<ellipse cx="27" cy="192" rx="11" ry="23" fill="rgb(255,140,20)" fill-opacity="0.83" transform="rotate(53, 27, 192)" />
	<ellipse cx="0" cy="96" rx="35" ry="8" fill="rgb(111,119,247)" fill-opacity="0.37" transform="rotate(194, 0, 96)" />
	<ellipse cx="33" cy="202" rx="4" ry="13" fill="rgb(75,100,42)" fill-opacity="0.62" transform="rotate(238, 33, 202)" />
	<ellipse cx="2" cy="209" rx="28" ry="66" fill="rgb(33,17,39)" fill-opacity="1.00" transform="rotate(144, 2, 209)" />
	<ellipse cx="57" cy="84" rx="40" ry="18" fill="rgb(141,145,69)" fill-opacity="0.53" transform="rotate(151, 57, 84)" />
	<ellipse cx="167" cy="215" rx="7" ry="7" fill="rgb(149,72,67)" fill-opacity="0.46" transform="rotate(49, 167, 215)" />
	<ellipse cx="168" cy="134" rx="19" ry="33" fill="rgb(236,96,64)" fill-opacity="0.63" transform="rotate(352, 168, 134)" />
	<ellipse cx="51" cy="206" rx="4" ry="4" fill="rgb(210,149,66)" fill-opacity="0.55" transform="rotate(211, 51, 206)" />
	<ellipse cx="125" cy="10" rx="23" ry="49" fill="rgb(57,73,26)" fill-opacity="0.32" transform="rotate(173, 125, 10)" />
	<ellipse cx="80" cy="211" rx="14" ry="16" fill="rgb(185,87,88)" fill-opacity="0.64" transform="rotate(78, 80, 211)" />
	<ellipse cx="17" cy="12" rx="10" ry="10" fill="rgb(159,119,19)" fill-opacity="0.51" transform="rotate(332, 17, 12)" />
	<ellipse cx="6" cy="6" rx="8" ry="8" fill="rgb(154,187,120)" fill-opacity="0.38" transform="rotate(136, 6, 6)" />
	<ellipse cx="161" cy="93" rx="20" ry="8" fill="rgb(5,152,131)" fill-opacity="0.62" transform="rotate(144, 161, 93)" />
	<ellipse cx="36" cy="65" rx="10" ry="15" fill="rgb(10,39,152)" fill-opacity="0.47" transform="rotate(309, 36, 65)" />
	<ellipse cx="133" cy="35" rx="10" ry="34" fill="rgb(219,186,76)" fill-opacity="0.66" transform="rotate(137, 133, 35)" />
	<ellipse cx="164" cy="244" rx="16" ry="61" fill="rgb(137,43,131)" fill-opacity="0.16" transform="rotate(339, 164, 244)" />
	<ellipse cx="50" cy="73" rx="14" ry="15" fill="rgb(0,0,80)" fill-opacity="0.58" transform="rotate(218, 50, 73)" />
	<ellipse cx="103" cy="156" rx="10" ry="10" fill="rgb(27,0,73)" fill-opacity="0.46" transform="rotate(330, 103, 156)" />
	<ellipse cx="25" cy="124" rx="34" ry="53" fill="rgb(255,201,127)" fill-opacity="0.19" transform="rotate(233, 25, 124)" />
	<ellipse cx="0" cy="5" rx="29" ry="47" fill="rgb(135,194,123)" fill-opacity="0.46" transform="rotate(311, 0, 5)" />
	<ellipse cx="114" cy="135" rx="15" ry="24" fill="rgb(201,96,50)" fill-opacity="0.37" transform="rotate(1, 114, 135)" />
	<ellipse cx="96" cy="157" rx="18" ry="54" fill="rgb(0,0,37)" fill-opacity="0.54" transform="rotate(80, 96, 157)" />
	<ellipse cx="0" cy="187" rx="21" ry="21" fill="rgb(163,154,142)" fill-opacity="0.13" transform="rotate(2, 0, 187)" />
	<ellipse cx="168" cy="250" rx="2" ry="1" fill="rgb(118,128,133)" fill-opacity="0.43" transform="rotate(318, 168, 250)" />
	<ellipse cx="109" cy="205" rx="17" ry="17" fill="rgb(255,121,130)" fill-opacity="0.14" transform="rotate(88, 109, 205)" />
	<ellipse cx="29" cy="182" rx="18" ry="64" fill="rgb(28,18,40)" fill-opacity="0.68" transform="rotate(201, 29, 182)" />
	<ellipse cx="153" cy="202" rx="1" ry="1" fill="rgb(32,77,47)" fill-opacity="0.32" transform="rotate(165, 153, 202)" />
	<ellipse cx="68" cy="248" rx="36" ry="32" fill="rgb(75,73,79)" fill-opacity="0.16" transform="rotate(171, 68, 248)" />
	<ellipse cx="45" cy="90" rx="23" ry="48" fill="rgb(32,11,20)" fill-opacity="0.63" transform="rotate(261, 45, 90)" />
	<ellipse cx="39" cy="250" rx="1" ry="1" fill="rgb(153,193,218)" fill-opacity="0.42" transform="rotate(43, 39, 250)" />
	<ellipse cx="115" cy="203" rx="1" ry="1" fill="rgb(226,174,88)" fill-opacity="0.69" transform="rotate(54, 115, 203)" />
	<ellipse cx="117" cy="37" rx="7" ry="24" fill="rgb(141,201,90)" fill-opacity="0.57" transform="rotate(328, 117, 37)" />
	<ellipse cx="71" cy="58" rx="12" ry="31" fill="rgb(228,116,92)" fill-opacity="0.62" transform="rotate(348, 71, 58)" />
	<ellipse cx="76" cy="160" rx="15" ry="15" fill="rgb(52,45,202)" fill-opacity="0.05" transform="rotate(192, 76, 160)" />
	<ellipse cx="129" cy="20" rx="6" ry="30" fill="rgb(162,143,73)" fill-opacity="0.68" transform="rotate(255, 129, 20)" />
	<ellipse cx="102" cy="134" rx="27" ry="4" fill="rgb(18,21,11)" fill-opacity="0.46" transform="rotate(346, 102, 134)" />
	<ellipse cx="165" cy="247" rx="5" ry="8" fill="rgb(99,79,168)" fill-opacity="0.08" transform="rotate(187, 165, 247)" />
	<ellipse cx="105" cy="59" rx="30" ry="43" fill="rgb(203,121,124)" fill-opacity="0.22" transform="rotate(105, 105, 59)" />
	<ellipse cx="0" cy="125" rx="1" ry="1" fill="rgb(52,71,71)" fill-opacity="0.58" transform="rotate(121, 0, 125)" />
	<ellipse cx="20" cy="81" rx="21" ry="50" fill="rgb(80,72,54)" fill-opacity="0.94" transform="rotate(141, 20, 81)" />
	<ellipse cx="112" cy="15" rx="8" ry="44" fill="rgb(96,45,51)" fill-opacity="0.68" transform="rotate(266, 112, 15)" />
	<ellipse cx="145" cy="44" rx="30" ry="2" fill="rgb(210,158,142)" fill-opacity="0.58" transform="rotate(260, 145, 44)" />
	<ellipse cx="98" cy="18" rx="9" ry="17" fill="rgb(148,137,69)" fill-opacity="0.47" transform="rotate(248, 98, 18)" />
	<ellipse cx="114" cy="206" rx="14" ry="10" fill="rgb(178,83,0)" fill-opacity="0.53" transform="rotate(188, 114, 206)" />
	<ellipse cx="60" cy="144" rx="14" ry="14" fill="rgb(74,51,40)" fill-opacity="0.69" transform="rotate(95, 60, 144)" />
	<ellipse cx="55" cy="45" rx="33" ry="47" fill="rgb(253,182,44)" fill-opacity="0.29" transform="rotate(311, 55, 45)" />
	<ellipse cx="0" cy="0" rx="2" ry="2" fill="rgb(21,121,183)" fill-opacity="0.56" transform="rotate(115, 0, 0)" />
	<ellipse cx="74" cy="0" rx="24" ry="21" fill="rgb(167,250,145)" fill-opacity="0.37" transform="rotate(59, 74, 0)" />
	<ellipse cx="63" cy="247" rx="5" ry="5" fill="rgb(69,34,71)" fill-opacity="0.33" transform="rotate(119, 63, 247)" />
	<ellipse cx="4" cy="181" rx="52" ry="20" fill="rgb(101,76,69)" fill-opacity="0.24" transform="rotate(333, 4, 181)" />
	<ellipse cx="151" cy="109" rx="26" ry="13" fill="rgb(160,172,56)" fill-opacity="0.76" transform="rotate(197, 151, 109)" />
	<ellipse cx="127" cy="6" rx="34" ry="56" fill="rgb(165,214,96)" fill-opacity="0.51" transform="rotate(305, 127, 6)" />
	<ellipse cx="79" cy="186" rx="11" ry="36" fill="rgb(182,106,32)" fill-opacity="0.27" transform="rotate(357, 79, 186)" />
	<ellipse cx="162" cy="61" rx="29" ry="25" fill="rgb(119,182,135)" fill-opacity="0.38" transform="rotate(104, 162, 61)" />
	<ellipse cx="168" cy="174" rx="9" ry="9" fill="rgb(217,244,67)" fill-opacity="0.39" transform="rotate(179, 168, 174)" />
	<ellipse cx="168" cy="145" rx="22" ry="6" fill="rgb(104,68,90)" fill-opacity="0.92" transform="rotate(80, 168, 145)" />
	<ellipse cx="137" cy="140" rx="39" ry="56" fill="rgb(68,42,27)" fill-opacity="0.27" transform="rotate(173, 137, 140)" />
	<ellipse cx="38" cy="246" rx="23" ry="29" fill="rgb(22,6,29)" fill-opacity="0.63" transform="rotate(73, 38, 246)" />
	<ellipse cx="163" cy="174" rx="5" ry="5" fill="rgb(194,95,61)" fill-opacity="0.52" transform="rotate(327, 163, 174)" />
	<ellipse cx="42" cy="0" rx="40" ry="79" fill="rgb(111,103,67)" fill-opacity="0.52" transform="rotate(200, 42, 0)" />
	<ellipse cx="163" cy="192" rx="25" ry="25" fill="rgb(97,193,255)" fill-opacity="0.11" transform="rotate(290, 163, 192)" />
	<ellipse cx="85" cy="177" rx="35" ry="24" fill="rgb(106,179,32)" fill-opacity="0.05" transform="rotate(75, 85, 177)" />
	<ellipse cx="127" cy="32" rx="1" ry="1" fill="rgb(72,204,98)" fill-opacity="0.34" transform="rotate(15, 127, 32)" />
	<ellipse cx="0" cy="0" rx="1" ry="22" fill="rgb(1,160,92)" fill-opacity="0.55" transform="rotate(38, 0, 0)" />
	<ellipse cx="11" cy="137" rx="4" ry="4" fill="rgb(211,98,44)" fill-opacity="0.24" transform="rotate(94, 11, 137)" />
	<ellipse cx="2" cy="173" rx="5" ry="5" fill="rgb(131,163,95)" fill-opacity="0.19" transform="rotate(244, 2, 173)" />
	<ellipse cx="43" cy="191" rx="2" ry="2" fill="rgb(92,81,115)" fill-opacity="0.26" transform="rotate(259, 43, 191)" />
	<ellipse cx="158" cy="47" rx="16" ry="47" fill="rgb(230,82,175)" fill-opacity="0.18" transform="rotate(97, 158, 47)" />
	<ellipse cx="160" cy="51" rx="32" ry="25" fill="rgb(216,169,104)" fill-opacity="0.48" transform="rotate(249, 160, 51)" />
	<ellipse cx="151" cy="77" rx="52" ry="24" fill="rgb(115,199,118)" fill-opacity="0.20" transform="rotate(266, 151, 77)" />
	<ellipse cx="166" cy="108" rx="27" ry="26" fill="rgb(177,131,62)" fill-opacity="0.42" transform="rotate(200, 166, 108)" />
	<ellipse cx="126" cy="0" rx="41" ry="41" fill="rgb(78,76,102)" fill-opacity="0.27" transform="rotate(339, 126, 0)" />
	<ellipse cx="157" cy="126" rx="44" ry="62" fill="rgb(70,61,63)" fill-opacity="0.47" transform="rotate(154, 157, 126)" />
	<ellipse cx="0" cy="205" rx="1" ry="1" fill="rgb(151,67,96)" fill-opacity="0.28" transform="rotate(323, 0, 205)" />
	<ellipse cx="0" cy="239" rx="1" ry="1" fill="rgb(28,34,85)" fill-opacity="0.48" transform="rotate(177, 0, 239)" />
	<ellipse cx="168" cy="210" rx="2" ry="2" fill="rgb(140,105,89)" fill-opacity="0.64" transform="rotate(139, 168, 210)" />
	<ellipse cx="12" cy="14" rx="17" ry="67" fill="rgb(94,111,79)" fill-opacity="0.37" transform="rotate(347, 12, 14)" />
	<ellipse cx="74" cy="201" rx="13" ry="5" fill="rgb(255,226,131)" fill-opacity="0.74" transform="rotate(260, 74, 201)" />
	<ellipse cx="0" cy="0" rx="1" ry="18" fill="rgb(149,68,63)" fill-opacity="0.38" transform="rotate(40, 0, 0)" />
	<ellipse cx="168" cy="136" rx="6" ry="31" fill="rgb(157,137,85)" fill-opacity="0.33" transform="rotate(329, 168, 136)" />
	<ellipse cx="134" cy="48" rx="19" ry="53" fill="rgb(120,151,93)" fill-opacity="0.28" transform="rotate(183, 134, 48)" />
	<ellipse cx="90" cy="63" rx="1" ry="48" fill="rgb(108,98,41)" fill-opacity="0.38" transform="rotate(183, 90, 63)" />
	<ellipse cx="106" cy="152" rx="26" ry="9" fill="rgb(83,94,0)" fill-opacity="0.22" transform="rotate(338, 106, 152)" />
	<ellipse cx="61" cy="68" rx="19" ry="17" fill="rgb(20,27,22)" fill-opacity="0.18" transform="rotate(45, 61, 68)" />
	<ellipse cx="123" cy="193" rx="54" ry="64" fill="rgb(39,24,51)" fill-opacity="0.39" transform="rotate(347, 123, 193)" />
	<ellipse cx="10" cy="34" rx="16" ry="28" fill="rgb(198,196,121)" fill-opacity="0.38" transform="rotate(299, 10, 34)" />
</svg>