<svg width="168" height="250" xmlns="http://www.w3.org/2000/svg">
	<rect x="0" y="0" width="168" height="250" fill="black" />
	<ellipse cx="108" cy="199" rx="3" ry="3" fill="rgb(110,165,154)" fill-opacity="0.48" transform="rotate(210, 108, 199)" />
	<ellipse cx="23" cy="129" rx="25" ry="29" fill="rgb(163,89,25)" fill-opacity="0.32" transform="rotate(205, 23, 129)" />
	<ellipse cx="168" cy="117" rx="37" ry="21" fill="rgb(175,194,85)" fill-opacity="0.95" transform="rotate(29, 168, 117)" />
	<ellipse cx="18" cy="33" rx="11" ry="45" fill="rgb(229,172,32)" fill-opacity="1.00" transform="rotate(135, 18, 33)" />
	<ellipse cx="153" cy="30" rx="28" ry="28" fill="rgb(188,114,143)" fill-opacity="0.60" transform="rotate(62, 153, 30)" />
	<ellipse cx="70" cy="162" rx="1" ry="1" fill="rgb(71,15,136)" fill-opacity="0.74" transform="rotate(107, 70, 162)" />
	<ellipse cx="67" cy="220" rx="18" ry="33" fill="rgb(52,196,223)" fill-opacity="0.68" transform="rotate(3, 67, 220)" />
	<ellipse cx="19" cy="54" rx="41" ry="11" fill="rgb(195,148,95)" fill-opacity="0.68" transform="rotate(164, 19, 54)" />
	<ellipse cx="127" cy="181" rx="8" ry="8" fill="rgb(142,26,72)" fill-opacity="0.35" transform="rotate(14, 127, 181)" />
	<ellipse cx="18" cy="116" rx="2" ry="2" fill="rgb(117,122,87)" fill-opacity="0.32" transform="rotate(58, 18, 116)" />
	<ellipse cx="56" cy="232" rx="22" ry="26" fill="rgb(98,2,215)" fill-opacity="0.36" transform="rotate(80, 56, 232)" />
	<ellipse cx="168" cy="227" rx="1" ry="1" fill="rgb(167,98,71)" fill-opacity="0.53" transform="rotate(155, 168, 227)" />
	<ellipse cx="82" cy="205" rx="9" ry="55" fill="rgb(19,8,157)" fill-opacity="0.27" transform="rotate(205, 82, 205)" />
	<ellipse cx="88" cy="163" rx="9" ry="52" fill="rgb(184,128,70)" fill-opacity="0.25" transform="rotate(65, 88, 163)" />
	<ellipse cx="166" cy="181" rx="2" ry="2" fill="rgb(130,46,28)" fill-opacity="0.80" transform="rotate(166, 166, 181)" />
	<ellipse cx="44" cy="196" rx="16" ry="24" fill="rgb(255,234,40)" fill-opacity="0.96" transform="rotate(293, 44, 196)" />
	<ellipse cx="154" cy="166" rx="33" ry="18" fill="rgb(47,85,112)" fill-opacity="0.43" transform="rotate(294, 154, 166)" />
	<ellipse cx="96" cy="5" rx="25" ry="11" fill="rgb(187,241,229)" fill-opacity="0.42" transform="rotate(54, 96, 5)" />
	<ellipse cx="56" cy="172" rx="10" ry="30" fill="rgb(140,53,147)" fill-opacity="0.28" transform="rotate(271, 56, 172)" />
	<ellipse cx="73" cy="169" rx="4" ry="4" fill="rgb(202,142,31)" fill-opacity="0.98" transform="rotate(325, 73, 169)" />
	<ellipse cx="0" cy="154" rx="50" ry="52" fill="rgb(255,188,151)" fill-opacity="0.29" transform="rotate(315, 0, 154)" />
	<ellipse cx="147" cy="109" rx="57" ry="54" fill="rgb(64,38,43)" fill-opacity="0.68" transform="rotate(155, 147, 109)" />
	<ellipse cx="68" cy="230" rx="19" ry="38" fill="rgb(58,84,8)" fill-opacity="0.81" transform="rotate(208, 68, 230)" />
	<ellipse cx="68" cy="5" rx="14" ry="7" fill="rgb(112,140,58)" fill-opacity="0.77" transform="rotate(67, 68, 5)" />
	<ellipse cx="159" cy="219" rx="5" ry="5" fill="rgb(118,112,82)" fill-opacity="0.29" transform="rotate(328, 159, 219)" />
	<ellipse cx="168" cy="231" rx="1" ry="15" fill="rgb(77,61,127)" fill-opacity="0.64" transform="rotate(350, 168, 231)" />
	<ellipse cx="78" cy="32" rx="45" ry="28" fill="rgb(255,173,78)" fill-opacity="0.92" transform="rotate(274, 78, 32)" />
	<ellipse cx="57" cy="238" rx="20" ry="20" fill="rgb(97,101,181)" fill-opacity="0.07" transform="rotate(299, 57, 238)" />
	<ellipse cx="57" cy="25" rx="22" ry="12" fill="rgb(123,0,0)" fill-opacity="1.00" transform="rotate(182, 57, 25)" />
	<ellipse cx="69" cy="165" rx="6" ry="6" fill="rgb(209,208,63)" fill-opacity="0.59" transform="rotate(249, 69, 165)" />
	<ellipse cx="106" cy="31" rx="13" ry="18" fill="rgb(24,96,21)" fill-opacity="0.87" transform="rotate(80, 106, 31)" />
	<ellipse cx="149" cy="235" rx="2" ry="2" fill="rgb(123,86,31)" fill-opacity="0.26" transform="rotate(342, 149, 235)" />
	<ellipse cx="139" cy="44" rx="49" ry="58" fill="rgb(0,60,63)" fill-opacity="0.46" transform="rotate(14, 139, 44)" />
	<ellipse cx="93" cy="134" rx="33" ry="2" fill="rgb(185,182,59)" fill-opacity="0.33" transform="rotate(109, 93, 134)" />
	<ellipse cx="87" cy="108" rx="13" ry="16" fill="rgb(107,163,45)" fill-opacity="1.00" transform="rotate(76, 87, 108)" />
	<ellipse cx="93" cy="2" rx="6" ry="59" fill="rgb(222,245,193)" fill-opacity="0.45" transform="rotate(25, 93, 2)" />
	<ellipse cx="33" cy="118" rx="9" ry="9" fill="rgb(204,138,1)" fill-opacity="0.94" transform="rotate(326, 33, 118)" />
	<ellipse cx="61" cy="5" rx="24" ry="58" fill="rgb(108,188,81)" fill-opacity="0.55" transform="rotate(237, 61, 5)" />
	<ellipse cx="78" cy="242" rx="18" ry="55" fill="rgb(133,45,63)" fill-opacity="0.37" transform="rotate(356, 78, 242)" />
	<ellipse cx="132" cy="27" rx="24" ry="50" fill="rgb(134,159,89)" fill-opacity="0.43" transform="rotate(134, 132, 27)" />
	<ellipse cx="0" cy="198" rx="7" ry="10" fill="rgb(210,179,248)" fill-opacity="0.85" transform="rotate(236, 0, 198)" />
	<ellipse cx="73" cy="207" rx="46" ry="62" fill="rgb(5,0,25)" fill-opacity="0.68" transform="rotate(198, 73, 207)" />
	<ellipse cx="122" cy="63" rx="15" ry="5" fill="rgb(107,148,94)" fill-opacity="0.53" transform="rotate(43, 122, 63)" />
	<ellipse cx="150" cy="41" rx="20" ry="20" fill="rgb(245,58,100)" fill-opacity="0.34" transform="rotate(54, 150, 41)" />
	<ellipse cx="117" cy="201" rx="7" ry="7" fill="rgb(103,55,35)" fill-opacity="0.35" transform="rotate(354, 117, 201)" />
	<ellipse cx="161" cy="43" rx="35" ry="52" fill="rgb(110,134,92)" fill-opacity="0.56" transform="rotate(339, 161, 43)" />
	<ellipse cx="81" cy="98" rx="12" ry="46" fill="rgb(172,138,148)" fill-opacity="0.34" transform="rotate(2, 81, 98)" />
	<ellipse cx="133" cy="84" rx="22" ry="9" fill="rgb(139,198,140)" fill-opacity="0.15" transform="rotate(105, 133, 84)" />
	<ellipse cx="78" cy="59" rx="1" ry="19" fill="rgb(54,207,157)" fill-opacity="0.58" transform="rotate(15, 78, 59)" />
	<ellipse cx="46" cy="204" rx="25" ry="17" fill="rgb(216,148,90)" fill-opacity="0.95" transform="rotate(143, 46, 204)" />
	<ellipse cx="34" cy="210" rx="22" ry="28" fill="rgb(188,105,90)" fill-opacity="0.49" transform="rotate(111, 34, 210)" />
	<ellipse cx="11" cy="41" rx="11" ry="11" fill="rgb(160,241,117)" fill-opacity="0.61" transform="rotate(118, 11, 41)" />
	<ellipse cx="119" cy="155" rx="20" ry="23" fill="rgb(78,82,64)" fill-opacity="0.19" transform="rotate(122, 119, 155)" />
	<ellipse cx="24" cy="215" rx="40" ry="60" fill="rgb(255,203,58)" fill-opacity="0.51" transform="rotate(267, 24, 215)" />
	<ellipse cx="21" cy="83" rx="29" ry="39" fill="rgb(64,121,60)" fill-opacity="0.57" transform="rotate(142, 21, 83)" />
	<ellipse cx="46" cy="102" rx="23" ry="41" fill="rgb(25,9,21)" fill-opacity="0.58" transform="rotate(6, 46, 102)" />
	<ellipse cx="85" cy="195" rx="3" ry="3" fill="rgb(122,42,81)" fill-opacity="0.42" transform="rotate(120, 85, 195)" />
	<ellipse cx="11" cy="174" rx="16" ry="45" fill="rgb(76,64,61)" fill-opacity="0.57" transform="rotate(273, 11, 174)" />
	<ellipse cx="98" cy="125" rx="4" ry="42" fill="rgb(255,212,72)" fill-opacity="0.25" transform="rotate(76, 98, 125)" />
	<ellipse cx="70" cy="250" rx="1" ry="1" fill="rgb(110,113,14)" fill-opacity="0.22" transform="rotate(91, 70, 250)" />
	<ellipse cx="71" cy="132" rx="30" ry="21" fill="rgb(178,131,82)" fill-opacity="0.42" transform="rotate(300, 71, 132)" />
	<ellipse cx="16" cy="219" rx="52" ry="27" fill="rgb(61,11,37)" fill-opacity="0.45" transform="rotate(100, 16, 219)" />
	<ellipse cx="56" cy="241" rx="13" ry="13" fill="rgb(44,50,0)" fill-opacity="0.58" transform="rotate(245, 56, 241)" />
	<ellipse cx="15" cy="0" rx="38" ry="65" fill="rgb(245,192,128)" fill-opacity="0.69" transform="rotate(149, 15, 0)" />
	<ellipse cx="91" cy="23" rx="10" ry="7" fill="rgb(243,140,190)" fill-opacity="0.36" transform="rotate(352, 91, 23)" />
	<ellipse cx="102" cy="8" rx="5" ry="22" fill="rgb(160,231,63)" fill-opacity="0.43" transform="rotate(18, 102, 8)" />
	<ellipse cx="0" cy="211" rx="1" ry="1" fill="rgb(182,147,105)" fill-opacity="0.84" transform="rotate(184, 0, 211)" />
	<ellipse cx="27" cy="121" rx="1" ry="1" fill="rgb(161,142,94)" fill-opacity="0.30" transform="rotate(149, 27, 121)" />
	<ellipse cx="103" cy="250" rx="1" ry="1" fill="rgb(95,19,83)" fill-opacity="0.40" transform="rotate(356, 103, 250)" />
	<ellipse cx="140" cy="163" rx="1" ry="1" fill="rgb(86,69,169)" fill-opacity="0.15" transform="rotate(111, 140, 163)" />
	<ellipse cx="115" cy="198" rx="1" ry="1" fill="rgb(254,63,144)" fill-opacity="0.64" transform="rotate(357, 115, 198)" />
	<ellipse cx="17" cy="235" rx="28" ry="35" fill="rgb(9,0,152)" fill-opacity="0.44" transform="rotate(348, 17, 235)" />
	<ellipse cx="151" cy="45" rx="14" ry="14" fill="rgb(225,140,123)" fill-opacity="0.31" transform="rotate(331, 151, 45)" />
	<ellipse cx="76" cy="78" rx="10" ry="10" fill="rgb(95,107,63)" fill-opacity="0.64" transform="rotate(18, 76, 78)" />
	<ellipse cx="5" cy="229" rx="39" ry="74" fill="rgb(1,0,13)" fill-opacity="0.56" transform="rotate(271, 5, 229)" />
	<ellipse cx="64" cy="196" rx="68" ry="58" fill="rgb(8,0,27)" fill-opacity="0.25" transform="rotate(128, 64, 196)" />
	<ellipse cx="159" cy="127" rx="13" ry="55" fill="rgb(216,162,121)" fill-opacity="0.18" transform="rotate(163, 159, 127)" />
	<ellipse cx="14" cy="8" rx="22" ry="36" fill="rgb(0,76,42)" fill-opacity="0.90" transform="rotate(276, 14, 8)" />
	<ellipse cx="83" cy="209" rx="10" ry="54" fill="rgb(208,106,34)" fill-opacity="0.49" transform="rotate(84, 83, 209)" />
	<ellipse cx="168" cy="250" rx="1" ry="27" fill="rgb(142,142,174)" fill-opacity="0.46" transform="rotate(254, 168, 250)" />
	<ellipse cx="50" cy="85" rx="12" ry="49" fill="rgb(163,182,104)" fill-opacity="0.29" transform="rotate(251, 50, 85)" />
	<ellipse cx="166" cy="201" rx="37" ry="57" fill="rgb(61,6,35)" fill-opacity="0.33" transform="rotate(112, 166, 201)" />
	<ellipse cx="46" cy="21" rx="20" ry="41" fill="rgb(51,255,79)" fill-opacity="0.11" transform="rotate(184, 46, 21)" />
	<ellipse cx="78" cy="14" rx="31" ry="57" fill="rgb(36,62,36)" fill-opacity="0.53" transform="rotate(356, 78, 14)" />
	<ellipse cx="37" cy="27" rx="14" ry="51" fill="rgb(198,227,145)" fill-opacity="0.33" transform="rotate(252, 37, 27)" />
	<ellipse cx="64" cy="126" rx="4" ry="6" fill="rgb(147,155,65)" fill-opacity="1.00" transform="rotate(282, 64, 126)" />
	<ellipse cx="29" cy="106" rx="9" ry="27" fill="rgb(182,144,2)" fill-opacity="0.27" transform="rotate(356, 29, 106)" />
	<ellipse cx="165" cy="200" rx="7" ry="31" fill="rgb(75,47,44)" fill-opacity="0.73" transform="rotate(358, 165, 200)" />
	<ellipse cx="92" cy="195" rx="26" ry="15" fill="rgb(217,27,38)" fill-opacity="0.12" transform="rotate(15, 92, 195)" />
	<ellipse cx="71" cy="65" rx="11" ry="42" fill="rgb(197,137,67)" fill-opacity="0.17" transform="rotate(291, 71, 65)" />
	<ellipse cx="118" cy="39" rx="8" ry="7" fill="rgb(185,221,181)" fill-opacity="0.52" transform="rotate(27, 118, 39)" />
	<ellipse cx="83" cy="66" rx="40" ry="37" fill="rgb(79,0,19)" fill-opacity="0.33" transform="rotate(281, 83, 66)" />
	<ellipse cx="39" cy="25" rx="23" ry="68" fill="rgb(255,226,93)" fill-opacity="0.49" transform="rotate(128, 39, 25)" />
	<ellipse cx="27" cy="102" rx="1" ry="1" fill="rgb(100,94,16)" fill-opacity="0.65" transform="rotate(220, 27, 102)" />
	<ellipse cx="147" cy="39" rx="28" ry="42" fill="rgb(160,176,103)" fill-opacity="0.51" transform="rotate(114, 147, 39)" />
	<ellipse cx="39" cy="212" rx="55" ry="60" fill="rgb(73,29,59)" fill-opacity="0.09" transform="rotate(216, 39, 212)" />
	<ellipse cx="19" cy="102" rx="1" ry="3" fill="rgb(37,157,130)" fill-opacity="0.45" transform="rotate(64, 19, 102)" />
	<ellipse cx="26" cy="250" rx="1" ry="1" fill="rgb(13,13,98)" fill-opacity="0.78" transform="rotate(275, 26, 250)" />
	<ellipse cx="32" cy="14" rx="66" ry="43" fill="rgb(95,109,89)" fill-opacity="0.54" transform="rotate(276, 32, 14)" />
	<ellipse cx="124" cy="98" rx="54" ry="21" fill="rgb(178,115,57)" fill-opacity="0.18" transform="rotate(140, 124, 98)" />
	<ellipse cx="121" cy="96" rx="1" ry="1" fill="rgb(65,110,138)" fill-opacity="0.08" transform="rotate(134, 121, 96)" />
	<ellipse cx="168" cy="95" rx="1" ry="1" fill="rgb(132,36,129)" fill-opacity="0.06" transform="rotate(105, 168, 95)" />
	<ellipse cx="89" cy="186" rx="18" ry="48" fill="rgb(142,243,224)" fill-opacity="0.04" transform="rotate(241, 89, 186)" />
	<ellipse cx="27" cy="92" rx="10" ry="10" fill="rgb(0,70,86)" fill-opacity="0.29" transform="rotate(68, 27, 92)" />
	<ellipse cx="110" cy="0" rx="39" ry="16" fill="rgb(142,151,97)" fill-opacity="0.54" transform="rotate(82, 110, 0)" />
	<ellipse cx="95" cy="228" rx="1" ry="1" fill="rgb(167,23,76)" fill-opacity="0.13" transform="rotate(260, 95, 228)" />
	<ellipse cx="28" cy="57" rx="6" ry="6" fill="rgb(80,77,39)" fill-opacity="0.41" transform="rotate(31, 28, 57)" />
	<ellipse cx="75" cy="196" rx="9" ry="26" fill="rgb(93,182,63)" fill-opacity="0.16" transform="rotate(159, 75, 196)" />
	<ellipse cx="38" cy="106" rx="12" ry="29" fill="rgb(184,241,151)" fill-opacity="0.13" transform="rotate(205, 38, 106)" />
	<ellipse cx="133" cy="200" rx="11" ry="11" fill="rgb(61,76,148)" fill-opacity="0.13" transform="rotate(41, 133, 200)" />
	<ellipse cx="80" cy="56" rx="5" ry="1" fill="rgb(104,146,86)" fill-opacity="0.26" transform="rotate(169, 80, 56)" />
	<ellipse cx="135" cy="242" rx="68" ry="41" fill="rgb(30,17,45)" fill-opacity="0.42" transform="rotate(266, 135, 242)" />
	<ellipse cx="75" cy="10" rx="50" ry="60" fill="rgb(92,37,0)" fill-opacity="0.08" transform="rotate(119, 75, 10)" />
	<ellipse cx="17" cy="92" rx="25" ry="50" fill="rgb(114,51,72)" fill-opacity="0.31" transform="rotate(303, 17, 92)" />
	<ellipse cx="74" cy="125" rx="20" ry="16" fill="rgb(255,204,107)" fill-opacity="0.52" transform="rotate(348, 74, 125)" />
	<ellipse cx="80" cy="117" rx="20" ry="54" fill="rgb(255,207,76)" fill-opacity="0.18" transform="rotate(358, 80, 117)" />
	<ellipse cx="159" cy="191" rx="19" ry="31" fill="rgb(89,92,133)" fill-opacity="0.14" transform="rotate(12, 159, 191)" />
	<ellipse cx="73" cy="130" rx="3" ry="3" fill="rgb(243,214,117)" fill-opacity="0.62" transform="rotate(62, 73, 130)" />
</svg>