<svg width="168" height="250" xmlns="http://www.w3.org/2000/svg">
	<rect x="0" y="0" width="168" height="250" fill="black" />
	<rect x="41.0" y="-3.5" width="76" height="73" fill="rgb(240,203,98)" fill-opacity="1.00" transform="rotate(117, 79, 33)" />
	<rect x="39.5" y="228.0" width="19" height="4" fill="rgb(142,242,164)" fill-opacity="0.88" transform="rotate(269, 49, 230)" />
	<rect x="125.0" y="166.0" width="74" height="28" fill="rgb(155,122,97)" fill-opacity="0.33" transform="rotate(0, 162, 180)" />
	<rect x="37.0" y="215.0" width="8" height="10" fill="rgb(166,52,1)" fill-opacity="0.38" transform="rotate(190, 41, 220)" />
	<rect x="76.5" y="99.5" width="57" height="7" fill="rgb(215,222,125)" fill-opacity="0.94" transform="rotate(7, 105, 103)" />
	<rect x="92.5" y="196.5" width="11" height="11" fill="rgb(128,179,78)" fill-opacity="0.38" transform="rotate(112, 98, 202)" />
	<rect x="50.5" y="124.0" width="35" height="46" fill="rgb(171,207,23)" fill-opacity="0.31" transform="rotate(302, 68, 147)" />
	<rect x="20.0" y="67.0" width="22" height="74" fill="rgb(79,125,22)" fill-opacity="0.86" transform="rotate(197, 31, 104)" />
	<rect x="74.0" y="101.0" width="48" height="94" fill="rgb(254,233,88)" fill-opacity="0.73" transform="rotate(128, 98, 148)" />
	<rect x="75.0" y="103.0" width="44" height="104" fill="rgb(255,255,172)" fill-opacity="0.82" transform="rotate(168, 97, 155)" />
	<rect x="38.5" y="193.0" width="3" height="42" fill="rgb(255,214,140)" fill-opacity="0.21" transform="rotate(193, 40, 214)" />
	<rect x="39.5" y="165.5" width="15" height="53" fill="rgb(221,207,9)" fill-opacity="0.88" transform="rotate(110, 47, 192)" />
	<rect x="42.5" y="-5.0" width="27" height="58" fill="rgb(42,22,13)" fill-opacity="0.84" transform="rotate(198, 56, 24)" />
	<rect x="-13.0" y="25.0" width="46" height="24" fill="rgb(201,194,90)" fill-opacity="0.73" transform="rotate(10, 10, 37)" />
	<rect x="84.5" y="204.5" width="15" height="15" fill="rgb(255,110,67)" fill-opacity="0.93" transform="rotate(282, 92, 212)" />
	<rect x="112.0" y="-60.5" width="56" height="133" fill="rgb(111,117,86)" fill-opacity="0.89" transform="rotate(171, 140, 6)" />
	<rect x="21.5" y="220.5" width="19" height="11" fill="rgb(64,117,139)" fill-opacity="0.04" transform="rotate(149, 31, 226)" />
	<rect x="3.5" y="4.5" width="43" height="63" fill="rgb(255,255,187)" fill-opacity="0.65" transform="rotate(114, 25, 36)" />
	<rect x="106.5" y="84.5" width="39" height="99" fill="rgb(177,244,37)" fill-opacity="1.00" transform="rotate(4, 126, 134)" />
	<rect x="114.5" y="116.0" width="61" height="66" fill="rgb(199,180,80)" fill-opacity="0.78" transform="rotate(185, 145, 149)" />
	<rect x="96.5" y="1.0" width="17" height="46" fill="rgb(0,133,149)" fill-opacity="0.41" transform="rotate(169, 105, 24)" />
	<rect x="142.5" y="88.5" width="19" height="27" fill="rgb(170,203,17)" fill-opacity="0.26" transform="rotate(207, 152, 102)" />
	<rect x="107.0" y="163.0" width="42" height="72" fill="rgb(38,16,11)" fill-opacity="0.82" transform="rotate(119, 128, 199)" />
	<rect x="75.0" y="107.0" width="56" height="82" fill="rgb(255,231,128)" fill-opacity="0.64" transform="rotate(151, 103, 148)" />
	<rect x="23.0" y="-25.0" width="46" height="72" fill="rgb(80,102,55)" fill-opacity="0.74" transform="rotate(270, 46, 11)" />
	<rect x="52.5" y="203.5" width="7" height="35" fill="rgb(106,249,16)" fill-opacity="0.61" transform="rotate(306, 56, 221)" />
	<rect x="65.5" y="129.0" width="47" height="60" fill="rgb(0,16,57)" fill-opacity="0.47" transform="rotate(264, 89, 159)" />
	<rect x="63.0" y="112.0" width="44" height="82" fill="rgb(255,245,103)" fill-opacity="0.36" transform="rotate(168, 85, 153)" />
	<rect x="85.0" y="31.0" width="102" height="106" fill="rgb(216,176,113)" fill-opacity="0.63" transform="rotate(140, 136, 84)" />
	<rect x="-4.0" y="117.5" width="18" height="95" fill="rgb(11,44,142)" fill-opacity="0.36" transform="rotate(234, 5, 165)" />
	<rect x="-35.5" y="22.0" width="75" height="46" fill="rgb(197,157,79)" fill-opacity="0.15" transform="rotate(146, 2, 45)" />
	<rect x="-19.5" y="-50.5" width="39" height="101" fill="rgb(76,106,65)" fill-opacity="0.71" transform="rotate(23, 0, 0)" />
	<rect x="52.0" y="210.0" width="6" height="12" fill="rgb(157,243,92)" fill-opacity="1.00" transform="rotate(190, 55, 216)" />
	<rect x="84.0" y="75.5" width="66" height="23" fill="rgb(11,21,13)" fill-opacity="0.70" transform="rotate(354, 117, 87)" />
	<rect x="74.0" y="67.0" width="14" height="96" fill="rgb(129,64,0)" fill-opacity="0.27" transform="rotate(19, 81, 115)" />
	<rect x="55.5" y="19.5" width="59" height="5" fill="rgb(59,1,0)" fill-opacity="0.56" transform="rotate(327, 85, 22)" />
	<rect x="-16.5" y="44.0" width="91" height="56" fill="rgb(97,131,97)" fill-opacity="0.39" transform="rotate(283, 29, 72)" />
	<rect x="98.0" y="55.5" width="36" height="99" fill="rgb(0,44,39)" fill-opacity="0.22" transform="rotate(26, 116, 105)" />
	<rect x="71.0" y="146.5" width="98" height="33" fill="rgb(11,4,36)" fill-opacity="1.00" transform="rotate(118, 120, 163)" />
	<rect x="108.5" y="-13.5" width="93" height="139" fill="rgb(93,195,65)" fill-opacity="0.13" transform="rotate(149, 155, 56)" />
	<rect x="97.0" y="138.0" width="88" height="80" fill="rgb(80,47,64)" fill-opacity="0.82" transform="rotate(261, 141, 178)" />
	<rect x="18.5" y="109.0" width="11" height="92" fill="rgb(23,86,135)" fill-opacity="0.26" transform="rotate(276, 24, 155)" />
	<rect x="87.0" y="139.5" width="80" height="87" fill="rgb(0,9,48)" fill-opacity="0.93" transform="rotate(236, 127, 183)" />
	<rect x="136.0" y="46.5" width="14" height="51" fill="rgb(254,246,130)" fill-opacity="0.25" transform="rotate(15, 143, 72)" />
	<rect x="86.5" y="71.5" width="5" height="95" fill="rgb(233,141,38)" fill-opacity="0.36" transform="rotate(54, 89, 119)" />
	<rect x="47.0" y="52.0" width="44" height="74" fill="rgb(124,85,83)" fill-opacity="0.37" transform="rotate(145, 69, 89)" />
	<rect x="-8.5" y="118.5" width="27" height="95" fill="rgb(255,175,99)" fill-opacity="0.37" transform="rotate(23, 5, 166)" />
	<rect x="64.5" y="101.5" width="63" height="25" fill="rgb(255,255,144)" fill-opacity="1.00" transform="rotate(334, 96, 114)" />
	<rect x="56.5" y="165.5" width="19" height="57" fill="rgb(255,255,149)" fill-opacity="0.84" transform="rotate(270, 66, 194)" />
	<rect x="92.5" y="125.0" width="17" height="74" fill="rgb(8,33,52)" fill-opacity="1.00" transform="rotate(204, 101, 162)" />
	<rect x="138.5" y="200.5" width="47" height="37" fill="rgb(253,212,225)" fill-opacity="0.05" transform="rotate(295, 162, 219)" />
	<rect x="-14.0" y="76.0" width="40" height="124" fill="rgb(149,120,69)" fill-opacity="0.52" transform="rotate(34, 6, 138)" />
	<rect x="70.5" y="163.5" width="15" height="9" fill="rgb(163,150,75)" fill-opacity="0.84" transform="rotate(114, 78, 168)" />
	<rect x="88.0" y="101.0" width="24" height="96" fill="rgb(1,12,42)" fill-opacity="0.84" transform="rotate(27, 100, 149)" />
	<rect x="24.5" y="124.5" width="5" height="13" fill="rgb(234,190,21)" fill-opacity="0.35" transform="rotate(76, 27, 131)" />
	<rect x="116.5" y="136.0" width="11" height="56" fill="rgb(127,81,43)" fill-opacity="0.31" transform="rotate(351, 122, 164)" />
	<rect x="45.5" y="143.0" width="39" height="16" fill="rgb(110,93,73)" fill-opacity="0.36" transform="rotate(298, 65, 151)" />
	<rect x="61.0" y="-13.0" width="48" height="86" fill="rgb(159,126,59)" fill-opacity="0.38" transform="rotate(233, 85, 30)" />
	<rect x="95.5" y="-33.5" width="21" height="67" fill="rgb(69,84,47)" fill-opacity="0.93" transform="rotate(266, 106, 0)" />
	<rect x="158.0" y="209.0" width="20" height="20" fill="rgb(174,105,50)" fill-opacity="0.21" transform="rotate(27, 168, 219)" />
	<rect x="3.5" y="196.0" width="7" height="4" fill="rgb(22,11,47)" fill-opacity="0.67" transform="rotate(334, 7, 198)" />
	<rect x="105.5" y="24.0" width="17" height="88" fill="rgb(53,54,32)" fill-opacity="1.00" transform="rotate(153, 114, 68)" />
	<rect x="30.0" y="131.5" width="56" height="51" fill="rgb(1,46,35)" fill-opacity="0.55" transform="rotate(197, 58, 157)" />
	<rect x="130.5" y="156.0" width="7" height="34" fill="rgb(92,0,1)" fill-opacity="0.12" transform="rotate(71, 134, 173)" />
	<rect x="35.5" y="175.0" width="13" height="48" fill="rgb(161,92,0)" fill-opacity="0.82" transform="rotate(157, 42, 199)" />
	<rect x="-25.0" y="9.5" width="60" height="119" fill="rgb(161,30,86)" fill-opacity="0.04" transform="rotate(196, 5, 69)" />
	<rect x="99.0" y="70.0" width="10" height="42" fill="rgb(23,7,30)" fill-opacity="0.96" transform="rotate(351, 104, 91)" />
	<rect x="24.5" y="-26.0" width="85" height="52" fill="rgb(168,222,158)" fill-opacity="0.25" transform="rotate(159, 67, 0)" />
	<rect x="-1.0" y="140.5" width="80" height="125" fill="rgb(0,8,85)" fill-opacity="0.36" transform="rotate(38, 39, 203)" />
	<rect x="121.5" y="6.5" width="25" height="25" fill="rgb(114,121,79)" fill-opacity="0.36" transform="rotate(240, 134, 19)" />
	<rect x="-8.0" y="28.5" width="36" height="17" fill="rgb(137,150,102)" fill-opacity="0.51" transform="rotate(129, 10, 37)" />
	<rect x="38.0" y="-4.0" width="22" height="38" fill="rgb(148,138,69)" fill-opacity="0.24" transform="rotate(96, 49, 15)" />
	<rect x="76.0" y="89.5" width="84" height="133" fill="rgb(226,140,62)" fill-opacity="0.28" transform="rotate(338, 118, 156)" />
	<rect x="2.0" y="215.5" width="6" height="23" fill="rgb(181,115,142)" fill-opacity="0.10" transform="rotate(278, 5, 227)" />
	<rect x="4.5" y="150.0" width="37" height="48" fill="rgb(235,175,60)" fill-opacity="0.14" transform="rotate(345, 23, 174)" />
	<rect x="-7.5" y="58.0" width="63" height="142" fill="rgb(161,41,34)" fill-opacity="0.20" transform="rotate(153, 24, 129)" />
	<rect x="128.5" y="100.5" width="11" height="59" fill="rgb(2,0,65)" fill-opacity="0.22" transform="rotate(80, 134, 130)" />
	<rect x="81.0" y="-38.5" width="12" height="79" fill="rgb(101,118,79)" fill-opacity="0.88" transform="rotate(355, 87, 1)" />
	<rect x="51.0" y="182.5" width="26" height="31" fill="rgb(255,241,55)" fill-opacity="0.25" transform="rotate(263, 64, 198)" />
	<rect x="-2.0" y="161.5" width="34" height="21" fill="rgb(44,41,52)" fill-opacity="0.60" transform="rotate(154, 15, 172)" />
	<rect x="99.5" y="24.0" width="17" height="82" fill="rgb(25,5,24)" fill-opacity="0.83" transform="rotate(339, 108, 65)" />
	<rect x="56.5" y="-59.5" width="25" height="119" fill="rgb(109,91,45)" fill-opacity="0.29" transform="rotate(325, 69, 0)" />
	<rect x="86.5" y="149.0" width="21" height="86" fill="rgb(0,3,55)" fill-opacity="0.47" transform="rotate(3, 97, 192)" />
	<rect x="43.0" y="220.0" width="4" height="4" fill="rgb(154,224,186)" fill-opacity="0.75" transform="rotate(118, 45, 222)" />
	<rect x="49.0" y="168.5" width="118" height="83" fill="rgb(0,0,34)" fill-opacity="0.52" transform="rotate(330, 108, 210)" />
	<rect x="-1.5" y="201.0" width="27" height="74" fill="rgb(57,24,41)" fill-opacity="0.38" transform="rotate(98, 12, 238)" />
	<rect x="11.0" y="147.0" width="40" height="68" fill="rgb(52,38,63)" fill-opacity="0.13" transform="rotate(282, 31, 181)" />
	<rect x="67.5" y="192.0" width="9" height="78" fill="rgb(243,129,81)" fill-opacity="0.13" transform="rotate(2, 72, 231)" />
	<rect x="97.0" y="51.5" width="42" height="97" fill="rgb(0,32,19)" fill-opacity="0.25" transform="rotate(352, 118, 100)" />
	<rect x="46.0" y="190.0" width="36" height="64" fill="rgb(255,156,60)" fill-opacity="0.34" transform="rotate(206, 64, 222)" />
	<rect x="29.5" y="51.0" width="111" height="118" fill="rgb(82,17,0)" fill-opacity="0.18" transform="rotate(153, 85, 110)" />
	<rect x="66.5" y="146.0" width="1" height="10" fill="rgb(82,109,22)" fill-opacity="0.10" transform="rotate(50, 67, 151)" />
	<rect x="-33.5" y="-0.5" width="79" height="67" fill="rgb(146,150,88)" fill-opacity="0.38" transform="rotate(23, 6, 33)" />
	<rect x="121.5" y="-46.0" width="7" height="118" fill="rgb(127,136,73)" fill-opacity="0.31" transform="rotate(187, 125, 13)" />
	<rect x="37.5" y="190.5" width="61" height="91" fill="rgb(255,193,55)" fill-opacity="0.30" transform="rotate(14, 68, 236)" />
	<rect x="49.0" y="207.0" width="4" height="38" fill="rgb(212,153,68)" fill-opacity="0.56" transform="rotate(10, 51, 226)" />
	<rect x="83.0" y="135.5" width="46" height="95" fill="rgb(17,12,23)" fill-opacity="0.33" transform="rotate(160, 106, 183)" />
	<rect x="49.0" y="228.5" width="64" height="41" fill="rgb(2,4,34)" fill-opacity="0.64" transform="rotate(221, 81, 249)" />
	<rect x="85.5" y="169.5" width="31" height="91" fill="rgb(46,16,25)" fill-opacity="0.40" transform="rotate(225, 101, 215)" />
	<rect x="-3.5" y="-3.5" width="11" height="11" fill="rgb(89,155,158)" fill-opacity="0.15" transform="rotate(58, 2, 2)" />
	<rect x="-35.5" y="77.5" width="87" height="145" fill="rgb(64,39,50)" fill-opacity="0.40" transform="rotate(9, 8, 150)" />
	<rect x="59.5" y="152.5" width="69" height="109" fill="rgb(63,13,17)" fill-opacity="0.09" transform="rotate(314, 94, 207)" />
	<rect x="161.5" y="12.0" width="11" height="90" fill="rgb(151,155,106)" fill-opacity="0.65" transform="rotate(170, 167, 57)" />
	<rect x="109.5" y="64.5" width="47" height="79" fill="rgb(99,26,17)" fill-opacity="0.16" transform="rotate(91, 133, 104)" />
	<rect x="121.0" y="69.5" width="54" height="37" fill="rgb(76,90,66)" fill-opacity="0.66" transform="rotate(179, 148, 88)" />
	<rect x="94.5" y="12.0" width="43" height="74" fill="rgb(54,64,77)" fill-opacity="0.17" transform="rotate(2, 116, 49)" />
	<rect x="96.0" y="-1.0" width="78" height="44" fill="rgb(130,173,113)" fill-opacity="0.17" transform="rotate(268, 135, 21)" />
	<rect x="-19.5" y="56.0" width="61" height="68" fill="rgb(81,105,76)" fill-opacity="0.37" transform="rotate(49, 11, 90)" />
	<rect x="26.5" y="53.5" width="77" height="25" fill="rgb(59,26,18)" fill-opacity="0.27" transform="rotate(179, 65, 66)" />
	<rect x="-18.5" y="118.5" width="67" height="39" fill="rgb(208,108,11)" fill-opacity="0.11" transform="rotate(314, 15, 138)" />
	<rect x="116.5" y="56.0" width="87" height="76" fill="rgb(58,70,76)" fill-opacity="0.16" transform="rotate(76, 160, 94)" />
	<rect x="42.0" y="200.0" width="40" height="6" fill="rgb(194,134,63)" fill-opacity="0.44" transform="rotate(162, 62, 203)" />
	<rect x="34.0" y="219.5" width="40" height="61" fill="rgb(36,12,31)" fill-opacity="0.78" transform="rotate(353, 54, 250)" />
	<rect x="167.5" y="215.0" width="1" height="70" fill="rgb(101,102,110)" fill-opacity="0.58" transform="rotate(269, 168, 250)" />
	<rect x="54.0" y="52.5" width="42" height="23" fill="rgb(228,178,78)" fill-opacity="0.47" transform="rotate(86, 75, 64)" />
	<rect x="141.0" y="220.5" width="52" height="57" fill="rgb(94,33,136)" fill-opacity="0.16" transform="rotate(227, 167, 249)" />
	<rect x="66.5" y="104.0" width="59" height="24" fill="rgb(255,219,32)" fill-opacity="0.13" transform="rotate(29, 96, 116)" />
	<rect x="162.5" y="207.5" width="9" height="9" fill="rgb(162,85,42)" fill-opacity="0.28" transform="rotate(341, 167, 212)" />
</svg>