<svg width="168" height="250" xmlns="http://www.w3.org/2000/svg">
	<rect x="0" y="0" width="168" height="250" fill="black" />
	<ellipse cx="71" cy="21" rx="44" ry="58" fill="rgb(255,198,100)" fill-opacity="0.58" transform="rotate(23, 71, 21)" />
	<ellipse cx="139" cy="191" rx="1" ry="1" fill="rgb(114,208,182)" fill-opacity="0.76" transform="rotate(51, 139, 191)" />
	<ellipse cx="69" cy="136" rx="8" ry="31" fill="rgb(168,153,54)" fill-opacity="0.53" transform="rotate(162, 69, 136)" />
	<ellipse cx="15" cy="104" rx="17" ry="42" fill="rgb(135,62,39)" fill-opacity="0.60" transform="rotate(176, 15, 104)" />
	<ellipse cx="26" cy="92" rx="23" ry="19" fill="rgb(118,102,51)" fill-opacity="0.64" transform="rotate(150, 26, 92)" />
	<ellipse cx="40" cy="78" rx="24" ry="30" fill="rgb(198,210,134)" fill-opacity="0.76" transform="rotate(254, 40, 78)" />
	<ellipse cx="69" cy="157" rx="32" ry="43" fill="rgb(215,108,218)" fill-opacity="0.06" transform="rotate(81, 69, 157)" />
	<ellipse cx="94" cy="37" rx="31" ry="14" fill="rgb(255,234,111)" fill-opacity="1.00" transform="rotate(163, 94, 37)" />
	<ellipse cx="22" cy="50" rx="19" ry="36" fill="rgb(250,255,250)" fill-opacity="0.94" transform="rotate(251, 22, 50)" />
	<ellipse cx="22" cy="136" rx="19" ry="13" fill="rgb(245,179,47)" fill-opacity="0.69" transform="rotate(117, 22, 136)" />
	<ellipse cx="19" cy="8" rx="50" ry="49" fill="rgb(195,158,30)" fill-opacity="0.04" transform="rotate(81, 19, 8)" />
	<ellipse cx="61" cy="205" rx="17" ry="12" fill="rgb(148,162,57)" fill-opacity="0.99" transform="rotate(168, 61, 205)" />
	<ellipse cx="140" cy="141" rx="10" ry="21" fill="rgb(38,52,211)" fill-opacity="0.11" transform="rotate(130, 140, 141)" />
	<ellipse cx="109" cy="42" rx="11" ry="21" fill="rgb(154,127,51)" fill-opacity="0.81" transform="rotate(283, 109, 42)" />
	<ellipse cx="5" cy="118" rx="19" ry="38" fill="rgb(231,255,160)" fill-opacity="0.20" transform="rotate(88, 5, 118)" />
	<ellipse cx="128" cy="76" rx="16" ry="18" fill="rgb(203,73,212)" fill-opacity="0.75" transform="rotate(82, 128, 76)" />
	<ellipse cx="162" cy="135" rx="13" ry="34" fill="rgb(248,190,107)" fill-opacity="0.90" transform="rotate(345, 162, 135)" />
	<ellipse cx="39" cy="52" rx="19" ry="55" fill="rgb(13,233,244)" fill-opacity="0.22" transform="rotate(351, 39, 52)" />
	<ellipse cx="23" cy="198" rx="47" ry="21" fill="rgb(217,190,116)" fill-opacity="0.69" transform="rotate(195, 23, 198)" />
	<ellipse cx="16" cy="47" rx="27" ry="50" fill="rgb(28,0,14)" fill-opacity="0.72" transform="rotate(116, 16, 47)" />
	<ellipse cx="0" cy="120" rx="15" ry="1" fill="rgb(6,10,88)" fill-opacity="0.23" transform="rotate(84, 0, 120)" />
	<ellipse cx="162" cy="15" rx="48" ry="55" fill="rgb(96,133,58)" fill-opacity="0.85" transform="rotate(247, 162, 15)" />
	<ellipse cx="108" cy="204" rx="7" ry="7" fill="rgb(194,106,0)" fill-opacity="0.57" transform="rotate(214, 108, 204)" />
	<ellipse cx="76" cy="9" rx="11" ry="55" fill="rgb(71,33,19)" fill-opacity="1.00" transform="rotate(320, 76, 9)" />
	<ellipse cx="12" cy="10" rx="37" ry="66" fill="rgb(250,255,182)" fill-opacity="0.70" transform="rotate(333, 12, 10)" />
	<ellipse cx="24" cy="118" rx="6" ry="52" fill="rgb(177,236,0)" fill-opacity="0.47" transform="rotate(4, 24, 118)" />
	<ellipse cx="1" cy="29" rx="31" ry="24" fill="rgb(77,79,16)" fill-opacity="0.27" transform="rotate(273, 1, 29)" />
	<ellipse cx="97" cy="100" rx="18" ry="54" fill="rgb(255,255,121)" fill-opacity="1.00" transform="rotate(48, 97, 100)" />
	<ellipse cx="94" cy="206" rx="3" ry="13" fill="rgb(52,139,13)" fill-opacity="0.53" transform="rotate(230, 94, 206)" />
	<ellipse cx="159" cy="190" rx="8" ry="23" fill="rgb(60,170,183)" fill-opacity="0.55" transform="rotate(249, 159, 190)" />
	<ellipse cx="45" cy="61" rx="23" ry="1" fill="rgb(59,80,38)" fill-opacity="0.24" transform="rotate(33, 45, 61)" />
	<ellipse cx="115" cy="83" rx="11" ry="31" fill="rgb(204,89,176)" fill-opacity="0.60" transform="rotate(260, 115, 83)" />
	<ellipse cx="40" cy="201" rx="28" ry="15" fill="rgb(255,195,2)" fill-opacity="0.76" transform="rotate(63, 40, 201)" />
	<ellipse cx="67" cy="188" rx="31" ry="31" fill="rgb(0,18,126)" fill-opacity="0.20" transform="rotate(204, 67, 188)" />
	<ellipse cx="161" cy="182" rx="32" ry="16" fill="rgb(126,123,108)" fill-opacity="0.60" transform="rotate(67, 161, 182)" />
	<ellipse cx="18" cy="122" rx="9" ry="45" fill="rgb(152,129,58)" fill-opacity="0.33" transform="rotate(63, 18, 122)" />
	<ellipse cx="120" cy="149" rx="7" ry="7" fill="rgb(243,189,0)" fill-opacity="0.65" transform="rotate(19, 120, 149)" />
	<ellipse cx="122" cy="6" rx="19" ry="62" fill="rgb(2,34,5)" fill-opacity="0.62" transform="rotate(69, 122, 6)" />
	<ellipse cx="122" cy="204" rx="10" ry="49" fill="rgb(255,208,62)" fill-opacity="0.18" transform="rotate(259, 122, 204)" />
	<ellipse cx="22" cy="196" rx="19" ry="40" fill="rgb(0,12,27)" fill-opacity="0.88" transform="rotate(186, 22, 196)" />
	<ellipse cx="116" cy="99" rx="22" ry="28" fill="rgb(101,79,33)" fill-opacity="0.93" transform="rotate(220, 116, 99)" />
	<ellipse cx="142" cy="45" rx="61" ry="42" fill="rgb(0,34,84)" fill-opacity="0.44" transform="rotate(296, 142, 45)" />
	<ellipse cx="168" cy="250" rx="2" ry="2" fill="rgb(174,160,121)" fill-opacity="0.55" transform="rotate(103, 168, 250)" />
	<ellipse cx="120" cy="199" rx="2" ry="2" fill="rgb(249,164,40)" fill-opacity="0.36" transform="rotate(347, 120, 199)" />
	<ellipse cx="24" cy="61" rx="9" ry="57" fill="rgb(228,188,111)" fill-opacity="0.38" transform="rotate(4, 24, 61)" />
	<ellipse cx="144" cy="204" rx="20" ry="28" fill="rgb(0,5,19)" fill-opacity="0.64" transform="rotate(189, 144, 204)" />
	<ellipse cx="10" cy="239" rx="64" ry="106" fill="rgb(39,15,45)" fill-opacity="0.71" transform="rotate(327, 10, 239)" />
	<ellipse cx="24" cy="71" rx="10" ry="45" fill="rgb(121,138,97)" fill-opacity="0.76" transform="rotate(286, 24, 71)" />
	<ellipse cx="135" cy="152" rx="37" ry="30" fill="rgb(45,29,56)" fill-opacity="0.45" transform="rotate(164, 135, 152)" />
	<ellipse cx="112" cy="146" rx="4" ry="18" fill="rgb(186,169,82)" fill-opacity="0.16" transform="rotate(186, 112, 146)" />
	<ellipse cx="150" cy="208" rx="10" ry="35" fill="rgb(163,141,177)" fill-opacity="0.07" transform="rotate(179, 150, 208)" />
	<ellipse cx="72" cy="102" rx="1" ry="1" fill="rgb(143,248,215)" fill-opacity="0.92" transform="rotate(235, 72, 102)" />
	<ellipse cx="91" cy="79" rx="31" ry="59" fill="rgb(68,0,0)" fill-opacity="0.38" transform="rotate(334, 91, 79)" />
	<ellipse cx="0" cy="156" rx="1" ry="1" fill="rgb(199,200,255)" fill-opacity="0.47" transform="rotate(68, 0, 156)" />
	<ellipse cx="85" cy="100" rx="16" ry="37" fill="rgb(255,255,167)" fill-opacity="0.92" transform="rotate(353, 85, 100)" />
	<ellipse cx="47" cy="29" rx="15" ry="15" fill="rgb(175,197,139)" fill-opacity="0.98" transform="rotate(224, 47, 29)" />
	<ellipse cx="2" cy="74" rx="19" ry="45" fill="rgb(6,52,71)" fill-opacity="0.40" transform="rotate(326, 2, 74)" />
	<ellipse cx="134" cy="2" rx="37" ry="66" fill="rgb(225,214,119)" fill-opacity="0.46" transform="rotate(347, 134, 2)" />
	<ellipse cx="76" cy="207" rx="11" ry="31" fill="rgb(232,144,30)" fill-opacity="0.50" transform="rotate(268, 76, 207)" />
	<ellipse cx="168" cy="219" rx="19" ry="19" fill="rgb(155,99,81)" fill-opacity="0.12" transform="rotate(143, 168, 219)" />
	<ellipse cx="38" cy="0" rx="17" ry="28" fill="rgb(1,11,35)" fill-opacity="0.73" transform="rotate(286, 38, 0)" />
	<ellipse cx="101" cy="78" rx="13" ry="44" fill="rgb(166,121,58)" fill-opacity="0.86" transform="rotate(111, 101, 78)" />
	<ellipse cx="168" cy="214" rx="10" ry="10" fill="rgb(155,94,51)" fill-opacity="0.39" transform="rotate(82, 168, 214)" />
	<ellipse cx="31" cy="20" rx="34" ry="34" fill="rgb(166,244,145)" fill-opacity="0.14" transform="rotate(35, 31, 20)" />
	<ellipse cx="48" cy="0" rx="33" ry="40" fill="rgb(127,156,90)" fill-opacity="0.80" transform="rotate(81, 48, 0)" />
	<ellipse cx="167" cy="249" rx="10" ry="1" fill="rgb(104,117,128)" fill-opacity="0.51" transform="rotate(299, 167, 249)" />
	<ellipse cx="57" cy="30" rx="25" ry="27" fill="rgb(235,182,91)" fill-opacity="0.19" transform="rotate(272, 57, 30)" />
	<ellipse cx="52" cy="210" rx="8" ry="8" fill="rgb(184,225,100)" fill-opacity="0.36" transform="rotate(98, 52, 210)" />
	<ellipse cx="150" cy="166" rx="41" ry="37" fill="rgb(111,17,128)" fill-opacity="0.11" transform="rotate(70, 150, 166)" />
	<ellipse cx="92" cy="121" rx="2" ry="46" fill="rgb(226,177,74)" fill-opacity="0.29" transform="rotate(123, 92, 121)" />
	<ellipse cx="146" cy="74" rx="4" ry="16" fill="rgb(255,48,133)" fill-opacity="0.88" transform="rotate(212, 146, 74)" />
	<ellipse cx="113" cy="88" rx="17" ry="35" fill="rgb(33,0,35)" fill-opacity="0.83" transform="rotate(269, 113, 88)" />
	<ellipse cx="166" cy="174" rx="4" ry="4" fill="rgb(136,175,157)" fill-opacity="0.29" transform="rotate(129, 166, 174)" />
	<ellipse cx="48" cy="77" rx="8" ry="38" fill="rgb(0,5,4)" fill-opacity="0.52" transform="rotate(127, 48, 77)" />
	<ellipse cx="29" cy="122" rx="1" ry="9" fill="rgb(231,210,60)" fill-opacity="1.00" transform="rotate(123, 29, 122)" />
	<ellipse cx="113" cy="61" rx="22" ry="34" fill="rgb(0,0,0)" fill-opacity="0.24" transform="rotate(307, 113, 61)" />
	<ellipse cx="41" cy="83" rx="53" ry="22" fill="rgb(40,15,0)" fill-opacity="0.33" transform="rotate(212, 41, 83)" />
	<ellipse cx="122" cy="76" rx="25" ry="25" fill="rgb(0,46,43)" fill-opacity="0.36" transform="rotate(191, 122, 76)" />
	<ellipse cx="50" cy="200" rx="10" ry="44" fill="rgb(116,70,34)" fill-opacity="0.38" transform="rotate(303, 50, 200)" />
	<ellipse cx="142" cy="65" rx="41" ry="27" fill="rgb(161,160,99)" fill-opacity="0.36" transform="rotate(278, 142, 65)" />
	<ellipse cx="83" cy="4" rx="13" ry="35" fill="rgb(115,145,85)" fill-opacity="1.00" transform="rotate(306, 83, 4)" />
	<ellipse cx="158" cy="88" rx="31" ry="37" fill="rgb(140,150,96)" fill-opacity="0.91" transform="rotate(259, 158, 88)" />
	<ellipse cx="83" cy="106" rx="43" ry="30" fill="rgb(250,21,3)" fill-opacity="0.04" transform="rotate(272, 83, 106)" />
	<ellipse cx="168" cy="227" rx="19" ry="10" fill="rgb(118,56,76)" fill-opacity="0.29" transform="rotate(82, 168, 227)" />
	<ellipse cx="84" cy="0" rx="25" ry="24" fill="rgb(85,126,73)" fill-opacity="0.62" transform="rotate(5, 84, 0)" />
	<ellipse cx="157" cy="51" rx="13" ry="48" fill="rgb(203,195,131)" fill-opacity="0.26" transform="rotate(286, 157, 51)" />
	<ellipse cx="56" cy="171" rx="35" ry="65" fill="rgb(151,84,52)" fill-opacity="0.25" transform="rotate(339, 56, 171)" />
	<ellipse cx="70" cy="99" rx="8" ry="4" fill="rgb(6,0,0)" fill-opacity="0.71" transform="rotate(297, 70, 99)" />
	<ellipse cx="28" cy="35" rx="6" ry="6" fill="rgb(164,169,103)" fill-opacity="0.53" transform="rotate(213, 28, 35)" />
	<ellipse cx="135" cy="129" rx="64" ry="87" fill="rgb(44,31,34)" fill-opacity="0.45" transform="rotate(291, 135, 129)" />
	<ellipse cx="83" cy="63" rx="4" ry="51" fill="rgb(232,167,132)" fill-opacity="0.10" transform="rotate(78, 83, 63)" />
	<ellipse cx="80" cy="90" rx="17" ry="57" fill="rgb(255,218,82)" fill-opacity="0.30" transform="rotate(353, 80, 90)" />
	<ellipse cx="103" cy="114" rx="13" ry="4" fill="rgb(186,98,0)" fill-opacity="0.33" transform="rotate(117, 103, 114)" />
	<ellipse cx="115" cy="125" rx="3" ry="38" fill="rgb(126,89,40)" fill-opacity="0.55" transform="rotate(66, 115, 125)" />
	<ellipse cx="74" cy="119" rx="10" ry="38" fill="rgb(255,213,98)" fill-opacity="0.56" transform="rotate(53, 74, 119)" />
	<ellipse cx="93" cy="2" rx="36" ry="27" fill="rgb(160,74,79)" fill-opacity="0.17" transform="rotate(303, 93, 2)" />
	<ellipse cx="21" cy="49" rx="47" ry="29" fill="rgb(222,217,111)" fill-opacity="0.14" transform="rotate(348, 21, 49)" />
	<ellipse cx="108" cy="211" rx="14" ry="21" fill="rgb(209,68,6)" fill-opacity="0.25" transform="rotate(78, 108, 211)" />
	<ellipse cx="19" cy="151" rx="51" ry="27" fill="rgb(53,38,47)" fill-opacity="0.64" transform="rotate(169, 19, 151)" />
	<ellipse cx="100" cy="93" rx="18" ry="17" fill="rgb(38,10,0)" fill-opacity="0.31" transform="rotate(218, 100, 93)" />
	<ellipse cx="33" cy="90" rx="21" ry="17" fill="rgb(98,128,81)" fill-opacity="0.57" transform="rotate(119, 33, 90)" />
	<ellipse cx="0" cy="151" rx="20" ry="38" fill="rgb(216,140,77)" fill-opacity="0.29" transform="rotate(46, 0, 151)" />
	<ellipse cx="30" cy="95" rx="5" ry="5" fill="rgb(110,123,170)" fill-opacity="0.27" transform="rotate(180, 30, 95)" />
	<ellipse cx="20" cy="42" rx="58" ry="40" fill="rgb(61,63,48)" fill-opacity="0.35" transform="rotate(293, 20, 42)" />
	<ellipse cx="9" cy="175" rx="26" ry="34" fill="rgb(186,180,118)" fill-opacity="0.07" transform="rotate(256, 9, 175)" />
	<ellipse cx="131" cy="120" rx="3" ry="40" fill="rgb(210,163,65)" fill-opacity="0.35" transform="rotate(81, 131, 120)" />
	<ellipse cx="34" cy="9" rx="7" ry="7" fill="rgb(162,141,64)" fill-opacity="0.15" transform="rotate(175, 34, 9)" />
	<ellipse cx="167" cy="66" rx="13" ry="17" fill="rgb(81,83,80)" fill-opacity="0.34" transform="rotate(196, 167, 66)" />
	<ellipse cx="148" cy="230" rx="4" ry="4" fill="rgb(153,64,12)" fill-opacity="0.12" transform="rotate(13, 148, 230)" />
	<ellipse cx="131" cy="122" rx="4" ry="11" fill="rgb(37,22,35)" fill-opacity="0.59" transform="rotate(256, 131, 122)" />
	<ellipse cx="64" cy="195" rx="22" ry="8" fill="rgb(180,134,62)" fill-opacity="1.00" transform="rotate(21, 64, 195)" />
	<ellipse cx="123" cy="0" rx="12" ry="16" fill="rgb(36,90,51)" fill-opacity="0.33" transform="rotate(81, 123, 0)" />
	<ellipse cx="27" cy="39" rx="28" ry="28" fill="rgb(193,198,131)" fill-opacity="0.14" transform="rotate(89, 27, 39)" />
	<ellipse cx="35" cy="109" rx="27" ry="45" fill="rgb(81,35,34)" fill-opacity="0.40" transform="rotate(221, 35, 109)" />
	<ellipse cx="168" cy="250" rx="11" ry="31" fill="rgb(93,20,139)" fill-opacity="0.08" transform="rotate(256, 168, 250)" />
	<ellipse cx="0" cy="0" rx="4" ry="31" fill="rgb(64,100,73)" fill-opacity="0.59" transform="rotate(84, 0, 0)" />
	<ellipse cx="145" cy="123" rx="1" ry="5" fill="rgb(151,88,60)" fill-opacity="0.45" transform="rotate(354, 145, 123)" />
	<ellipse cx="125" cy="242" rx="49" ry="78" fill="rgb(28,13,49)" fill-opacity="0.44" transform="rotate(13, 125, 242)" />
</svg>