<svg width="168" height="250" xmlns="http://www.w3.org/2000/svg">
	<rect x="0" y="0" width="168" height="250" fill="black" />
	<polygon points="102,211 32,133 119,129" fill="rgb(63,173,52)" fill-opacity="0.56" />
	<polygon points="0,48 135,57 168,250" fill="rgb(68,77,108)" fill-opacity="0.20" />
	<polygon points="49,60 130,200 162,18" fill="rgb(83,0,0)" fill-opacity="0.28" />
	<polygon points="23,22 20,126 119,115" fill="rgb(144,145,83)" fill-opacity="0.74" />
	<polygon points="90,137 102,9 168,0" fill="rgb(143,153,145)" fill-opacity="0.43" />
	<polygon points="0,206 19,49 67,80" fill="rgb(83,44,0)" fill-opacity="0.45" />
	<polygon points="128,162 125,208 122,117" fill="rgb(63,77,145)" fill-opacity="0.92" />
	<polygon points="163,175 168,19 6,156" fill="rgb(175,140,51)" fill-opacity="0.83" />
	<polygon points="17,69 16,115 112,130" fill="rgb(228,119,189)" fill-opacity="0.44" />
	<polygon points="0,237 0,191 112,231" fill="rgb(73,242,40)" fill-opacity="0.04" />
	<polygon points="108,212 153,152 9,130" fill="rgb(255,146,147)" fill-opacity="1.00" />
	<polygon points="95,198 81,118 38,220" fill="rgb(126,80,19)" fill-opacity="0.89" />
	<polygon points="44,110 144,45 47,222" fill="rgb(81,88,14)" fill-opacity="1.00" />
	<polygon points="168,28 145,112 168,147" fill="rgb(185,170,206)" fill-opacity="0.55" />
	<polygon points="168,71 13,237 146,128" fill="rgb(65,44,156)" fill-opacity="0.12" />
	<polygon points="168,220 56,167 77,33" fill="rgb(106,97,32)" fill-opacity="0.54" />
	<polygon points="168,150 168,177 78,133" fill="rgb(176,178,112)" fill-opacity="0.41" />
	<polygon points="168,233 145,250 115,39" fill="rgb(37,14,45)" fill-opacity="0.68" />
	<polygon points="147,75 64,201 168,128" fill="rgb(255,169,44)" fill-opacity="0.61" />
	<polygon points="143,192 41,222 80,112" fill="rgb(200,176,68)" fill-opacity="0.44" />
	<polygon points="157,116 168,3 18,193" fill="rgb(198,165,145)" fill-opacity="0.58" />
	<polygon points="68,78 70,234 61,164" fill="rgb(48,53,104)" fill-opacity="0.20" />
	<polygon points="147,197 100,206 155,119" fill="rgb(16,155,24)" fill-opacity="0.33" />
	<polygon points="36,163 158,125 65,107" fill="rgb(27,0,93)" fill-opacity="0.73" />
	<polygon points="140,207 168,148 71,35" fill="rgb(68,0,127)" fill-opacity="0.55" />
	<polygon points="65,104 150,75 58,50" fill="rgb(90,14,33)" fill-opacity="0.35" />
	<polygon points="151,81 0,24 43,165" fill="rgb(108,218,130)" fill-opacity="0.58" />
	<polygon points="77,220 91,38 0,0" fill="rgb(109,140,68)" fill-opacity="0.59" />
	<polygon points="69,14 8,13 138,200" fill="rgb(138,170,100)" fill-opacity="0.67" />
	<polygon points="131,208 155,5 28,229" fill="rgb(190,137,81)" fill-opacity="0.15" />
	<polygon points="31,97 123,120 58,71" fill="rgb(188,174,199)" fill-opacity="0.42" />
	<polygon points="146,76 168,63 168,197" fill="rgb(173,151,154)" fill-opacity="0.42" />
	<polygon points="0,171 120,216 0,193" fill="rgb(47,37,18)" fill-opacity="0.78" />
	<polygon points="147,3 0,250 0,157" fill="rgb(117,62,170)" fill-opacity="0.24" />
	<polygon points="10,159 3,102 157,121" fill="rgb(226,83,78)" fill-opacity="0.46" />
	<polygon points="102,54 168,192 109,51" fill="rgb(147,0,59)" fill-opacity="0.45" />
	<polygon points="0,6 142,149 0,175" fill="rgb(212,209,149)" fill-opacity="0.43" />
	<polygon points="153,27 26,179 146,9" fill="rgb(198,119,104)" fill-opacity="0.34" />
	<polygon points="92,73 67,194 168,68" fill="rgb(10,99,114)" fill-opacity="0.55" />
	<polygon points="31,95 49,195 109,138" fill="rgb(255,255,214)" fill-opacity="1.00" />
	<polygon points="42,121 168,147 36,188" fill="rgb(97,46,102)" fill-opacity="0.65" />
	<polygon points="0,31 35,94 142,54" fill="rgb(176,161,108)" fill-opacity="0.14" />
	<polygon points="121,250 45,230 97,141" fill="rgb(255,122,182)" fill-opacity="0.04" />
	<polygon points="47,127 168,84 108,41" fill="rgb(100,8,0)" fill-opacity="0.38" />
	<polygon points="92,134 67,216 140,169" fill="rgb(122,134,23)" fill-opacity="0.51" />
	<polygon points="159,86 35,189 0,172" fill="rgb(87,59,64)" fill-opacity="0.60" />
	<polygon points="55,103 168,214 168,158" fill="rgb(125,49,110)" fill-opacity="0.58" />
	<polygon points="162,52 132,111 56,232" fill="rgb(183,96,167)" fill-opacity="0.15" />
	<polygon points="10,152 131,215 71,30" fill="rgb(255,179,81)" fill-opacity="0.99" />
	<polygon points="131,204 143,115 68,167" fill="rgb(141,166,121)" fill-opacity="0.58" />
	<polygon points="137,54 66,136 18,181" fill="rgb(73,24,104)" fill-opacity="0.67" />
	<polygon points="56,128 155,223 135,209" fill="rgb(17,0,21)" fill-opacity="0.45" />
	<polygon points="72,73 168,54 168,112" fill="rgb(79,166,72)" fill-opacity="0.28" />
	<polygon points="86,146 70,11 152,150" fill="rgb(211,121,43)" fill-opacity="0.47" />
	<polygon points="83,94 168,136 57,248" fill="rgb(180,36,17)" fill-opacity="0.21" />
	<polygon points="96,180 112,29 168,2" fill="rgb(146,132,85)" fill-opacity="0.49" />
	<polygon points="46,73 27,177 101,192" fill="rgb(47,34,119)" fill-opacity="0.64" />
	<polygon points="19,173 88,105 33,133" fill="rgb(46,0,123)" fill-opacity="0.58" />
	<polygon points="123,207 41,197 80,27" fill="rgb(233,174,68)" fill-opacity="0.51" />
	<polygon points="86,175 105,19 168,44" fill="rgb(155,186,96)" fill-opacity="0.46" />
	<polygon points="7,142 158,0 0,0" fill="rgb(180,157,95)" fill-opacity="0.34" />
	<polygon points="168,164 44,217 168,62" fill="rgb(94,98,46)" fill-opacity="0.51" />
	<polygon points="58,70 18,168 121,189" fill="rgb(0,131,27)" fill-opacity="0.24" />
	<polygon points="10,71 54,62 129,168" fill="rgb(22,43,156)" fill-opacity="0.79" />
	<polygon points="74,76 139,65 151,219" fill="rgb(0,46,39)" fill-opacity="0.29" />
	<polygon points="155,209 76,141 17,100" fill="rgb(126,180,186)" fill-opacity="0.04" />
	<polygon points="167,10 131,17 80,162" fill="rgb(148,181,133)" fill-opacity="0.15" />
	<polygon points="45,214 144,182 58,36" fill="rgb(158,112,47)" fill-opacity="0.47" />
	<polygon points="18,69 0,142 108,44" fill="rgb(108,85,0)" fill-opacity="0.23" />
	<polygon points="130,190 20,115 49,87" fill="rgb(255,197,64)" fill-opacity="0.85" />
	<polygon points="17,95 119,200 0,0" fill="rgb(115,140,96)" fill-opacity="0.74" />
	<polygon points="125,186 91,81 36,127" fill="rgb(57,21,14)" fill-opacity="0.95" />
	<polygon points="53,140 91,199 132,196" fill="rgb(0,115,170)" fill-opacity="0.56" />
	<polygon points="168,66 153,41 107,32" fill="rgb(91,218,163)" fill-opacity="0.09" />
	<polygon points="168,101 49,234 16,172" fill="rgb(205,118,32)" fill-opacity="0.31" />
	<polygon points="145,250 144,111 8,64" fill="rgb(13,8,28)" fill-opacity="0.88" />
	<polygon points="26,229 64,42 0,71" fill="rgb(62,33,29)" fill-opacity="0.35" />
	<polygon points="163,213 89,106 168,165" fill="rgb(0,75,39)" fill-opacity="0.35" />
	<polygon points="123,15 168,226 106,218" fill="rgb(39,24,49)" fill-opacity="0.29" />
	<polygon points="55,42 76,66 92,119" fill="rgb(127,74,91)" fill-opacity="0.07" />
	<polygon points="129,235 83,94 30,164" fill="rgb(115,76,43)" fill-opacity="0.20" />
	<polygon points="84,91 91,166 53,125" fill="rgb(255,227,129)" fill-opacity="0.87" />
	<polygon points="168,127 108,198 95,250" fill="rgb(136,2,31)" fill-opacity="0.06" />
	<polygon points="38,171 132,225 104,118" fill="rgb(43,16,23)" fill-opacity="0.72" />
	<polygon points="168,48 59,154 166,213" fill="rgb(43,21,40)" fill-opacity="0.27" />
	<polygon points="62,114 0,207 85,69" fill="rgb(73,0,60)" fill-opacity="0.04" />
	<polygon points="133,46 150,151 156,250" fill="rgb(58,48,48)" fill-opacity="0.45" />
	<polygon points="142,115 101,22 84,145" fill="rgb(61,46,29)" fill-opacity="1.00" />
	<polygon points="141,161 118,162 76,69" fill="rgb(108,39,0)" fill-opacity="0.23" />
	<polygon points="45,177 55,159 99,110" fill="rgb(68,141,200)" fill-opacity="0.35" />
	<polygon points="120,189 131,219 83,91" fill="rgb(49,54,33)" fill-opacity="0.43" />
	<polygon points="23,178 75,132 81,187" fill="rgb(86,33,56)" fill-opacity="0.86" />
	<polygon points="87,0 156,38 0,5" fill="rgb(149,138,96)" fill-opacity="0.48" />
	<polygon points="20,130 0,100 34,14" fill="rgb(34,152,190)" fill-opacity="0.04" />
	<polygon points="73,205 0,2 75,148" fill="rgb(183,203,118)" fill-opacity="0.15" />
	<polygon points="0,42 68,197 106,107" fill="rgb(106,98,53)" fill-opacity="0.45" />
	<polygon points="118,78 142,26 147,184" fill="rgb(153,68,139)" fill-opacity="0.08" />
	<polygon points="104,219 73,223 50,153" fill="rgb(195,120,67)" fill-opacity="0.33" />
	<polygon points="86,75 45,139 125,127" fill="rgb(208,117,44)" fill-opacity="0.23" />
	<polygon points="46,232 65,102 105,104" fill="rgb(255,230,106)" fill-opacity="0.50" />
	<polygon points="36,176 43,114 90,196" fill="rgb(0,97,14)" fill-opacity="0.23" />
	<polygon points="168,206 0,75 0,175" fill="rgb(20,0,18)" fill-opacity="0.31" />
	<polygon points="71,76 81,125 90,168" fill="rgb(104,142,187)" fill-opacity="0.25" />
	<polygon points="122,74 119,44 32,133" fill="rgb(0,0,120)" fill-opacity="0.15" />
	<polygon points="113,6 95,0 38,57" fill="rgb(120,91,73)" fill-opacity="0.45" />
	<polygon points="93,249 42,135 76,168" fill="rgb(152,116,120)" fill-opacity="0.11" />
	<polygon points="47,174 87,196 59,148" fill="rgb(0,0,62)" fill-opacity="0.54" />
	<polygon points="103,113 45,102 100,96" fill="rgb(132,23,85)" fill-opacity="0.12" />
	<polygon points="124,123 0,39 0,8" fill="rgb(152,122,62)" fill-opacity="0.18" />
	<polygon points="154,55 82,227 133,92" fill="rgb(30,69,162)" fill-opacity="0.04" />
	<polygon points="139,17 99,165 121,250" fill="rgb(73,110,130)" fill-opacity="0.06" />
	<polygon points="121,83 10,91 135,82" fill="rgb(138,32,165)" fill-opacity="0.04" />
	<polygon points="94,142 67,190 36,138" fill="rgb(45,24,32)" fill-opacity="0.68" />
	<polygon points="94,250 0,250 41,177" fill="rgb(74,27,83)" fill-opacity="0.32" />
	<polygon points="0,0 168,0 168,44" fill="rgb(116,172,89)" fill-opacity="0.39" />
	<polygon points="55,127 53,245 68,86" fill="rgb(94,138,2)" fill-opacity="0.04" />
	<polygon points="68,94 74,109 114,207" fill="rgb(129,86,75)" fill-opacity="0.15" />
	<polygon points="75,222 66,100 70,136" fill="rgb(255,78,108)" fill-opacity="0.04" />
</svg>