<svg width="168" height="250" xmlns="http://www.w3.org/2000/svg">
	<rect x="0" y="0" width="168" height="250" fill="black" />
	<ellipse cx="72" cy="77" rx="18" ry="18" fill="rgb(252,161,0)" fill-opacity="0.85" transform="rotate(60, 72, 77)" />
	<ellipse cx="54" cy="118" rx="49" ry="60" fill="rgb(178,117,84)" fill-opacity="0.25" transform="rotate(61, 54, 118)" />
	<ellipse cx="58" cy="132" rx="14" ry="7" fill="rgb(224,154,0)" fill-opacity="0.49" transform="rotate(309, 58, 132)" />
	<ellipse cx="39" cy="88" rx="19" ry="11" fill="rgb(225,245,116)" fill-opacity="0.95" transform="rotate(311, 39, 88)" />
	<ellipse cx="26" cy="225" rx="24" ry="54" fill="rgb(244,189,63)" fill-opacity="0.71" transform="rotate(226, 26, 225)" />
	<ellipse cx="38" cy="24" rx="9" ry="9" fill="rgb(225,234,223)" fill-opacity="0.87" transform="rotate(221, 38, 24)" />
	<ellipse cx="60" cy="126" rx="46" ry="66" fill="rgb(242,132,17)" fill-opacity="0.27" transform="rotate(119, 60, 126)" />
	<ellipse cx="30" cy="23" rx="27" ry="35" fill="rgb(52,161,112)" fill-opacity="0.73" transform="rotate(89, 30, 23)" />
	<ellipse cx="79" cy="130" rx="21" ry="20" fill="rgb(255,223,96)" fill-opacity="0.50" transform="rotate(69, 79, 130)" />
	<ellipse cx="60" cy="224" rx="40" ry="18" fill="rgb(65,25,1)" fill-opacity="0.58" transform="rotate(43, 60, 224)" />
	<ellipse cx="168" cy="190" rx="28" ry="10" fill="rgb(160,95,106)" fill-opacity="0.36" transform="rotate(84, 168, 190)" />
	<ellipse cx="18" cy="211" rx="52" ry="67" fill="rgb(245,173,157)" fill-opacity="0.21" transform="rotate(198, 18, 211)" />
	<ellipse cx="45" cy="49" rx="10" ry="10" fill="rgb(213,253,198)" fill-opacity="0.96" transform="rotate(260, 45, 49)" />
	<ellipse cx="39" cy="77" rx="26" ry="10" fill="rgb(63,159,130)" fill-opacity="1.00" transform="rotate(143, 39, 77)" />
	<ellipse cx="73" cy="65" rx="20" ry="29" fill="rgb(130,108,43)" fill-opacity="0.76" transform="rotate(203, 73, 65)" />
	<ellipse cx="76" cy="107" rx="4" ry="25" fill="rgb(255,216,161)" fill-opacity="0.35" transform="rotate(186, 76, 107)" />
	<ellipse cx="157" cy="153" rx="12" ry="26" fill="rgb(203,115,186)" fill-opacity="0.26" transform="rotate(336, 157, 153)" />
	<ellipse cx="72" cy="125" rx="15" ry="7" fill="rgb(255,246,147)" fill-opacity="0.29" transform="rotate(5, 72, 125)" />
	<ellipse cx="29" cy="91" rx="8" ry="24" fill="rgb(254,189,146)" fill-opacity="0.57" transform="rotate(25, 29, 91)" />
	<ellipse cx="79" cy="192" rx="2" ry="5" fill="rgb(230,135,50)" fill-opacity="0.27" transform="rotate(154, 79, 192)" />
	<ellipse cx="80" cy="107" rx="13" ry="37" fill="rgb(250,232,164)" fill-opacity="0.41" transform="rotate(335, 80, 107)" />
	<ellipse cx="7" cy="100" rx="7" ry="40" fill="rgb(194,218,64)" fill-opacity="0.41" transform="rotate(115, 7, 100)" />
	<ellipse cx="159" cy="15" rx="26" ry="13" fill="rgb(145,164,146)" fill-opacity="0.45" transform="rotate(178, 159, 15)" />
	<ellipse cx="83" cy="113" rx="30" ry="18" fill="rgb(251,203,81)" fill-opacity="0.48" transform="rotate(69, 83, 113)" />
	<ellipse cx="43" cy="40" rx="37" ry="52" fill="rgb(219,158,105)" fill-opacity="0.25" transform="rotate(38, 43, 40)" />
	<ellipse cx="81" cy="150" rx="10" ry="10" fill="rgb(250,172,13)" fill-opacity="0.22" transform="rotate(40, 81, 150)" />
	<ellipse cx="16" cy="56" rx="15" ry="52" fill="rgb(221,244,202)" fill-opacity="0.67" transform="rotate(59, 16, 56)" />
	<ellipse cx="101" cy="223" rx="42" ry="42" fill="rgb(5,8,107)" fill-opacity="0.14" transform="rotate(69, 101, 223)" />
	<ellipse cx="38" cy="208" rx="10" ry="1" fill="rgb(0,0,32)" fill-opacity="0.81" transform="rotate(115, 38, 208)" />
	<ellipse cx="140" cy="62" rx="2" ry="2" fill="rgb(232,143,105)" fill-opacity="0.85" transform="rotate(78, 140, 62)" />
	<ellipse cx="68" cy="88" rx="14" ry="11" fill="rgb(13,0,14)" fill-opacity="0.97" transform="rotate(124, 68, 88)" />
	<ellipse cx="128" cy="48" rx="22" ry="15" fill="rgb(102,169,99)" fill-opacity="0.28" transform="rotate(90, 128, 48)" />
	<ellipse cx="23" cy="188" rx="10" ry="22" fill="rgb(245,130,22)" fill-opacity="1.00" transform="rotate(75, 23, 188)" />
	<ellipse cx="1" cy="97" rx="35" ry="8" fill="rgb(41,172,255)" fill-opacity="0.30" transform="rotate(194, 1, 97)" />
	<ellipse cx="35" cy="204" rx="4" ry="13" fill="rgb(43,27,40)" fill-opacity="0.75" transform="rotate(256, 35, 204)" />
	<ellipse cx="4" cy="211" rx="27" ry="65" fill="rgb(32,18,39)" fill-opacity="1.00" transform="rotate(146, 4, 211)" />
	<ellipse cx="57" cy="84" rx="42" ry="20" fill="rgb(159,108,63)" fill-opacity="0.39" transform="rotate(157, 57, 84)" />
	<ellipse cx="167" cy="222" rx="13" ry="13" fill="rgb(95,53,64)" fill-opacity="0.31" transform="rotate(51, 167, 222)" />
	<ellipse cx="166" cy="138" rx="17" ry="31" fill="rgb(248,111,65)" fill-opacity="0.61" transform="rotate(338, 166, 138)" />
	<ellipse cx="53" cy="208" rx="5" ry="5" fill="rgb(186,141,65)" fill-opacity="0.57" transform="rotate(183, 53, 208)" />
	<ellipse cx="117" cy="2" rx="22" ry="48" fill="rgb(52,115,23)" fill-opacity="0.36" transform="rotate(167, 117, 2)" />
	<ellipse cx="79" cy="210" rx="15" ry="17" fill="rgb(173,99,35)" fill-opacity="0.85" transform="rotate(72, 79, 210)" />
	<ellipse cx="17" cy="12" rx="7" ry="7" fill="rgb(169,173,37)" fill-opacity="0.44" transform="rotate(330, 17, 12)" />
	<ellipse cx="8" cy="8" rx="8" ry="8" fill="rgb(210,138,31)" fill-opacity="0.38" transform="rotate(176, 8, 8)" />
	<ellipse cx="165" cy="97" rx="19" ry="7" fill="rgb(134,120,83)" fill-opacity="0.55" transform="rotate(168, 165, 97)" />
	<ellipse cx="33" cy="62" rx="9" ry="14" fill="rgb(47,80,78)" fill-opacity="0.75" transform="rotate(315, 33, 62)" />
	<ellipse cx="131" cy="33" rx="10" ry="34" fill="rgb(255,165,96)" fill-opacity="0.65" transform="rotate(139, 131, 33)" />
	<ellipse cx="166" cy="246" rx="17" ry="62" fill="rgb(126,40,113)" fill-opacity="0.16" transform="rotate(341, 166, 246)" />
	<ellipse cx="50" cy="73" rx="14" ry="15" fill="rgb(21,14,53)" fill-opacity="0.85" transform="rotate(226, 50, 73)" />
	<ellipse cx="99" cy="152" rx="12" ry="12" fill="rgb(0,2,0)" fill-opacity="0.85" transform="rotate(0, 99, 152)" />
	<ellipse cx="25" cy="124" rx="34" ry="53" fill="rgb(229,172,133)" fill-opacity="0.19" transform="rotate(233, 25, 124)" />
	<ellipse cx="2" cy="7" rx="26" ry="44" fill="rgb(149,182,119)" fill-opacity="0.43" transform="rotate(333, 2, 7)" />
	<ellipse cx="116" cy="137" rx="13" ry="22" fill="rgb(245,171,41)" fill-opacity="0.47" transform="rotate(11, 116, 137)" />
	<ellipse cx="96" cy="157" rx="20" ry="56" fill="rgb(0,0,18)" fill-opacity="0.56" transform="rotate(70, 96, 157)" />
	<ellipse cx="4" cy="188" rx="21" ry="21" fill="rgb(138,137,146)" fill-opacity="0.13" transform="rotate(14, 4, 188)" />
	<ellipse cx="168" cy="250" rx="2" ry="1" fill="rgb(121,122,126)" fill-opacity="0.47" transform="rotate(318, 168, 250)" />
	<ellipse cx="111" cy="207" rx="17" ry="17" fill="rgb(255,104,16)" fill-opacity="0.18" transform="rotate(128, 111, 207)" />
	<ellipse cx="28" cy="181" rx="18" ry="64" fill="rgb(25,17,41)" fill-opacity="0.70" transform="rotate(201, 28, 181)" />
	<ellipse cx="161" cy="210" rx="10" ry="10" fill="rgb(46,11,5)" fill-opacity="0.45" transform="rotate(163, 161, 210)" />
	<ellipse cx="70" cy="250" rx="37" ry="33" fill="rgb(24,9,31)" fill-opacity="0.51" transform="rotate(143, 70, 250)" />
	<ellipse cx="45" cy="90" rx="23" ry="48" fill="rgb(20,1,13)" fill-opacity="0.49" transform="rotate(261, 45, 90)" />
	<ellipse cx="39" cy="250" rx="1" ry="1" fill="rgb(181,226,254)" fill-opacity="0.31" transform="rotate(43, 39, 250)" />
	<ellipse cx="113" cy="201" rx="4" ry="4" fill="rgb(240,170,18)" fill-opacity="0.42" transform="rotate(20, 113, 201)" />
	<ellipse cx="117" cy="37" rx="7" ry="24" fill="rgb(130,154,83)" fill-opacity="0.61" transform="rotate(326, 117, 37)" />
	<ellipse cx="73" cy="60" rx="12" ry="31" fill="rgb(218,181,87)" fill-opacity="0.61" transform="rotate(356, 73, 60)" />
	<ellipse cx="76" cy="160" rx="26" ry="26" fill="rgb(2,0,55)" fill-opacity="0.25" transform="rotate(174, 76, 160)" />
	<ellipse cx="130" cy="21" rx="7" ry="31" fill="rgb(167,133,78)" fill-opacity="0.62" transform="rotate(259, 130, 21)" />
	<ellipse cx="102" cy="134" rx="27" ry="4" fill="rgb(48,23,13)" fill-opacity="0.50" transform="rotate(344, 102, 134)" />
	<ellipse cx="165" cy="247" rx="8" ry="11" fill="rgb(68,48,171)" fill-opacity="0.09" transform="rotate(185, 165, 247)" />
	<ellipse cx="104" cy="58" rx="31" ry="44" fill="rgb(200,126,146)" fill-opacity="0.18" transform="rotate(101, 104, 58)" />
	<ellipse cx="1" cy="119" rx="16" ry="16" fill="rgb(78,56,57)" fill-opacity="0.36" transform="rotate(115, 1, 119)" />
	<ellipse cx="21" cy="82" rx="21" ry="50" fill="rgb(77,73,52)" fill-opacity="0.93" transform="rotate(137, 21, 82)" />
	<ellipse cx="112" cy="15" rx="8" ry="44" fill="rgb(101,89,49)" fill-opacity="0.83" transform="rotate(266, 112, 15)" />
	<ellipse cx="145" cy="44" rx="35" ry="7" fill="rgb(235,146,83)" fill-opacity="0.58" transform="rotate(264, 145, 44)" />
	<ellipse cx="98" cy="18" rx="8" ry="16" fill="rgb(172,160,107)" fill-opacity="0.39" transform="rotate(258, 98, 18)" />
	<ellipse cx="113" cy="205" rx="12" ry="8" fill="rgb(154,71,8)" fill-opacity="0.63" transform="rotate(182, 113, 205)" />
	<ellipse cx="60" cy="144" rx="14" ry="14" fill="rgb(69,48,38)" fill-opacity="0.61" transform="rotate(95, 60, 144)" />
	<ellipse cx="56" cy="46" rx="33" ry="47" fill="rgb(255,189,45)" fill-opacity="0.25" transform="rotate(315, 56, 46)" />
	<ellipse cx="1" cy="1" rx="7" ry="7" fill="rgb(59,165,165)" fill-opacity="0.36" transform="rotate(109, 1, 1)" />
	<ellipse cx="73" cy="0" rx="24" ry="21" fill="rgb(157,210,133)" fill-opacity="0.45" transform="rotate(105, 73, 0)" />
	<ellipse cx="63" cy="247" rx="5" ry="5" fill="rgb(92,35,75)" fill-opacity="0.31" transform="rotate(113, 63, 247)" />
	<ellipse cx="4" cy="181" rx="50" ry="18" fill="rgb(116,74,62)" fill-opacity="0.24" transform="rotate(353, 4, 181)" />
	<ellipse cx="154" cy="112" rx="25" ry="12" fill="rgb(217,186,41)" fill-opacity="0.77" transform="rotate(205, 154, 112)" />
	<ellipse cx="128" cy="7" rx="34" ry="56" fill="rgb(151,173,100)" fill-opacity="0.53" transform="rotate(311, 128, 7)" />
	<ellipse cx="78" cy="185" rx="11" ry="36" fill="rgb(250,188,86)" fill-opacity="0.11" transform="rotate(359, 78, 185)" />
	<ellipse cx="163" cy="62" rx="29" ry="25" fill="rgb(119,166,144)" fill-opacity="0.35" transform="rotate(120, 163, 62)" />
	<ellipse cx="168" cy="174" rx="9" ry="9" fill="rgb(240,152,55)" fill-opacity="0.41" transform="rotate(151, 168, 174)" />
	<ellipse cx="168" cy="151" rx="19" ry="3" fill="rgb(92,52,96)" fill-opacity="0.84" transform="rotate(80, 168, 151)" />
	<ellipse cx="137" cy="140" rx="42" ry="59" fill="rgb(77,32,47)" fill-opacity="0.27" transform="rotate(179, 137, 140)" />
	<ellipse cx="38" cy="246" rx="23" ry="29" fill="rgb(22,7,29)" fill-opacity="0.51" transform="rotate(103, 38, 246)" />
	<ellipse cx="165" cy="176" rx="4" ry="4" fill="rgb(197,115,70)" fill-opacity="0.53" transform="rotate(351, 165, 176)" />
	<ellipse cx="41" cy="0" rx="39" ry="78" fill="rgb(105,105,67)" fill-opacity="0.52" transform="rotate(196, 41, 0)" />
	<ellipse cx="163" cy="192" rx="28" ry="28" fill="rgb(85,150,237)" fill-opacity="0.11" transform="rotate(284, 163, 192)" />
	<ellipse cx="85" cy="177" rx="41" ry="30" fill="rgb(214,172,133)" fill-opacity="0.05" transform="rotate(87, 85, 177)" />
	<ellipse cx="128" cy="33" rx="6" ry="6" fill="rgb(162,255,223)" fill-opacity="0.07" transform="rotate(353, 128, 33)" />
	<ellipse cx="0" cy="0" rx="1" ry="22" fill="rgb(6,155,98)" fill-opacity="0.49" transform="rotate(22, 0, 0)" />
	<ellipse cx="20" cy="146" rx="11" ry="11" fill="rgb(159,94,49)" fill-opacity="0.50" transform="rotate(136, 20, 146)" />
	<ellipse cx="0" cy="171" rx="6" ry="6" fill="rgb(133,100,74)" fill-opacity="0.34" transform="rotate(252, 0, 171)" />
	<ellipse cx="43" cy="191" rx="2" ry="2" fill="rgb(140,101,52)" fill-opacity="0.76" transform="rotate(259, 43, 191)" />
	<ellipse cx="158" cy="47" rx="16" ry="47" fill="rgb(252,196,156)" fill-opacity="0.18" transform="rotate(97, 158, 47)" />
	<ellipse cx="160" cy="51" rx="32" ry="25" fill="rgb(193,174,108)" fill-opacity="0.48" transform="rotate(241, 160, 51)" />
	<ellipse cx="145" cy="71" rx="52" ry="24" fill="rgb(134,188,112)" fill-opacity="0.20" transform="rotate(272, 145, 71)" />
	<ellipse cx="161" cy="103" rx="23" ry="22" fill="rgb(169,175,116)" fill-opacity="0.36" transform="rotate(144, 161, 103)" />
	<ellipse cx="124" cy="0" rx="37" ry="37" fill="rgb(81,105,81)" fill-opacity="0.27" transform="rotate(285, 124, 0)" />
	<ellipse cx="157" cy="126" rx="44" ry="62" fill="rgb(68,60,56)" fill-opacity="0.48" transform="rotate(154, 157, 126)" />
	<ellipse cx="1" cy="179" rx="1" ry="1" fill="rgb(164,124,85)" fill-opacity="0.35" transform="rotate(317, 1, 179)" />
	<ellipse cx="0" cy="202" rx="3" ry="3" fill="rgb(118,67,57)" fill-opacity="0.61" transform="rotate(171, 0, 202)" />
	<ellipse cx="168" cy="212" rx="6" ry="6" fill="rgb(140,71,39)" fill-opacity="0.45" transform="rotate(139, 168, 212)" />
	<ellipse cx="14" cy="16" rx="18" ry="68" fill="rgb(97,112,75)" fill-opacity="0.22" transform="rotate(353, 14, 16)" />
	<ellipse cx="74" cy="201" rx="13" ry="5" fill="rgb(240,171,58)" fill-opacity="0.89" transform="rotate(256, 74, 201)" />
	<ellipse cx="0" cy="0" rx="1" ry="18" fill="rgb(157,83,73)" fill-opacity="0.42" transform="rotate(24, 0, 0)" />
	<ellipse cx="168" cy="136" rx="6" ry="31" fill="rgb(195,177,109)" fill-opacity="0.20" transform="rotate(329, 168, 136)" />
	<ellipse cx="134" cy="48" rx="19" ry="53" fill="rgb(111,138,88)" fill-opacity="0.29" transform="rotate(185, 134, 48)" />
	<ellipse cx="93" cy="66" rx="3" ry="41" fill="rgb(96,50,21)" fill-opacity="0.31" transform="rotate(187, 93, 66)" />
	<ellipse cx="104" cy="150" rx="27" ry="10" fill="rgb(132,118,9)" fill-opacity="0.13" transform="rotate(346, 104, 150)" />
	<ellipse cx="63" cy="70" rx="19" ry="17" fill="rgb(8,0,21)" fill-opacity="0.14" transform="rotate(63, 63, 70)" />
	<ellipse cx="123" cy="193" rx="54" ry="64" fill="rgb(33,24,54)" fill-opacity="0.31" transform="rotate(5, 123, 193)" />
	<ellipse cx="11" cy="35" rx="16" ry="28" fill="rgb(190,185,117)" fill-opacity="0.38" transform="rotate(299, 11, 35)" />
</svg>