<svg width="168" height="250" xmlns="http://www.w3.org/2000/svg">
	<rect x="0" y="0" width="168" height="250" fill="black" />
	<ellipse cx="86" cy="91" rx="28" ry="26" fill="rgb(71,177,109)" fill-opacity="0.65" transform="rotate(36, 86, 91)" />
	<ellipse cx="45" cy="109" rx="16" ry="27" fill="rgb(67,224,138)" fill-opacity="0.32" transform="rotate(11, 45, 109)" />
	<ellipse cx="77" cy="151" rx="12" ry="4" fill="rgb(141,160,46)" fill-opacity="0.16" transform="rotate(9, 77, 151)" />
	<ellipse cx="30" cy="79" rx="21" ry="6" fill="rgb(173,230,0)" fill-opacity="0.39" transform="rotate(1, 30, 79)" />
	<ellipse cx="25" cy="224" rx="20" ry="50" fill="rgb(237,191,37)" fill-opacity="0.85" transform="rotate(224, 25, 224)" />
	<ellipse cx="34" cy="2" rx="1" ry="43" fill="rgb(223,153,119)" fill-opacity="0.88" transform="rotate(225, 34, 2)" />
	<ellipse cx="32" cy="98" rx="27" ry="47" fill="rgb(167,70,54)" fill-opacity="0.30" transform="rotate(111, 32, 98)" />
	<ellipse cx="40" cy="33" rx="25" ry="33" fill="rgb(1,217,156)" fill-opacity="0.89" transform="rotate(141, 40, 33)" />
	<ellipse cx="88" cy="139" rx="37" ry="36" fill="rgb(94,172,201)" fill-opacity="0.23" transform="rotate(133, 88, 139)" />
	<ellipse cx="73" cy="237" rx="32" ry="1" fill="rgb(144,47,31)" fill-opacity="0.40" transform="rotate(47, 73, 237)" />
	<ellipse cx="134" cy="144" rx="42" ry="18" fill="rgb(248,123,53)" fill-opacity="0.86" transform="rotate(44, 134, 144)" />
	<ellipse cx="28" cy="221" rx="35" ry="50" fill="rgb(223,219,87)" fill-opacity="0.24" transform="rotate(150, 28, 221)" />
	<ellipse cx="34" cy="38" rx="3" ry="5" fill="rgb(86,143,18)" fill-opacity="0.91" transform="rotate(222, 34, 38)" />
	<ellipse cx="58" cy="96" rx="30" ry="14" fill="rgb(101,15,41)" fill-opacity="0.65" transform="rotate(175, 58, 96)" />
	<ellipse cx="72" cy="64" rx="19" ry="28" fill="rgb(6,138,147)" fill-opacity="0.71" transform="rotate(133, 72, 64)" />
	<ellipse cx="93" cy="124" rx="1" ry="44" fill="rgb(19,179,120)" fill-opacity="0.15" transform="rotate(182, 93, 124)" />
	<ellipse cx="126" cy="122" rx="16" ry="54" fill="rgb(11,6,242)" fill-opacity="0.42" transform="rotate(358, 126, 122)" />
	<ellipse cx="104" cy="157" rx="39" ry="31" fill="rgb(128,201,164)" fill-opacity="0.13" transform="rotate(59, 104, 157)" />
	<ellipse cx="12" cy="74" rx="9" ry="33" fill="rgb(242,24,175)" fill-opacity="0.47" transform="rotate(1, 12, 74)" />
	<ellipse cx="65" cy="178" rx="10" ry="42" fill="rgb(227,122,191)" fill-opacity="0.45" transform="rotate(280, 65, 178)" />
	<ellipse cx="76" cy="103" rx="13" ry="37" fill="rgb(193,224,249)" fill-opacity="0.35" transform="rotate(305, 76, 103)" />
	<ellipse cx="3" cy="98" rx="1" ry="34" fill="rgb(26,146,22)" fill-opacity="0.39" transform="rotate(99, 3, 98)" />
	<ellipse cx="144" cy="0" rx="20" ry="4" fill="rgb(66,138,27)" fill-opacity="0.31" transform="rotate(120, 144, 0)" />
	<ellipse cx="77" cy="107" rx="41" ry="29" fill="rgb(193,212,98)" fill-opacity="0.72" transform="rotate(111, 77, 107)" />
	<ellipse cx="42" cy="39" rx="18" ry="33" fill="rgb(80,242,176)" fill-opacity="0.09" transform="rotate(30, 42, 39)" />
	<ellipse cx="108" cy="177" rx="42" ry="23" fill="rgb(212,125,84)" fill-opacity="0.55" transform="rotate(4, 108, 177)" />
	<ellipse cx="13" cy="53" rx="4" ry="43" fill="rgb(160,208,79)" fill-opacity="0.38" transform="rotate(45, 13, 53)" />
	<ellipse cx="110" cy="241" rx="1" ry="13" fill="rgb(65,82,51)" fill-opacity="0.41" transform="rotate(37, 110, 241)" />
	<ellipse cx="45" cy="215" rx="30" ry="10" fill="rgb(26,108,103)" fill-opacity="0.92" transform="rotate(83, 45, 215)" />
	<ellipse cx="156" cy="78" rx="32" ry="17" fill="rgb(116,73,246)" fill-opacity="0.86" transform="rotate(32, 156, 78)" />
	<ellipse cx="24" cy="44" rx="32" ry="15" fill="rgb(167,2,12)" fill-opacity="0.45" transform="rotate(192, 24, 44)" />
	<ellipse cx="124" cy="44" rx="36" ry="29" fill="rgb(12,166,199)" fill-opacity="0.40" transform="rotate(116, 124, 44)" />
	<ellipse cx="36" cy="201" rx="16" ry="29" fill="rgb(198,193,130)" fill-opacity="0.63" transform="rotate(1, 36, 201)" />
	<ellipse cx="0" cy="106" rx="36" ry="9" fill="rgb(88,28,245)" fill-opacity="0.33" transform="rotate(90, 0, 106)" />
	<ellipse cx="59" cy="228" rx="14" ry="30" fill="rgb(95,170,24)" fill-opacity="0.73" transform="rotate(288, 59, 228)" />
	<ellipse cx="0" cy="223" rx="17" ry="55" fill="rgb(40,123,28)" fill-opacity="0.66" transform="rotate(132, 0, 223)" />
	<ellipse cx="55" cy="82" rx="41" ry="19" fill="rgb(139,151,95)" fill-opacity="0.65" transform="rotate(51, 55, 82)" />
	<ellipse cx="156" cy="192" rx="12" ry="7" fill="rgb(75,73,197)" fill-opacity="0.89" transform="rotate(83, 156, 192)" />
	<ellipse cx="167" cy="103" rx="34" ry="48" fill="rgb(236,164,118)" fill-opacity="0.87" transform="rotate(314, 167, 103)" />
	<ellipse cx="70" cy="225" rx="21" ry="46" fill="rgb(247,11,187)" fill-opacity="0.78" transform="rotate(241, 70, 225)" />
	<ellipse cx="121" cy="6" rx="6" ry="34" fill="rgb(82,128,40)" fill-opacity="0.42" transform="rotate(207, 121, 6)" />
	<ellipse cx="46" cy="177" rx="29" ry="31" fill="rgb(173,1,193)" fill-opacity="0.75" transform="rotate(56, 46, 177)" />
	<ellipse cx="33" cy="15" rx="28" ry="4" fill="rgb(205,136,153)" fill-opacity="0.73" transform="rotate(32, 33, 15)" />
	<ellipse cx="4" cy="24" rx="29" ry="16" fill="rgb(133,170,197)" fill-opacity="0.22" transform="rotate(134, 4, 24)" />
	<ellipse cx="136" cy="68" rx="15" ry="3" fill="rgb(72,161,92)" fill-opacity="0.53" transform="rotate(80, 136, 68)" />
	<ellipse cx="23" cy="52" rx="22" ry="27" fill="rgb(86,55,225)" fill-opacity="0.37" transform="rotate(341, 23, 52)" />
	<ellipse cx="117" cy="19" rx="3" ry="53" fill="rgb(247,190,107)" fill-opacity="0.56" transform="rotate(177, 117, 19)" />
	<ellipse cx="163" cy="238" rx="16" ry="61" fill="rgb(208,41,99)" fill-opacity="0.42" transform="rotate(331, 163, 238)" />
	<ellipse cx="26" cy="49" rx="32" ry="33" fill="rgb(0,26,136)" fill-opacity="0.15" transform="rotate(206, 26, 49)" />
	<ellipse cx="107" cy="160" rx="37" ry="18" fill="rgb(98,12,225)" fill-opacity="0.84" transform="rotate(278, 107, 160)" />
	<ellipse cx="2" cy="101" rx="21" ry="40" fill="rgb(203,186,200)" fill-opacity="0.26" transform="rotate(259, 2, 101)" />
	<ellipse cx="14" cy="44" rx="36" ry="54" fill="rgb(240,139,130)" fill-opacity="0.66" transform="rotate(353, 14, 44)" />
	<ellipse cx="83" cy="104" rx="25" ry="34" fill="rgb(205,20,124)" fill-opacity="0.50" transform="rotate(31, 83, 104)" />
	<ellipse cx="117" cy="178" rx="17" ry="53" fill="rgb(67,31,119)" fill-opacity="0.71" transform="rotate(130, 117, 178)" />
	<ellipse cx="7" cy="209" rx="32" ry="4" fill="rgb(102,161,106)" fill-opacity="0.29" transform="rotate(20, 7, 209)" />
	<ellipse cx="152" cy="244" rx="40" ry="33" fill="rgb(178,237,149)" fill-opacity="0.79" transform="rotate(354, 152, 244)" />
	<ellipse cx="129" cy="225" rx="8" ry="14" fill="rgb(168,125,255)" fill-opacity="0.24" transform="rotate(76, 129, 225)" />
	<ellipse cx="28" cy="181" rx="17" ry="63" fill="rgb(55,50,40)" fill-opacity="0.36" transform="rotate(201, 28, 181)" />
	<ellipse cx="140" cy="189" rx="1" ry="1" fill="rgb(52,208,151)" fill-opacity="0.70" transform="rotate(131, 140, 189)" />
	<ellipse cx="54" cy="248" rx="18" ry="14" fill="rgb(62,162,21)" fill-opacity="0.19" transform="rotate(315, 54, 248)" />
	<ellipse cx="47" cy="92" rx="30" ry="55" fill="rgb(9,8,48)" fill-opacity="0.98" transform="rotate(267, 47, 92)" />
	<ellipse cx="7" cy="243" rx="21" ry="40" fill="rgb(110,207,157)" fill-opacity="0.16" transform="rotate(289, 7, 243)" />
	<ellipse cx="121" cy="209" rx="25" ry="49" fill="rgb(167,151,201)" fill-opacity="0.97" transform="rotate(70, 121, 209)" />
	<ellipse cx="119" cy="39" rx="26" ry="43" fill="rgb(9,115,157)" fill-opacity="0.46" transform="rotate(308, 119, 39)" />
	<ellipse cx="92" cy="79" rx="6" ry="41" fill="rgb(178,42,187)" fill-opacity="0.64" transform="rotate(16, 92, 79)" />
	<ellipse cx="66" cy="150" rx="1" ry="25" fill="rgb(191,84,246)" fill-opacity="0.38" transform="rotate(202, 66, 150)" />
	<ellipse cx="136" cy="27" rx="11" ry="44" fill="rgb(169,206,69)" fill-opacity="0.74" transform="rotate(237, 136, 27)" />
	<ellipse cx="101" cy="133" rx="37" ry="14" fill="rgb(44,47,148)" fill-opacity="0.69" transform="rotate(346, 101, 133)" />
	<ellipse cx="124" cy="244" rx="17" ry="20" fill="rgb(192,124,103)" fill-opacity="0.30" transform="rotate(167, 124, 244)" />
	<ellipse cx="130" cy="84" rx="38" ry="51" fill="rgb(134,128,205)" fill-opacity="0.49" transform="rotate(61, 130, 84)" />
	<ellipse cx="4" cy="130" rx="14" ry="56" fill="rgb(75,196,193)" fill-opacity="0.80" transform="rotate(155, 4, 130)" />
	<ellipse cx="20" cy="81" rx="25" ry="54" fill="rgb(123,124,109)" fill-opacity="0.99" transform="rotate(149, 20, 81)" />
	<ellipse cx="108" cy="11" rx="22" ry="58" fill="rgb(173,16,132)" fill-opacity="0.67" transform="rotate(170, 108, 11)" />
	<ellipse cx="132" cy="31" rx="43" ry="10" fill="rgb(204,231,232)" fill-opacity="0.87" transform="rotate(250, 132, 31)" />
	<ellipse cx="104" cy="24" rx="27" ry="52" fill="rgb(125,153,137)" fill-opacity="0.62" transform="rotate(256, 104, 24)" />
	<ellipse cx="114" cy="206" rx="26" ry="22" fill="rgb(148,178,122)" fill-opacity="0.49" transform="rotate(126, 114, 206)" />
	<ellipse cx="57" cy="141" rx="3" ry="10" fill="rgb(160,19,39)" fill-opacity="0.88" transform="rotate(41, 57, 141)" />
	<ellipse cx="43" cy="33" rx="33" ry="47" fill="rgb(198,103,51)" fill-opacity="0.43" transform="rotate(301, 43, 33)" />
	<ellipse cx="5" cy="26" rx="30" ry="26" fill="rgb(219,144,195)" fill-opacity="0.68" transform="rotate(79, 5, 26)" />
	<ellipse cx="108" cy="12" rx="37" ry="27" fill="rgb(96,221,228)" fill-opacity="0.59" transform="rotate(91, 108, 12)" />
	<ellipse cx="34" cy="241" rx="29" ry="37" fill="rgb(49,136,129)" fill-opacity="0.82" transform="rotate(213, 34, 241)" />
	<ellipse cx="0" cy="197" rx="41" ry="9" fill="rgb(26,198,191)" fill-opacity="0.28" transform="rotate(331, 0, 197)" />
	<ellipse cx="151" cy="109" rx="20" ry="7" fill="rgb(27,195,156)" fill-opacity="0.62" transform="rotate(273, 151, 109)" />
	<ellipse cx="143" cy="22" rx="35" ry="57" fill="rgb(223,238,132)" fill-opacity="0.51" transform="rotate(229, 143, 22)" />
	<ellipse cx="84" cy="191" rx="25" ry="50" fill="rgb(217,175,98)" fill-opacity="0.95" transform="rotate(335, 84, 191)" />
	<ellipse cx="163" cy="62" rx="22" ry="18" fill="rgb(174,195,224)" fill-opacity="0.33" transform="rotate(78, 163, 62)" />
	<ellipse cx="166" cy="150" rx="13" ry="19" fill="rgb(120,200,15)" fill-opacity="0.20" transform="rotate(221, 166, 150)" />
	<ellipse cx="164" cy="91" rx="25" ry="8" fill="rgb(211,75,106)" fill-opacity="0.62" transform="rotate(92, 164, 91)" />
	<ellipse cx="162" cy="165" rx="25" ry="42" fill="rgb(50,99,8)" fill-opacity="0.49" transform="rotate(151, 162, 165)" />
	<ellipse cx="15" cy="223" rx="16" ry="22" fill="rgb(21,98,63)" fill-opacity="0.46" transform="rotate(129, 15, 223)" />
	<ellipse cx="164" cy="170" rx="8" ry="8" fill="rgb(172,61,78)" fill-opacity="0.58" transform="rotate(341, 164, 170)" />
	<ellipse cx="47" cy="5" rx="22" ry="61" fill="rgb(188,80,106)" fill-opacity="0.76" transform="rotate(180, 47, 5)" />
	<ellipse cx="153" cy="171" rx="39" ry="39" fill="rgb(36,253,251)" fill-opacity="0.14" transform="rotate(216, 153, 171)" />
	<ellipse cx="92" cy="184" rx="23" ry="12" fill="rgb(87,232,24)" fill-opacity="0.45" transform="rotate(327, 92, 184)" />
	<ellipse cx="102" cy="7" rx="27" ry="42" fill="rgb(3,188,224)" fill-opacity="0.59" transform="rotate(19, 102, 7)" />
	<ellipse cx="52" cy="1" rx="7" ry="29" fill="rgb(21,213,184)" fill-opacity="0.63" transform="rotate(358, 52, 1)" />
	<ellipse cx="8" cy="134" rx="19" ry="14" fill="rgb(80,227,79)" fill-opacity="0.91" transform="rotate(100, 8, 134)" />
	<ellipse cx="28" cy="202" rx="1" ry="54" fill="rgb(26,214,165)" fill-opacity="0.37" transform="rotate(172, 28, 202)" />
	<ellipse cx="29" cy="177" rx="24" ry="33" fill="rgb(167,5,194)" fill-opacity="0.51" transform="rotate(227, 29, 177)" />
	<ellipse cx="157" cy="46" rx="21" ry="52" fill="rgb(204,8,251)" fill-opacity="0.12" transform="rotate(121, 157, 46)" />
	<ellipse cx="166" cy="53" rx="40" ry="33" fill="rgb(224,95,20)" fill-opacity="0.58" transform="rotate(329, 166, 53)" />
	<ellipse cx="163" cy="89" rx="44" ry="16" fill="rgb(35,241,133)" fill-opacity="0.25" transform="rotate(336, 163, 89)" />
	<ellipse cx="133" cy="75" rx="39" ry="38" fill="rgb(239,11,96)" fill-opacity="0.97" transform="rotate(166, 133, 75)" />
	<ellipse cx="148" cy="9" rx="41" ry="41" fill="rgb(46,6,175)" fill-opacity="0.80" transform="rotate(319, 148, 9)" />
	<ellipse cx="166" cy="135" rx="31" ry="49" fill="rgb(87,113,138)" fill-opacity="0.36" transform="rotate(150, 166, 135)" />
	<ellipse cx="13" cy="227" rx="25" ry="52" fill="rgb(215,40,165)" fill-opacity="0.76" transform="rotate(347, 13, 227)" />
	<ellipse cx="8" cy="247" rx="18" ry="51" fill="rgb(103,172,192)" fill-opacity="0.85" transform="rotate(223, 8, 247)" />
	<ellipse cx="162" cy="161" rx="26" ry="27" fill="rgb(58,196,251)" fill-opacity="0.93" transform="rotate(131, 162, 161)" />
	<ellipse cx="20" cy="22" rx="10" ry="60" fill="rgb(49,153,119)" fill-opacity="0.84" transform="rotate(351, 20, 22)" />
	<ellipse cx="70" cy="197" rx="38" ry="27" fill="rgb(164,48,224)" fill-opacity="0.67" transform="rotate(236, 70, 197)" />
	<ellipse cx="4" cy="28" rx="34" ry="59" fill="rgb(255,36,78)" fill-opacity="0.96" transform="rotate(78, 4, 28)" />
	<ellipse cx="166" cy="120" rx="10" ry="45" fill="rgb(125,225,102)" fill-opacity="0.73" transform="rotate(333, 166, 120)" />
	<ellipse cx="141" cy="55" rx="3" ry="37" fill="rgb(189,226,48)" fill-opacity="0.35" transform="rotate(211, 141, 55)" />
	<ellipse cx="126" cy="99" rx="4" ry="60" fill="rgb(61,170,61)" fill-opacity="0.78" transform="rotate(155, 126, 99)" />
	<ellipse cx="104" cy="150" rx="41" ry="24" fill="rgb(2,242,12)" fill-opacity="0.66" transform="rotate(12, 104, 150)" />
	<ellipse cx="64" cy="71" rx="19" ry="17" fill="rgb(65,133,20)" fill-opacity="0.69" transform="rotate(353, 64, 71)" />
	<ellipse cx="135" cy="205" rx="14" ry="24" fill="rgb(47,48,163)" fill-opacity="0.64" transform="rotate(353, 135, 205)" />
	<ellipse cx="3" cy="27" rx="1" ry="13" fill="rgb(249,179,80)" fill-opacity="0.57" transform="rotate(45, 3, 27)" />
</svg>