<svg width="168" height="250" xmlns="http://www.w3.org/2000/svg">
	<rect x="0" y="0" width="168" height="250" fill="black" />
	<ellipse cx="71" cy="21" rx="44" ry="58" fill="rgb(218,159,169)" fill-opacity="0.51" transform="rotate(23, 71, 21)" />
	<ellipse cx="139" cy="191" rx="1" ry="1" fill="rgb(136,107,62)" fill-opacity="0.60" transform="rotate(69, 139, 191)" />
	<ellipse cx="70" cy="137" rx="8" ry="31" fill="rgb(137,212,102)" fill-opacity="0.37" transform="rotate(158, 70, 137)" />
	<ellipse cx="16" cy="105" rx="17" ry="42" fill="rgb(142,88,39)" fill-opacity="0.69" transform="rotate(180, 16, 105)" />
	<ellipse cx="24" cy="90" rx="23" ry="19" fill="rgb(102,94,73)" fill-opacity="0.67" transform="rotate(204, 24, 90)" />
	<ellipse cx="40" cy="78" rx="24" ry="30" fill="rgb(215,240,184)" fill-opacity="0.91" transform="rotate(254, 40, 78)" />
	<ellipse cx="69" cy="157" rx="12" ry="23" fill="rgb(188,141,234)" fill-opacity="0.11" transform="rotate(87, 69, 157)" />
	<ellipse cx="94" cy="37" rx="31" ry="14" fill="rgb(255,254,134)" fill-opacity="0.81" transform="rotate(165, 94, 37)" />
	<ellipse cx="22" cy="50" rx="19" ry="36" fill="rgb(226,239,241)" fill-opacity="0.58" transform="rotate(253, 22, 50)" />
	<ellipse cx="22" cy="136" rx="20" ry="14" fill="rgb(203,201,68)" fill-opacity="0.49" transform="rotate(117, 22, 136)" />
	<ellipse cx="15" cy="4" rx="47" ry="46" fill="rgb(183,158,0)" fill-opacity="0.04" transform="rotate(39, 15, 4)" />
	<ellipse cx="61" cy="205" rx="17" ry="12" fill="rgb(160,71,4)" fill-opacity="0.98" transform="rotate(186, 61, 205)" />
	<ellipse cx="113" cy="114" rx="1" ry="12" fill="rgb(46,38,231)" fill-opacity="0.11" transform="rotate(116, 113, 114)" />
	<ellipse cx="110" cy="43" rx="11" ry="21" fill="rgb(239,162,11)" fill-opacity="0.86" transform="rotate(285, 110, 43)" />
	<ellipse cx="5" cy="118" rx="18" ry="37" fill="rgb(167,210,187)" fill-opacity="0.15" transform="rotate(92, 5, 118)" />
	<ellipse cx="130" cy="78" rx="16" ry="18" fill="rgb(158,30,254)" fill-opacity="0.82" transform="rotate(80, 130, 78)" />
	<ellipse cx="162" cy="135" rx="13" ry="34" fill="rgb(255,199,97)" fill-opacity="1.00" transform="rotate(345, 162, 135)" />
	<ellipse cx="40" cy="53" rx="18" ry="54" fill="rgb(3,195,203)" fill-opacity="0.22" transform="rotate(355, 40, 53)" />
	<ellipse cx="23" cy="198" rx="46" ry="20" fill="rgb(243,177,124)" fill-opacity="0.67" transform="rotate(199, 23, 198)" />
	<ellipse cx="16" cy="47" rx="27" ry="50" fill="rgb(36,81,30)" fill-opacity="0.74" transform="rotate(114, 16, 47)" />
	<ellipse cx="0" cy="120" rx="15" ry="1" fill="rgb(32,0,132)" fill-opacity="0.22" transform="rotate(84, 0, 120)" />
	<ellipse cx="160" cy="13" rx="44" ry="51" fill="rgb(84,162,48)" fill-opacity="0.64" transform="rotate(225, 160, 13)" />
	<ellipse cx="108" cy="204" rx="3" ry="3" fill="rgb(129,95,21)" fill-opacity="0.51" transform="rotate(222, 108, 204)" />
	<ellipse cx="89" cy="22" rx="13" ry="57" fill="rgb(78,23,11)" fill-opacity="1.00" transform="rotate(318, 89, 22)" />
	<ellipse cx="11" cy="9" rx="36" ry="65" fill="rgb(255,255,206)" fill-opacity="0.68" transform="rotate(331, 11, 9)" />
	<ellipse cx="27" cy="121" rx="6" ry="52" fill="rgb(110,213,48)" fill-opacity="0.35" transform="rotate(12, 27, 121)" />
	<ellipse cx="0" cy="28" rx="29" ry="22" fill="rgb(104,124,42)" fill-opacity="0.31" transform="rotate(269, 0, 28)" />
	<ellipse cx="99" cy="102" rx="18" ry="54" fill="rgb(255,255,152)" fill-opacity="0.95" transform="rotate(44, 99, 102)" />
	<ellipse cx="94" cy="206" rx="3" ry="13" fill="rgb(0,111,37)" fill-opacity="0.34" transform="rotate(216, 94, 206)" />
	<ellipse cx="159" cy="190" rx="7" ry="22" fill="rgb(19,216,180)" fill-opacity="0.61" transform="rotate(249, 159, 190)" />
	<ellipse cx="45" cy="61" rx="23" ry="1" fill="rgb(91,123,89)" fill-opacity="0.33" transform="rotate(35, 45, 61)" />
	<ellipse cx="120" cy="88" rx="2" ry="29" fill="rgb(255,67,213)" fill-opacity="0.56" transform="rotate(240, 120, 88)" />
	<ellipse cx="41" cy="202" rx="29" ry="16" fill="rgb(255,169,57)" fill-opacity="0.94" transform="rotate(61, 41, 202)" />
	<ellipse cx="69" cy="190" rx="31" ry="31" fill="rgb(0,0,137)" fill-opacity="0.22" transform="rotate(196, 69, 190)" />
	<ellipse cx="164" cy="185" rx="31" ry="15" fill="rgb(103,113,100)" fill-opacity="0.65" transform="rotate(67, 164, 185)" />
	<ellipse cx="20" cy="124" rx="10" ry="46" fill="rgb(152,133,44)" fill-opacity="0.43" transform="rotate(55, 20, 124)" />
	<ellipse cx="120" cy="149" rx="6" ry="6" fill="rgb(255,204,0)" fill-opacity="0.71" transform="rotate(21, 120, 149)" />
	<ellipse cx="122" cy="6" rx="19" ry="62" fill="rgb(0,39,8)" fill-opacity="0.69" transform="rotate(69, 122, 6)" />
	<ellipse cx="119" cy="201" rx="10" ry="49" fill="rgb(253,216,102)" fill-opacity="0.24" transform="rotate(253, 119, 201)" />
	<ellipse cx="23" cy="197" rx="19" ry="40" fill="rgb(0,28,46)" fill-opacity="0.88" transform="rotate(190, 23, 197)" />
	<ellipse cx="116" cy="99" rx="24" ry="30" fill="rgb(167,80,20)" fill-opacity="0.79" transform="rotate(224, 116, 99)" />
	<ellipse cx="142" cy="45" rx="61" ry="42" fill="rgb(0,49,145)" fill-opacity="0.44" transform="rotate(292, 142, 45)" />
	<ellipse cx="168" cy="250" rx="2" ry="2" fill="rgb(162,124,189)" fill-opacity="0.72" transform="rotate(103, 168, 250)" />
	<ellipse cx="120" cy="199" rx="1" ry="1" fill="rgb(191,122,99)" fill-opacity="0.31" transform="rotate(347, 120, 199)" />
	<ellipse cx="24" cy="61" rx="9" ry="57" fill="rgb(222,232,123)" fill-opacity="0.44" transform="rotate(4, 24, 61)" />
	<ellipse cx="144" cy="204" rx="21" ry="29" fill="rgb(0,5,26)" fill-opacity="0.66" transform="rotate(169, 144, 204)" />
	<ellipse cx="18" cy="247" rx="64" ry="106" fill="rgb(37,14,36)" fill-opacity="0.76" transform="rotate(331, 18, 247)" />
	<ellipse cx="27" cy="74" rx="10" ry="45" fill="rgb(98,154,90)" fill-opacity="0.71" transform="rotate(282, 27, 74)" />
	<ellipse cx="135" cy="152" rx="37" ry="30" fill="rgb(41,23,75)" fill-opacity="0.42" transform="rotate(164, 135, 152)" />
	<ellipse cx="112" cy="146" rx="4" ry="18" fill="rgb(116,214,37)" fill-opacity="0.16" transform="rotate(184, 112, 146)" />
	<ellipse cx="150" cy="208" rx="10" ry="35" fill="rgb(156,130,186)" fill-opacity="0.07" transform="rotate(179, 150, 208)" />
	<ellipse cx="81" cy="111" rx="10" ry="17" fill="rgb(82,213,228)" fill-opacity="0.72" transform="rotate(267, 81, 111)" />
	<ellipse cx="91" cy="79" rx="30" ry="58" fill="rgb(104,1,0)" fill-opacity="0.38" transform="rotate(330, 91, 79)" />
	<ellipse cx="0" cy="156" rx="1" ry="1" fill="rgb(247,193,245)" fill-opacity="0.45" transform="rotate(68, 0, 156)" />
	<ellipse cx="85" cy="100" rx="16" ry="37" fill="rgb(255,255,220)" fill-opacity="0.57" transform="rotate(353, 85, 100)" />
	<ellipse cx="47" cy="29" rx="15" ry="15" fill="rgb(202,171,187)" fill-opacity="0.64" transform="rotate(224, 47, 29)" />
	<ellipse cx="2" cy="74" rx="18" ry="44" fill="rgb(13,60,75)" fill-opacity="0.41" transform="rotate(328, 2, 74)" />
	<ellipse cx="134" cy="2" rx="37" ry="66" fill="rgb(243,208,93)" fill-opacity="0.46" transform="rotate(347, 134, 2)" />
	<ellipse cx="76" cy="207" rx="11" ry="31" fill="rgb(228,45,33)" fill-opacity="0.53" transform="rotate(268, 76, 207)" />
	<ellipse cx="168" cy="215" rx="22" ry="22" fill="rgb(145,142,100)" fill-opacity="0.12" transform="rotate(131, 168, 215)" />
	<ellipse cx="40" cy="0" rx="17" ry="28" fill="rgb(45,12,47)" fill-opacity="0.72" transform="rotate(290, 40, 0)" />
	<ellipse cx="101" cy="78" rx="12" ry="43" fill="rgb(179,136,59)" fill-opacity="0.53" transform="rotate(113, 101, 78)" />
	<ellipse cx="168" cy="211" rx="10" ry="10" fill="rgb(173,124,128)" fill-opacity="0.29" transform="rotate(90, 168, 211)" />
	<ellipse cx="31" cy="20" rx="34" ry="34" fill="rgb(144,243,99)" fill-opacity="0.14" transform="rotate(35, 31, 20)" />
	<ellipse cx="48" cy="0" rx="33" ry="40" fill="rgb(116,163,85)" fill-opacity="0.69" transform="rotate(81, 48, 0)" />
	<ellipse cx="167" cy="249" rx="10" ry="1" fill="rgb(85,133,64)" fill-opacity="0.52" transform="rotate(299, 167, 249)" />
	<ellipse cx="58" cy="31" rx="25" ry="27" fill="rgb(234,203,92)" fill-opacity="0.23" transform="rotate(282, 58, 31)" />
	<ellipse cx="52" cy="210" rx="9" ry="9" fill="rgb(99,243,89)" fill-opacity="0.33" transform="rotate(80, 52, 210)" />
	<ellipse cx="152" cy="168" rx="37" ry="33" fill="rgb(132,38,158)" fill-opacity="0.15" transform="rotate(90, 152, 168)" />
	<ellipse cx="92" cy="121" rx="2" ry="46" fill="rgb(234,193,71)" fill-opacity="0.46" transform="rotate(127, 92, 121)" />
	<ellipse cx="143" cy="71" rx="1" ry="13" fill="rgb(209,39,152)" fill-opacity="1.00" transform="rotate(212, 143, 71)" />
	<ellipse cx="113" cy="88" rx="17" ry="35" fill="rgb(106,32,78)" fill-opacity="0.71" transform="rotate(269, 113, 88)" />
	<ellipse cx="168" cy="174" rx="1" ry="1" fill="rgb(25,194,147)" fill-opacity="0.34" transform="rotate(125, 168, 174)" />
	<ellipse cx="50" cy="79" rx="8" ry="38" fill="rgb(0,2,43)" fill-opacity="0.46" transform="rotate(125, 50, 79)" />
	<ellipse cx="28" cy="121" rx="1" ry="13" fill="rgb(213,187,57)" fill-opacity="0.98" transform="rotate(125, 28, 121)" />
	<ellipse cx="113" cy="61" rx="22" ry="34" fill="rgb(14,53,2)" fill-opacity="0.26" transform="rotate(307, 113, 61)" />
	<ellipse cx="43" cy="85" rx="55" ry="24" fill="rgb(24,15,11)" fill-opacity="0.40" transform="rotate(208, 43, 85)" />
	<ellipse cx="125" cy="79" rx="23" ry="23" fill="rgb(16,88,58)" fill-opacity="0.36" transform="rotate(209, 125, 79)" />
	<ellipse cx="48" cy="198" rx="10" ry="44" fill="rgb(118,84,30)" fill-opacity="0.35" transform="rotate(303, 48, 198)" />
	<ellipse cx="146" cy="69" rx="38" ry="24" fill="rgb(164,150,92)" fill-opacity="0.55" transform="rotate(306, 146, 69)" />
	<ellipse cx="83" cy="4" rx="13" ry="35" fill="rgb(116,133,78)" fill-opacity="1.00" transform="rotate(306, 83, 4)" />
	<ellipse cx="158" cy="88" rx="31" ry="37" fill="rgb(152,173,104)" fill-opacity="0.98" transform="rotate(259, 158, 88)" />
	<ellipse cx="82" cy="105" rx="43" ry="30" fill="rgb(239,23,9)" fill-opacity="0.04" transform="rotate(270, 82, 105)" />
	<ellipse cx="168" cy="225" rx="19" ry="10" fill="rgb(128,68,75)" fill-opacity="0.31" transform="rotate(82, 168, 225)" />
	<ellipse cx="86" cy="0" rx="25" ry="24" fill="rgb(77,142,76)" fill-opacity="0.49" transform="rotate(13, 86, 0)" />
	<ellipse cx="156" cy="50" rx="14" ry="49" fill="rgb(182,224,161)" fill-opacity="0.22" transform="rotate(286, 156, 50)" />
	<ellipse cx="56" cy="171" rx="35" ry="65" fill="rgb(155,102,55)" fill-opacity="0.27" transform="rotate(339, 56, 171)" />
	<ellipse cx="71" cy="100" rx="6" ry="2" fill="rgb(85,1,32)" fill-opacity="0.53" transform="rotate(291, 71, 100)" />
	<ellipse cx="28" cy="35" rx="5" ry="5" fill="rgb(131,152,111)" fill-opacity="0.34" transform="rotate(205, 28, 35)" />
	<ellipse cx="135" cy="129" rx="64" ry="87" fill="rgb(44,34,37)" fill-opacity="0.58" transform="rotate(293, 135, 129)" />
	<ellipse cx="83" cy="63" rx="4" ry="51" fill="rgb(244,178,106)" fill-opacity="0.11" transform="rotate(78, 83, 63)" />
	<ellipse cx="80" cy="90" rx="17" ry="57" fill="rgb(255,204,70)" fill-opacity="0.36" transform="rotate(353, 80, 90)" />
	<ellipse cx="103" cy="114" rx="12" ry="3" fill="rgb(171,133,13)" fill-opacity="0.38" transform="rotate(121, 103, 114)" />
	<ellipse cx="115" cy="125" rx="2" ry="37" fill="rgb(109,77,40)" fill-opacity="0.59" transform="rotate(66, 115, 125)" />
	<ellipse cx="74" cy="119" rx="10" ry="38" fill="rgb(255,213,98)" fill-opacity="0.68" transform="rotate(57, 74, 119)" />
	<ellipse cx="95" cy="4" rx="36" ry="27" fill="rgb(169,67,83)" fill-opacity="0.16" transform="rotate(313, 95, 4)" />
	<ellipse cx="20" cy="48" rx="47" ry="29" fill="rgb(219,199,103)" fill-opacity="0.20" transform="rotate(342, 20, 48)" />
	<ellipse cx="108" cy="211" rx="14" ry="21" fill="rgb(203,121,22)" fill-opacity="0.25" transform="rotate(92, 108, 211)" />
	<ellipse cx="19" cy="151" rx="51" ry="27" fill="rgb(58,38,46)" fill-opacity="0.67" transform="rotate(169, 19, 151)" />
	<ellipse cx="103" cy="96" rx="18" ry="17" fill="rgb(19,0,0)" fill-opacity="0.35" transform="rotate(234, 103, 96)" />
	<ellipse cx="33" cy="90" rx="12" ry="8" fill="rgb(75,113,91)" fill-opacity="0.59" transform="rotate(53, 33, 90)" />
	<ellipse cx="1" cy="153" rx="18" ry="36" fill="rgb(182,116,64)" fill-opacity="0.41" transform="rotate(44, 1, 153)" />
	<ellipse cx="29" cy="94" rx="1" ry="1" fill="rgb(89,66,153)" fill-opacity="0.32" transform="rotate(178, 29, 94)" />
	<ellipse cx="21" cy="43" rx="58" ry="40" fill="rgb(75,68,49)" fill-opacity="0.35" transform="rotate(293, 21, 43)" />
	<ellipse cx="8" cy="174" rx="29" ry="37" fill="rgb(107,128,149)" fill-opacity="0.07" transform="rotate(212, 8, 174)" />
	<ellipse cx="131" cy="120" rx="3" ry="40" fill="rgb(191,146,61)" fill-opacity="0.41" transform="rotate(81, 131, 120)" />
	<ellipse cx="37" cy="12" rx="1" ry="1" fill="rgb(172,164,97)" fill-opacity="0.22" transform="rotate(147, 37, 12)" />
	<ellipse cx="166" cy="65" rx="14" ry="18" fill="rgb(96,88,76)" fill-opacity="0.45" transform="rotate(236, 166, 65)" />
	<ellipse cx="158" cy="240" rx="1" ry="1" fill="rgb(156,152,61)" fill-opacity="0.15" transform="rotate(13, 158, 240)" />
	<ellipse cx="131" cy="122" rx="3" ry="10" fill="rgb(0,27,31)" fill-opacity="0.51" transform="rotate(256, 131, 122)" />
	<ellipse cx="64" cy="195" rx="22" ry="8" fill="rgb(184,138,63)" fill-opacity="0.97" transform="rotate(21, 64, 195)" />
	<ellipse cx="123" cy="0" rx="12" ry="16" fill="rgb(27,94,51)" fill-opacity="0.32" transform="rotate(85, 123, 0)" />
	<ellipse cx="19" cy="31" rx="13" ry="13" fill="rgb(156,127,131)" fill-opacity="0.10" transform="rotate(117, 19, 31)" />
	<ellipse cx="35" cy="109" rx="27" ry="45" fill="rgb(89,43,34)" fill-opacity="0.44" transform="rotate(221, 35, 109)" />
	<ellipse cx="168" cy="250" rx="11" ry="31" fill="rgb(62,25,157)" fill-opacity="0.15" transform="rotate(232, 168, 250)" />
	<ellipse cx="0" cy="0" rx="6" ry="33" fill="rgb(69,100,65)" fill-opacity="0.60" transform="rotate(80, 0, 0)" />
	<ellipse cx="145" cy="123" rx="1" ry="5" fill="rgb(115,142,65)" fill-opacity="0.31" transform="rotate(354, 145, 123)" />
	<ellipse cx="125" cy="242" rx="49" ry="78" fill="rgb(29,10,40)" fill-opacity="0.44" transform="rotate(13, 125, 242)" />
</svg>