<svg width="195" height="250" xmlns="http://www.w3.org/2000/svg">
<rect width="100%" height="100%" fill="rgb(129,127,127)"/>
<ellipse cx="150.74" cy="3.97" rx="12.49" ry="16.41" fill="rgb(146,151,165)" fill-opacity="0.765" transform="rotate(-184.56 150.74 3.97)"/>
<ellipse cx="-10.39" cy="24.47" rx="12.77" ry="17.72" fill="rgb(130,134,144)" fill-opacity="0.674" transform="rotate(13.74 -10.39 24.47)"/>
<ellipse cx="63.84" cy="214.27" rx="9.18" ry="23.58" fill="rgb(46,36,24)" fill-opacity="0.818" transform="rotate(-168.73 63.84 214.27)"/>
<ellipse cx="15.55" cy="246.31" rx="10.87" ry="6.06" fill="rgb(54,47,38)" fill-opacity="0.671" transform="rotate(-96.66 15.55 246.31)"/>
<ellipse cx="10.02" cy="51.33" rx="14.71" ry="23.51" fill="rgb(172,174,185)" fill-opacity="0.925" transform="rotate(-24.26 10.02 51.33)"/>
<ellipse cx="12.32" cy="74.30" rx="16.41" ry="19.51" fill="rgb(201,197,198)" fill-opacity="0.889" transform="rotate(-3.26 12.32 74.30)"/>
<ellipse cx="93.31" cy="106.80" rx="13.08" ry="24.45" fill="rgb(81,80,74)" fill-opacity="1.000" transform="rotate(-7.25 93.31 106.80)"/>
<ellipse cx="52.95" cy="-1.71" rx="14.14" ry="20.11" fill="rgb(140,145,156)" fill-opacity="0.935" transform="rotate(43.17 52.95 -1.71)"/>
<ellipse cx="67.50" cy="19.63" rx="15.16" ry="22.17" fill="rgb(153,156,167)" fill-opacity="0.953" transform="rotate(-16.82 67.50 19.63)"/>
<ellipse cx="-6.15" cy="244.02" rx="18.98" ry="19.83" fill="rgb(57,51,44)" fill-opacity="0.768" transform="rotate(-3.20 -6.15 244.02)"/>
<ellipse cx="109.69" cy="234.38" rx="14.62" ry="18.75" fill="rgb(43,37,27)" fill-opacity="0.900" transform="rotate(0.00 109.69 234.38)"/>
<ellipse cx="40.89" cy="57.32" rx="14.30" ry="19.88" fill="rgb(184,182,189)" fill-opacity="0.940" transform="rotate(-0.10 40.89 57.32)"/>
<ellipse cx="40.29" cy="80.45" rx="13.26" ry="19.95" fill="rgb(198,193,194)" fill-opacity="0.885" transform="rotate(7.74 40.29 80.45)"/>
<ellipse cx="28.66" cy="148.14" rx="13.80" ry="17.76" fill="rgb(92,89,79)" fill-opacity="0.879" transform="rotate(-20.79 28.66 148.14)"/>
<ellipse cx="44.49" cy="169.03" rx="13.62" ry="18.21" fill="rgb(147,141,129)" fill-opacity="1.000" transform="rotate(0.23 44.49 169.03)"/>
<ellipse cx="36.81" cy="186.62" rx="18.20" ry="18.02" fill="rgb(152,150,143)" fill-opacity="0.884" transform="rotate(-10.89 36.81 186.62)"/>
<ellipse cx="54.22" cy="47.81" rx="13.28" ry="19.54" fill="rgb(175,173,181)" fill-opacity="0.807" transform="rotate(-12.25 54.22 47.81)"/>
<ellipse cx="30.89" cy="143.12" rx="16.11" ry="21.66" fill="rgb(103,100,90)" fill-opacity="0.691" transform="rotate(-7.06 30.89 143.12)"/>
<ellipse cx="64.01" cy="178.22" rx="14.33" ry="16.55" fill="rgb(73,62,46)" fill-opacity="0.699" transform="rotate(12.05 64.01 178.22)"/>
<ellipse cx="164.59" cy="31.95" rx="10.52" ry="5.99" fill="rgb(151,154,170)" fill-opacity="0.912" transform="rotate(-167.57 164.59 31.95)"/>
<ellipse cx="67.09" cy="182.25" rx="15.06" ry="18.00" fill="rgb(58,47,31)" fill-opacity="0.930" transform="rotate(-5.15 67.09 182.25)"/>
<ellipse cx="36.01" cy="12.84" rx="2.58" ry="8.99" fill="rgb(153,156,164)" fill-opacity="0.855" transform="rotate(-287.40 36.01 12.84)"/>
<ellipse cx="60.64" cy="235.40" rx="14.86" ry="18.61" fill="rgb(47,38,27)" fill-opacity="0.969" transform="rotate(3.07 60.64 235.40)"/>
<ellipse cx="84.63" cy="14.51" rx="16.12" ry="23.51" fill="rgb(151,154,167)" fill-opacity="0.800" transform="rotate(2.02 84.63 14.51)"/>
<ellipse cx="76.17" cy="69.51" rx="10.30" ry="22.30" fill="rgb(186,181,187)" fill-opacity="1.000" transform="rotate(8.73 76.17 69.51)"/>
<ellipse cx="101.56" cy="67.73" rx="14.98" ry="17.05" fill="rgb(193,186,188)" fill-opacity="0.822" transform="rotate(13.87 101.56 67.73)"/>
<ellipse cx="59.94" cy="200.85" rx="10.82" ry="20.56" fill="rgb(51,41,27)" fill-opacity="0.918" transform="rotate(-164.63 59.94 200.85)"/>
<ellipse cx="72.84" cy="79.93" rx="15.23" ry="19.44" fill="rgb(186,182,187)" fill-opacity="0.941" transform="rotate(35.17 72.84 79.93)"/>
<ellipse cx="116.73" cy="88.92" rx="14.14" ry="18.01" fill="rgb(205,197,195)" fill-opacity="1.000" transform="rotate(-19.42 116.73 88.92)"/>
<ellipse cx="95.99" cy="140.56" rx="14.64" ry="20.86" fill="rgb(51,52,44)" fill-opacity="0.608" transform="rotate(-8.08 95.99 140.56)"/>
<ellipse cx="94.00" cy="146.58" rx="14.89" ry="20.29" fill="rgb(57,57,48)" fill-opacity="0.813" transform="rotate(27.31 94.00 146.58)"/>
<ellipse cx="117.79" cy="203.56" rx="19.50" ry="15.49" fill="rgb(44,35,24)" fill-opacity="1.000" transform="rotate(-27.06 117.79 203.56)"/>
<ellipse cx="133.42" cy="55.12" rx="14.94" ry="19.46" fill="rgb(175,171,178)" fill-opacity="0.858" transform="rotate(-8.65 133.42 55.12)"/>
<ellipse cx="81.64" cy="186.50" rx="11.36" ry="21.17" fill="rgb(55,43,27)" fill-opacity="0.834" transform="rotate(-12.38 81.64 186.50)"/>
<ellipse cx="123.31" cy="110.71" rx="13.25" ry="15.91" fill="rgb(168,166,171)" fill-opacity="0.862" transform="rotate(0.76 123.31 110.71)"/>
<ellipse cx="25.29" cy="147.34" rx="13.39" ry="16.15" fill="rgb(89,88,79)" fill-opacity="0.529" transform="rotate(0.07 25.29 147.34)"/>
<ellipse cx="174.28" cy="87.89" rx="5.54" ry="13.12" fill="rgb(206,198,198)" fill-opacity="0.946" transform="rotate(-4.63 174.28 87.89)"/>
<ellipse cx="119.98" cy="149.20" rx="13.35" ry="28.02" fill="rgb(136,135,136)" fill-opacity="0.910" transform="rotate(-15.70 119.98 149.20)"/>
<ellipse cx="69.21" cy="206.56" rx="2.23" ry="18.76" fill="rgb(47,35,20)" fill-opacity="0.952" transform="rotate(-306.21 69.21 206.56)"/>
<ellipse cx="175.49" cy="184.83" rx="15.67" ry="16.78" fill="rgb(158,159,167)" fill-opacity="0.757" transform="rotate(-1.39 175.49 184.83)"/>
<ellipse cx="182.81" cy="46.88" rx="14.62" ry="18.75" fill="rgb(165,165,178)" fill-opacity="0.900" transform="rotate(0.00 182.81 46.88)"/>
<ellipse cx="96.79" cy="217.77" rx="17.57" ry="22.06" fill="rgb(44,36,25)" fill-opacity="0.995" transform="rotate(2.60 96.79 217.77)"/>
<ellipse cx="25.12" cy="237.41" rx="14.38" ry="21.88" fill="rgb(51,43,33)" fill-opacity="1.000" transform="rotate(-60.56 25.12 237.41)"/>
<ellipse cx="186.37" cy="161.87" rx="18.82" ry="16.26" fill="rgb(183,184,194)" fill-opacity="1.000" transform="rotate(-33.64 186.37 161.87)"/>
<ellipse cx="132.37" cy="161.20" rx="13.15" ry="17.92" fill="rgb(167,165,166)" fill-opacity="0.801" transform="rotate(1.49 132.37 161.20)"/>
<ellipse cx="58.11" cy="83.67" rx="15.96" ry="18.10" fill="rgb(183,180,185)" fill-opacity="0.962" transform="rotate(1.92 58.11 83.67)"/>
<ellipse cx="135.45" cy="209.33" rx="15.85" ry="19.38" fill="rgb(44,36,26)" fill-opacity="0.904" transform="rotate(-7.15 135.45 209.33)"/>
<ellipse cx="154.47" cy="45.85" rx="15.12" ry="21.33" fill="rgb(167,165,176)" fill-opacity="1.000" transform="rotate(-1.14 154.47 45.85)"/>
<ellipse cx="158.44" cy="78.12" rx="14.62" ry="18.75" fill="rgb(199,192,193)" fill-opacity="0.900" transform="rotate(0.00 158.44 78.12)"/>
<ellipse cx="39.36" cy="224.10" rx="15.91" ry="25.22" fill="rgb(51,42,29)" fill-opacity="0.928" transform="rotate(-253.04 39.36 224.10)"/>
<ellipse cx="12.18" cy="119.43" rx="10.41" ry="14.43" fill="rgb(156,155,157)" fill-opacity="0.563" transform="rotate(-171.47 12.18 119.43)"/>
<ellipse cx="91.33" cy="188.22" rx="10.17" ry="21.21" fill="rgb(52,41,26)" fill-opacity="1.000" transform="rotate(-98.59 91.33 188.22)"/>
<ellipse cx="151.07" cy="140.88" rx="15.23" ry="15.07" fill="rgb(125,125,129)" fill-opacity="0.846" transform="rotate(-1.00 151.07 140.88)"/>
<ellipse cx="109.97" cy="12.90" rx="14.25" ry="17.87" fill="rgb(146,150,163)" fill-opacity="0.910" transform="rotate(-0.23 109.97 12.90)"/>
<ellipse cx="158.70" cy="176.38" rx="14.42" ry="17.52" fill="rgb(174,174,179)" fill-opacity="0.803" transform="rotate(4.61 158.70 176.38)"/>
<ellipse cx="144.42" cy="207.02" rx="10.26" ry="15.86" fill="rgb(46,39,28)" fill-opacity="0.925" transform="rotate(2.75 144.42 207.02)"/>
<ellipse cx="46.42" cy="244.09" rx="12.69" ry="19.29" fill="rgb(47,38,27)" fill-opacity="0.872" transform="rotate(0.68 46.42 244.09)"/>
<ellipse cx="175.94" cy="64.88" rx="9.42" ry="12.60" fill="rgb(191,187,193)" fill-opacity="0.781" transform="rotate(-233.41 175.94 64.88)"/>
<ellipse cx="182.43" cy="20.62" rx="11.92" ry="20.84" fill="rgb(143,150,166)" fill-opacity="0.912" transform="rotate(-4.68 182.43 20.62)"/>
<ellipse cx="65.53" cy="126.25" rx="12.79" ry="16.22" fill="rgb(166,165,164)" fill-opacity="0.915" transform="rotate(14.48 65.53 126.25)"/>
<ellipse cx="186.83" cy="76.51" rx="15.51" ry="19.50" fill="rgb(205,199,202)" fill-opacity="0.960" transform="rotate(1.28 186.83 76.51)"/>
<ellipse cx="192.98" cy="140.09" rx="13.65" ry="19.08" fill="rgb(193,194,199)" fill-opacity="1.000" transform="rotate(-16.44 192.98 140.09)"/>
<ellipse cx="106.39" cy="240.54" rx="13.10" ry="8.32" fill="rgb(44,38,29)" fill-opacity="0.795" transform="rotate(-18.20 106.39 240.54)"/>
<ellipse cx="26.99" cy="32.79" rx="17.77" ry="27.28" fill="rgb(153,157,171)" fill-opacity="0.935" transform="rotate(-286.66 26.99 32.79)"/>
<ellipse cx="20.59" cy="86.73" rx="5.96" ry="15.06" fill="rgb(203,198,196)" fill-opacity="0.865" transform="rotate(-213.39 20.59 86.73)"/>
<ellipse cx="154.92" cy="115.61" rx="15.33" ry="17.86" fill="rgb(156,157,163)" fill-opacity="0.902" transform="rotate(-0.63 154.92 115.61)"/>
<ellipse cx="86.86" cy="246.10" rx="15.72" ry="19.70" fill="rgb(46,39,30)" fill-opacity="0.941" transform="rotate(-1.29 86.86 246.10)"/>
<ellipse cx="184.70" cy="230.43" rx="15.08" ry="19.68" fill="rgb(48,41,32)" fill-opacity="1.000" transform="rotate(-9.66 184.70 230.43)"/>
<ellipse cx="149.42" cy="93.78" rx="4.58" ry="12.56" fill="rgb(163,163,172)" fill-opacity="0.801" transform="rotate(-186.63 149.42 93.78)"/>
<ellipse cx="25.56" cy="122.50" rx="7.28" ry="15.94" fill="rgb(148,145,140)" fill-opacity="0.998" transform="rotate(-117.61 25.56 122.50)"/>
<ellipse cx="100.22" cy="124.46" rx="16.85" ry="19.09" fill="rgb(54,56,52)" fill-opacity="0.893" transform="rotate(-230.67 100.22 124.46)"/>
<ellipse cx="7.61" cy="233.91" rx="2.46" ry="15.13" fill="rgb(55,50,42)" fill-opacity="0.687" transform="rotate(-155.99 7.61 233.91)"/>
<ellipse cx="179.29" cy="124.48" rx="16.90" ry="18.64" fill="rgb(166,168,177)" fill-opacity="0.922" transform="rotate(-359.31 179.29 124.48)"/>
<ellipse cx="103.96" cy="67.04" rx="16.95" ry="18.99" fill="rgb(191,185,187)" fill-opacity="0.947" transform="rotate(-282.13 103.96 67.04)"/>
<ellipse cx="11.24" cy="153.23" rx="11.26" ry="19.54" fill="rgb(102,104,102)" fill-opacity="0.802" transform="rotate(-54.38 11.24 153.23)"/>
<ellipse cx="13.74" cy="179.00" rx="16.82" ry="14.79" fill="rgb(170,165,161)" fill-opacity="1.000" transform="rotate(-2.21 13.74 179.00)"/>
<ellipse cx="158.44" cy="15.62" rx="14.62" ry="18.75" fill="rgb(149,153,170)" fill-opacity="0.900" transform="rotate(0.00 158.44 15.62)"/>
<ellipse cx="58.33" cy="191.17" rx="2.36" ry="7.00" fill="rgb(44,37,26)" fill-opacity="0.885" transform="rotate(-222.55 58.33 191.17)"/>
<ellipse cx="98.63" cy="79.57" rx="4.16" ry="21.96" fill="rgb(209,200,198)" fill-opacity="0.848" transform="rotate(-238.79 98.63 79.57)"/>
<ellipse cx="149.16" cy="134.58" rx="10.17" ry="5.27" fill="rgb(100,102,102)" fill-opacity="0.836" transform="rotate(-249.54 149.16 134.58)"/>
<ellipse cx="59.66" cy="124.50" rx="4.12" ry="8.57" fill="rgb(181,178,177)" fill-opacity="0.887" transform="rotate(-169.37 59.66 124.50)"/>
<ellipse cx="7.63" cy="257.94" rx="3.18" ry="24.39" fill="rgb(58,54,46)" fill-opacity="0.957" transform="rotate(-365.50 7.63 257.94)"/>
<ellipse cx="93.30" cy="39.07" rx="19.44" ry="15.26" fill="rgb(166,166,177)" fill-opacity="1.000" transform="rotate(-73.74 93.30 39.07)"/>
<ellipse cx="175.73" cy="-15.90" rx="14.43" ry="12.19" fill="rgb(128,128,128)" fill-opacity="0.758" transform="rotate(-59.98 175.73 -15.90)"/>
<ellipse cx="183.10" cy="22.68" rx="7.18" ry="6.69" fill="rgb(149,154,171)" fill-opacity="1.000" transform="rotate(-20.78 183.10 22.68)"/>
<ellipse cx="130.08" cy="-17.52" rx="4.53" ry="4.83" fill="rgb(128,128,128)" fill-opacity="0.695" transform="rotate(-300.38 130.08 -17.52)"/>
<ellipse cx="58.77" cy="-22.91" rx="5.23" ry="8.77" fill="rgb(128,128,128)" fill-opacity="0.948" transform="rotate(-112.13 58.77 -22.91)"/>
<ellipse cx="123.98" cy="184.53" rx="15.16" ry="14.90" fill="rgb(60,52,40)" fill-opacity="0.850" transform="rotate(-216.69 123.98 184.53)"/>
<ellipse cx="153.52" cy="161.79" rx="12.12" ry="18.47" fill="rgb(184,182,186)" fill-opacity="0.920" transform="rotate(-282.14 153.52 161.79)"/>
<ellipse cx="82.24" cy="218.53" rx="16.59" ry="20.87" fill="rgb(44,35,24)" fill-opacity="0.954" transform="rotate(-77.53 82.24 218.53)"/>
<ellipse cx="174.82" cy="210.44" rx="8.36" ry="1.71" fill="rgb(60,52,39)" fill-opacity="1.000" transform="rotate(-94.53 174.82 210.44)"/>
<ellipse cx="65.26" cy="154.18" rx="19.60" ry="14.50" fill="rgb(118,113,100)" fill-opacity="0.835" transform="rotate(-272.77 65.26 154.18)"/>
<ellipse cx="97.28" cy="116.13" rx="9.72" ry="17.79" fill="rgb(48,50,44)" fill-opacity="0.985" transform="rotate(-109.94 97.28 116.13)"/>
<ellipse cx="17.87" cy="79.94" rx="18.69" ry="9.34" fill="rgb(204,199,199)" fill-opacity="0.782" transform="rotate(-61.87 17.87 79.94)"/>
<ellipse cx="131.53" cy="168.29" rx="7.96" ry="5.16" fill="rgb(187,183,183)" fill-opacity="0.998" transform="rotate(-295.47 131.53 168.29)"/>
<ellipse cx="63.30" cy="58.38" rx="11.58" ry="22.63" fill="rgb(184,179,183)" fill-opacity="1.000" transform="rotate(-329.01 63.30 58.38)"/>
<ellipse cx="143.48" cy="178.09" rx="10.70" ry="5.91" fill="rgb(125,126,131)" fill-opacity="0.623" transform="rotate(-184.50 143.48 178.09)"/>
<ellipse cx="126.92" cy="90.93" rx="13.20" ry="19.30" fill="rgb(206,198,197)" fill-opacity="0.775" transform="rotate(-159.70 126.92 90.93)"/>
<ellipse cx="136.40" cy="121.69" rx="3.80" ry="2.58" fill="rgb(185,184,192)" fill-opacity="0.989" transform="rotate(-339.49 136.40 121.69)"/>
<ellipse cx="6.11" cy="81.71" rx="13.83" ry="11.58" fill="rgb(201,196,195)" fill-opacity="0.943" transform="rotate(-208.34 6.11 81.71)"/>
<ellipse cx="158.85" cy="86.08" rx="21.39" ry="5.38" fill="rgb(204,197,195)" fill-opacity="0.787" transform="rotate(-306.08 158.85 86.08)"/>
<ellipse cx="22.79" cy="53.31" rx="19.35" ry="4.39" fill="rgb(175,176,186)" fill-opacity="0.769" transform="rotate(-15.81 22.79 53.31)"/>
<ellipse cx="117.19" cy="39.89" rx="14.73" ry="13.90" fill="rgb(169,166,175)" fill-opacity="0.963" transform="rotate(19.75 117.19 39.89)"/>
<ellipse cx="56.52" cy="86.38" rx="19.21" ry="18.12" fill="rgb(184,181,185)" fill-opacity="1.000" transform="rotate(-191.06 56.52 86.38)"/>
<ellipse cx="13.97" cy="148.50" rx="4.70" ry="27.03" fill="rgb(115,118,118)" fill-opacity="0.730" transform="rotate(-322.69 13.97 148.50)"/>
<ellipse cx="175.43" cy="128.84" rx="6.19" ry="25.22" fill="rgb(157,158,167)" fill-opacity="1.000" transform="rotate(-346.22 175.43 128.84)"/>
<ellipse cx="188.55" cy="9.34" rx="19.75" ry="11.02" fill="rgb(128,138,153)" fill-opacity="0.983" transform="rotate(-291.02 188.55 9.34)"/>
<ellipse cx="138.15" cy="97.96" rx="10.34" ry="3.48" fill="rgb(200,194,196)" fill-opacity="0.779" transform="rotate(-322.13 138.15 97.96)"/>
<ellipse cx="48.24" cy="23.93" rx="12.83" ry="2.60" fill="rgb(155,158,168)" fill-opacity="0.861" transform="rotate(-55.05 48.24 23.93)"/>
<ellipse cx="8.79" cy="15.88" rx="9.73" ry="9.45" fill="rgb(118,127,142)" fill-opacity="0.849" transform="rotate(-337.26 8.79 15.88)"/>
<ellipse cx="173.95" cy="238.68" rx="17.28" ry="12.15" fill="rgb(47,39,29)" fill-opacity="0.872" transform="rotate(-25.16 173.95 238.68)"/>
<ellipse cx="175.44" cy="101.75" rx="1.82" ry="8.21" fill="rgb(110,116,122)" fill-opacity="0.926" transform="rotate(-278.83 175.44 101.75)"/>
<ellipse cx="75.83" cy="94.62" rx="13.82" ry="18.89" fill="rgb(175,173,179)" fill-opacity="0.949" transform="rotate(-149.32 75.83 94.62)"/>
<ellipse cx="116.99" cy="149.58" rx="2.34" ry="9.14" fill="rgb(170,166,172)" fill-opacity="1.000" transform="rotate(-296.76 116.99 149.58)"/>
<ellipse cx="118.83" cy="233.79" rx="4.03" ry="20.32" fill="rgb(43,37,27)" fill-opacity="0.654" transform="rotate(-80.57 118.83 233.79)"/>
<ellipse cx="75.36" cy="70.94" rx="15.55" ry="8.77" fill="rgb(198,192,195)" fill-opacity="0.937" transform="rotate(-129.25 75.36 70.94)"/>
<ellipse cx="79.28" cy="90.17" rx="7.08" ry="15.94" fill="rgb(169,167,174)" fill-opacity="0.930" transform="rotate(-58.02 79.28 90.17)"/>
<ellipse cx="20.26" cy="-15.45" rx="21.92" ry="3.57" fill="rgb(128,128,128)" fill-opacity="0.927" transform="rotate(-310.04 20.26 -15.45)"/>
<ellipse cx="31.80" cy="171.38" rx="19.81" ry="9.88" fill="rgb(178,173,165)" fill-opacity="1.000" transform="rotate(-7.26 31.80 171.38)"/>
<ellipse cx="159.36" cy="210.69" rx="13.90" ry="20.74" fill="rgb(56,48,37)" fill-opacity="0.875" transform="rotate(-72.52 159.36 210.69)"/>
<ellipse cx="30.33" cy="144.49" rx="19.12" ry="19.28" fill="rgb(100,97,88)" fill-opacity="1.000" transform="rotate(-102.83 30.33 144.49)"/>
<ellipse cx="115.73" cy="181.26" rx="17.46" ry="15.73" fill="rgb(52,43,29)" fill-opacity="0.658" transform="rotate(-308.31 115.73 181.26)"/>
<ellipse cx="20.93" cy="243.18" rx="5.43" ry="22.63" fill="rgb(46,40,31)" fill-opacity="0.861" transform="rotate(-289.84 20.93 243.18)"/>
<ellipse cx="135.10" cy="22.64" rx="15.24" ry="15.84" fill="rgb(158,159,172)" fill-opacity="0.991" transform="rotate(-1.29 135.10 22.64)"/>
<ellipse cx="52.46" cy="146.73" rx="14.96" ry="7.85" fill="rgb(98,91,76)" fill-opacity="0.890" transform="rotate(-135.30 52.46 146.73)"/>
<ellipse cx="-2.33" cy="124.89" rx="13.66" ry="19.03" fill="rgb(155,156,158)" fill-opacity="0.746" transform="rotate(7.00 -2.33 124.89)"/>
<ellipse cx="15.72" cy="72.64" rx="6.36" ry="1.90" fill="rgb(208,203,204)" fill-opacity="0.901" transform="rotate(-237.70 15.72 72.64)"/>
<ellipse cx="133.35" cy="78.19" rx="14.80" ry="18.48" fill="rgb(202,194,194)" fill-opacity="0.826" transform="rotate(-1.38 133.35 78.19)"/>
<ellipse cx="143.11" cy="114.36" rx="14.40" ry="12.95" fill="rgb(159,159,166)" fill-opacity="0.900" transform="rotate(-132.13 143.11 114.36)"/>
<ellipse cx="22.99" cy="10.31" rx="9.35" ry="2.40" fill="rgb(124,133,146)" fill-opacity="1.000" transform="rotate(-254.90 22.99 10.31)"/>
<ellipse cx="3.91" cy="63.91" rx="7.47" ry="7.88" fill="rgb(195,193,198)" fill-opacity="0.846" transform="rotate(-55.53 3.91 63.91)"/>
<ellipse cx="92.35" cy="82.53" rx="3.24" ry="5.36" fill="rgb(215,204,198)" fill-opacity="1.000" transform="rotate(-92.43 92.35 82.53)"/>
<ellipse cx="45.88" cy="122.85" rx="12.63" ry="15.55" fill="rgb(167,165,165)" fill-opacity="0.898" transform="rotate(31.87 45.88 122.85)"/>
<ellipse cx="27.09" cy="122.22" rx="4.68" ry="14.30" fill="rgb(145,141,134)" fill-opacity="0.860" transform="rotate(-361.40 27.09 122.22)"/>
<ellipse cx="190.71" cy="123.91" rx="15.67" ry="15.66" fill="rgb(174,175,185)" fill-opacity="0.708" transform="rotate(-6.02 190.71 123.91)"/>
<ellipse cx="4.56" cy="126.57" rx="14.02" ry="15.83" fill="rgb(157,157,159)" fill-opacity="1.000" transform="rotate(-109.42 4.56 126.57)"/>
<ellipse cx="132.24" cy="241.64" rx="13.81" ry="18.44" fill="rgb(43,37,29)" fill-opacity="0.952" transform="rotate(-4.20 132.24 241.64)"/>
<ellipse cx="31.84" cy="71.03" rx="15.94" ry="7.70" fill="rgb(203,198,199)" fill-opacity="1.000" transform="rotate(-61.47 31.84 71.03)"/>
<ellipse cx="155.23" cy="81.79" rx="3.39" ry="20.30" fill="rgb(204,197,196)" fill-opacity="0.906" transform="rotate(-198.77 155.23 81.79)"/>
<ellipse cx="115.34" cy="29.15" rx="2.55" ry="19.88" fill="rgb(174,173,183)" fill-opacity="0.877" transform="rotate(-100.69 115.34 29.15)"/>
<ellipse cx="172.82" cy="169.38" rx="4.18" ry="28.74" fill="rgb(178,178,187)" fill-opacity="0.884" transform="rotate(-167.42 172.82 169.38)"/>
<ellipse cx="104.02" cy="171.72" rx="13.12" ry="17.55" fill="rgb(52,45,31)" fill-opacity="0.844" transform="rotate(-6.78 104.02 171.72)"/>
<ellipse cx="181.04" cy="207.70" rx="2.04" ry="3.73" fill="rgb(65,56,43)" fill-opacity="0.966" transform="rotate(-287.84 181.04 207.70)"/>
<ellipse cx="62.03" cy="35.84" rx="15.26" ry="3.29" fill="rgb(163,165,176)" fill-opacity="0.860" transform="rotate(-334.19 62.03 35.84)"/>
<ellipse cx="126.94" cy="217.35" rx="4.03" ry="16.34" fill="rgb(42,34,25)" fill-opacity="0.993" transform="rotate(-325.43 126.94 217.35)"/>
<ellipse cx="120.63" cy="128.18" rx="11.91" ry="6.80" fill="rgb(168,168,178)" fill-opacity="0.829" transform="rotate(-39.04 120.63 128.18)"/>
<ellipse cx="187.54" cy="66.40" rx="10.06" ry="12.63" fill="rgb(193,190,196)" fill-opacity="0.966" transform="rotate(-292.02 187.54 66.40)"/>
<ellipse cx="155.08" cy="235.57" rx="15.18" ry="18.72" fill="rgb(46,38,28)" fill-opacity="1.000" transform="rotate(6.94 155.08 235.57)"/>
<ellipse cx="55.43" cy="159.51" rx="7.36" ry="9.01" fill="rgb(161,151,138)" fill-opacity="0.775" transform="rotate(-70.76 55.43 159.51)"/>
<ellipse cx="132.40" cy="91.72" rx="14.07" ry="12.55" fill="rgb(207,199,198)" fill-opacity="0.927" transform="rotate(-77.52 132.40 91.72)"/>
</svg>